<?xml version="1.0" encoding="UTF-8" standalone="no"?>
<!-- Created with Inkscape (http://www.inkscape.org/) -->

<svg
   xmlns:dc="http://purl.org/dc/elements/1.1/"
   xmlns:cc="http://creativecommons.org/ns#"
   xmlns:rdf="http://www.w3.org/1999/02/22-rdf-syntax-ns#"
   xmlns:svg="http://www.w3.org/2000/svg"
   xmlns="http://www.w3.org/2000/svg"
   xmlns:sodipodi="http://sodipodi.sourceforge.net/DTD/sodipodi-0.dtd"
   xmlns:inkscape="http://www.inkscape.org/namespaces/inkscape"
   width="355.70663"
   height="339.60529"
   viewBox="0 0 94.114045 89.853901"
   version="1.1"
   id="svg8183"
   inkscape:version="0.92.1 r15371"
   sodipodi:docname="dNsbc_dNveg_shoot_171002.svg">
  <defs
     id="defs8177">
    <clipPath
       id="clipPath8878"
       clipPathUnits="userSpaceOnUse">
      <path
         inkscape:connector-curvature="0"
         id="path8876"
         d="M 54.63,56.41 H 258.99 V 252.99 H 54.63 Z" />
    </clipPath>
    <clipPath
       id="clipPath8966"
       clipPathUnits="userSpaceOnUse">
      <path
         inkscape:connector-curvature="0"
         id="path8964"
         d="M 54.63,56.41 H 258.99 V 252.99 H 54.63 Z" />
    </clipPath>
  </defs>
  <sodipodi:namedview
     id="base"
     pagecolor="#ffffff"
     bordercolor="#666666"
     borderopacity="1.0"
     inkscape:pageopacity="0.0"
     inkscape:pageshadow="2"
     inkscape:zoom="0.35"
     inkscape:cx="-27.860974"
     inkscape:cy="-527.34018"
     inkscape:document-units="mm"
     inkscape:current-layer="layer1"
     showgrid="false"
     units="px"
     fit-margin-top="5"
     fit-margin-left="5"
     fit-margin-right="5"
     fit-margin-bottom="5"
     inkscape:window-width="1276"
     inkscape:window-height="1396"
     inkscape:window-x="1920"
     inkscape:window-y="20"
     inkscape:window-maximized="0" />
  <metadata
     id="metadata8180">
    <rdf:RDF>
      <cc:Work
         rdf:about="">
        <dc:format>image/svg+xml</dc:format>
        <dc:type
           rdf:resource="http://purl.org/dc/dcmitype/StillImage" />
        <dc:title></dc:title>
      </cc:Work>
    </rdf:RDF>
  </metadata>
  <g
     inkscape:label="Layer 1"
     inkscape:groupmode="layer"
     id="layer1"
     transform="translate(12.283212,80.545998)">
    <g
       transform="matrix(0.35277777,0,0,-0.35277777,-13.058618,12.226786)"
       inkscape:label="dNsbc_dNveg_shoot_171002"
       id="g8736">
      <g
         id="g8738" />
      <g
         id="g8740" />
      <g
         id="g8742">
        <text
           id="text8746"
           style="font-variant:normal;font-weight:normal;font-size:12px;font-family:Symbol;-inkscape-font-specification:Symbol;writing-mode:lr-tb;fill:#000000;fill-opacity:1;fill-rule:nonzero;stroke:none"
           transform="matrix(1,0,0,-1,104.65,14.64)">
          <tspan
             id="tspan8744"
             y="0"
             x="0">∆</tspan>
        </text>
        <text
           id="text8750"
           style="font-variant:normal;font-weight:normal;font-size:12px;font-family:Helvetica;-inkscape-font-specification:Helvetica;writing-mode:lr-tb;fill:#000000;fill-opacity:1;fill-rule:nonzero;stroke:none"
           transform="matrix(1,0,0,-1,111.99,14.64)">
          <tspan
             id="tspan8748"
             y="0"
             x="0">N</tspan>
        </text>
        <text
           id="text8754"
           style="font-variant:normal;font-weight:normal;font-size:12px;font-family:Helvetica;-inkscape-font-specification:Helvetica;writing-mode:lr-tb;fill:#000000;fill-opacity:1;fill-rule:nonzero;stroke:none"
           transform="matrix(1,0,0,-1,120.66,14.64)">
          <tspan
             id="tspan8752"
             y="0"
             x="0">v</tspan>
        </text>
        <text
           id="text8758"
           style="font-variant:normal;font-weight:normal;font-size:12px;font-family:Helvetica;-inkscape-font-specification:Helvetica;writing-mode:lr-tb;fill:#000000;fill-opacity:1;fill-rule:nonzero;stroke:none"
           transform="matrix(1,0,0,-1,126.66,14.64)">
          <tspan
             id="tspan8756"
             y="0"
             x="0">e</tspan>
        </text>
        <text
           id="text8762"
           style="font-variant:normal;font-weight:normal;font-size:12px;font-family:Helvetica;-inkscape-font-specification:Helvetica;writing-mode:lr-tb;fill:#000000;fill-opacity:1;fill-rule:nonzero;stroke:none"
           transform="matrix(1,0,0,-1,133.33,14.64)">
          <tspan
             id="tspan8760"
             y="0"
             x="0">g</tspan>
        </text>
        <text
           id="text8766"
           style="font-variant:normal;font-weight:normal;font-size:12px;font-family:Helvetica;-inkscape-font-specification:Helvetica;writing-mode:lr-tb;fill:#000000;fill-opacity:1;fill-rule:nonzero;stroke:none"
           transform="matrix(1,0,0,-1,140,14.64)">
          <tspan
             id="tspan8764"
             sodipodi:role="line"
             y="0"
             x="0 3.336">,</tspan>
        </text>
        <text
           id="text8770"
           style="font-variant:normal;font-weight:normal;font-size:12px;font-family:Helvetica;-inkscape-font-specification:Helvetica;writing-mode:lr-tb;fill:#000000;fill-opacity:1;fill-rule:nonzero;stroke:none"
           transform="matrix(1,0,0,-1,146.67,14.64)">
          <tspan
             id="tspan8768"
             y="0"
             x="0">m</tspan>
        </text>
        <text
           id="text8774"
           style="font-variant:normal;font-weight:normal;font-size:12px;font-family:Helvetica;-inkscape-font-specification:Helvetica;writing-mode:lr-tb;fill:#000000;fill-opacity:1;fill-rule:nonzero;stroke:none"
           transform="matrix(1,0,0,-1,156.67,14.64)">
          <tspan
             id="tspan8772"
             y="0"
             x="0">g</tspan>
        </text>
        <text
           id="text8778"
           style="font-variant:normal;font-weight:normal;font-size:12px;font-family:Symbol;-inkscape-font-specification:Symbol;writing-mode:lr-tb;fill:#000000;fill-opacity:1;fill-rule:nonzero;stroke:none"
           transform="matrix(1,0,0,-1,165.56,14.64)">
          <tspan
             id="tspan8776"
             y="0"
             x="0">⋅</tspan>
        </text>
        <text
           id="text8782"
           style="font-variant:normal;font-weight:normal;font-size:12px;font-family:Helvetica;-inkscape-font-specification:Helvetica;writing-mode:lr-tb;fill:#000000;fill-opacity:1;fill-rule:nonzero;stroke:none"
           transform="matrix(1,0,0,-1,170.78,14.64)">
          <tspan
             id="tspan8780"
             y="0"
             x="0">s</tspan>
        </text>
        <text
           id="text8786"
           style="font-variant:normal;font-weight:normal;font-size:12px;font-family:Helvetica;-inkscape-font-specification:Helvetica;writing-mode:lr-tb;fill:#000000;fill-opacity:1;fill-rule:nonzero;stroke:none"
           transform="matrix(1,0,0,-1,176.78,14.64)">
          <tspan
             id="tspan8784"
             y="0"
             x="0">h</tspan>
        </text>
        <text
           id="text8790"
           style="font-variant:normal;font-weight:normal;font-size:12px;font-family:Helvetica;-inkscape-font-specification:Helvetica;writing-mode:lr-tb;fill:#000000;fill-opacity:1;fill-rule:nonzero;stroke:none"
           transform="matrix(1,0,0,-1,183.46,14.64)">
          <tspan
             id="tspan8788"
             y="0"
             x="0">o</tspan>
        </text>
        <text
           id="text8794"
           style="font-variant:normal;font-weight:normal;font-size:12px;font-family:Helvetica;-inkscape-font-specification:Helvetica;writing-mode:lr-tb;fill:#000000;fill-opacity:1;fill-rule:nonzero;stroke:none"
           transform="matrix(1,0,0,-1,190.13,14.64)">
          <tspan
             id="tspan8792"
             y="0"
             x="0">o</tspan>
        </text>
        <text
           id="text8798"
           style="font-variant:normal;font-weight:normal;font-size:12px;font-family:Helvetica;-inkscape-font-specification:Helvetica;writing-mode:lr-tb;fill:#000000;fill-opacity:1;fill-rule:nonzero;stroke:none"
           transform="matrix(1,0,0,-1,196.8,14.64)">
          <tspan
             id="tspan8796"
             y="0"
             x="0">t</tspan>
        </text>
        <text
           id="text8802"
           style="font-variant:normal;font-weight:normal;font-size:8px;font-family:Symbol;-inkscape-font-specification:Symbol;writing-mode:lr-tb;fill:#000000;fill-opacity:1;fill-rule:nonzero;stroke:none"
           transform="matrix(1,0,0,-1,200.14,20.6)">
          <tspan
             id="tspan8800"
             y="0"
             x="0">−</tspan>
        </text>
        <text
           id="text8806"
           style="font-variant:normal;font-weight:normal;font-size:8px;font-family:Helvetica;-inkscape-font-specification:Helvetica;writing-mode:lr-tb;fill:#000000;fill-opacity:1;fill-rule:nonzero;stroke:none"
           transform="matrix(1,0,0,-1,204.53,20.6)">
          <tspan
             id="tspan8804"
             y="0"
             x="0">1</tspan>
        </text>
      </g>
      <g
         id="g8808">
        <text
           id="text8812"
           style="font-variant:normal;font-weight:normal;font-size:12px;font-family:Symbol;-inkscape-font-specification:Symbol;writing-mode:lr-tb;fill:#000000;fill-opacity:1;fill-rule:nonzero;stroke:none"
           transform="matrix(0,1,1,0,17.59,66.19)">
          <tspan
             id="tspan8810"
             y="0"
             x="0">∆</tspan>
        </text>
        <text
           id="text8816"
           style="font-variant:normal;font-weight:normal;font-size:12px;font-family:Helvetica;-inkscape-font-specification:Helvetica;writing-mode:lr-tb;fill:#000000;fill-opacity:1;fill-rule:nonzero;stroke:none"
           transform="matrix(0,1,1,0,17.59,73.53)">
          <tspan
             id="tspan8814"
             y="0"
             x="0">N</tspan>
        </text>
        <text
           id="text8820"
           style="font-variant:normal;font-weight:normal;font-size:12px;font-family:Helvetica;-inkscape-font-specification:Helvetica;writing-mode:lr-tb;fill:#000000;fill-opacity:1;fill-rule:nonzero;stroke:none"
           transform="matrix(0,1,1,0,17.59,82.19)">
          <tspan
             id="tspan8818"
             sodipodi:role="line"
             y="0"
             x="0 6 9.3360004 16.007999 26.004 33.012001 39.683998 46.355999 52.355999 59.028 66.036003 72.036003 78.708 85.379997 88.716003">stem+base+chaff</tspan>
        </text>
        <text
           id="text8824"
           style="font-variant:normal;font-weight:normal;font-size:12px;font-family:Helvetica;-inkscape-font-specification:Helvetica;writing-mode:lr-tb;fill:#000000;fill-opacity:1;fill-rule:nonzero;stroke:none"
           transform="matrix(0,1,1,0,17.59,174.25)">
          <tspan
             id="tspan8822"
             sodipodi:role="line"
             y="0"
             x="0 3.336">,</tspan>
        </text>
        <text
           id="text8828"
           style="font-variant:normal;font-weight:normal;font-size:12px;font-family:Helvetica;-inkscape-font-specification:Helvetica;writing-mode:lr-tb;fill:#000000;fill-opacity:1;fill-rule:nonzero;stroke:none"
           transform="matrix(0,1,1,0,17.59,180.92)">
          <tspan
             id="tspan8826"
             y="0"
             x="0">m</tspan>
        </text>
        <text
           id="text8832"
           style="font-variant:normal;font-weight:normal;font-size:12px;font-family:Helvetica;-inkscape-font-specification:Helvetica;writing-mode:lr-tb;fill:#000000;fill-opacity:1;fill-rule:nonzero;stroke:none"
           transform="matrix(0,1,1,0,17.59,190.91)">
          <tspan
             id="tspan8830"
             y="0"
             x="0">g</tspan>
        </text>
        <text
           id="text8836"
           style="font-variant:normal;font-weight:normal;font-size:12px;font-family:Symbol;-inkscape-font-specification:Symbol;writing-mode:lr-tb;fill:#000000;fill-opacity:1;fill-rule:nonzero;stroke:none"
           transform="matrix(0,1,1,0,17.59,199.81)">
          <tspan
             id="tspan8834"
             y="0"
             x="0">⋅</tspan>
        </text>
        <text
           id="text8840"
           style="font-variant:normal;font-weight:normal;font-size:12px;font-family:Helvetica;-inkscape-font-specification:Helvetica;writing-mode:lr-tb;fill:#000000;fill-opacity:1;fill-rule:nonzero;stroke:none"
           transform="matrix(0,1,1,0,17.59,205.03)">
          <tspan
             id="tspan8838"
             y="0"
             x="0">s</tspan>
        </text>
        <text
           id="text8844"
           style="font-variant:normal;font-weight:normal;font-size:12px;font-family:Helvetica;-inkscape-font-specification:Helvetica;writing-mode:lr-tb;fill:#000000;fill-opacity:1;fill-rule:nonzero;stroke:none"
           transform="matrix(0,1,1,0,17.59,211.03)">
          <tspan
             id="tspan8842"
             y="0"
             x="0">h</tspan>
        </text>
        <text
           id="text8848"
           style="font-variant:normal;font-weight:normal;font-size:12px;font-family:Helvetica;-inkscape-font-specification:Helvetica;writing-mode:lr-tb;fill:#000000;fill-opacity:1;fill-rule:nonzero;stroke:none"
           transform="matrix(0,1,1,0,17.59,217.7)">
          <tspan
             id="tspan8846"
             y="0"
             x="0">o</tspan>
        </text>
        <text
           id="text8852"
           style="font-variant:normal;font-weight:normal;font-size:12px;font-family:Helvetica;-inkscape-font-specification:Helvetica;writing-mode:lr-tb;fill:#000000;fill-opacity:1;fill-rule:nonzero;stroke:none"
           transform="matrix(0,1,1,0,17.59,224.37)">
          <tspan
             id="tspan8850"
             y="0"
             x="0">o</tspan>
        </text>
        <text
           id="text8856"
           style="font-variant:normal;font-weight:normal;font-size:12px;font-family:Helvetica;-inkscape-font-specification:Helvetica;writing-mode:lr-tb;fill:#000000;fill-opacity:1;fill-rule:nonzero;stroke:none"
           transform="matrix(0,1,1,0,17.59,231.04)">
          <tspan
             id="tspan8854"
             y="0"
             x="0">t</tspan>
        </text>
        <text
           id="text8860"
           style="font-variant:normal;font-weight:normal;font-size:8px;font-family:Symbol;-inkscape-font-specification:Symbol;writing-mode:lr-tb;fill:#000000;fill-opacity:1;fill-rule:nonzero;stroke:none"
           transform="matrix(0,1,1,0,11.62,234.38)">
          <tspan
             id="tspan8858"
             y="0"
             x="0">−</tspan>
        </text>
        <text
           id="text8864"
           style="font-variant:normal;font-weight:normal;font-size:8px;font-family:Helvetica;-inkscape-font-specification:Helvetica;writing-mode:lr-tb;fill:#000000;fill-opacity:1;fill-rule:nonzero;stroke:none"
           transform="matrix(0,1,1,0,11.62,238.77)">
          <tspan
             id="tspan8862"
             y="0"
             x="0">1</tspan>
        </text>
      </g>
      <g
         id="g8866" />
      <g
         id="g8868" />
      <g
         id="g8870" />
      <g
         id="g8872">
        <g
           clip-path="url(#clipPath8878)"
           id="g8874">
          <path
             inkscape:connector-curvature="0"
             id="path8880"
             style="fill:#ffffff;fill-opacity:1;fill-rule:nonzero;stroke:none"
             d="M 54.63,56.41 H 258.99 V 252.99 H 54.63 Z" />
        </g>
      </g>
      <g
         id="g8882" />
      <g
         id="g8884">
        <path
           inkscape:connector-curvature="0"
           id="path8886"
           style="fill:none;stroke:#a6a6a6;stroke-width:1.12;stroke-linecap:round;stroke-linejoin:round;stroke-miterlimit:10;stroke-dasharray:none;stroke-opacity:1"
           d="m 67.18,252.99 v 5.67" />
        <path
           inkscape:connector-curvature="0"
           id="path8888"
           style="fill:none;stroke:#a6a6a6;stroke-width:1.12;stroke-linecap:round;stroke-linejoin:round;stroke-miterlimit:10;stroke-dasharray:none;stroke-opacity:1"
           d="m 119.99,252.99 v 5.67" />
        <path
           inkscape:connector-curvature="0"
           id="path8890"
           style="fill:none;stroke:#a6a6a6;stroke-width:1.12;stroke-linecap:round;stroke-linejoin:round;stroke-miterlimit:10;stroke-dasharray:none;stroke-opacity:1"
           d="m 172.79,252.99 v 5.67" />
        <path
           inkscape:connector-curvature="0"
           id="path8892"
           style="fill:none;stroke:#a6a6a6;stroke-width:1.12;stroke-linecap:round;stroke-linejoin:round;stroke-miterlimit:10;stroke-dasharray:none;stroke-opacity:1"
           d="m 225.6,252.99 v 5.67" />
      </g>
      <g
         id="g8894" />
      <g
         id="g8896">
        <path
           inkscape:connector-curvature="0"
           id="path8898"
           style="fill:none;stroke:#a6a6a6;stroke-width:1.12;stroke-linecap:round;stroke-linejoin:round;stroke-miterlimit:10;stroke-dasharray:none;stroke-opacity:1"
           d="M 54.63,73.9 H 48.96" />
        <path
           inkscape:connector-curvature="0"
           id="path8900"
           style="fill:none;stroke:#a6a6a6;stroke-width:1.12;stroke-linecap:round;stroke-linejoin:round;stroke-miterlimit:10;stroke-dasharray:none;stroke-opacity:1"
           d="M 54.63,122.66 H 48.96" />
        <path
           inkscape:connector-curvature="0"
           id="path8902"
           style="fill:none;stroke:#a6a6a6;stroke-width:1.12;stroke-linecap:round;stroke-linejoin:round;stroke-miterlimit:10;stroke-dasharray:none;stroke-opacity:1"
           d="M 54.63,171.41 H 48.96" />
        <path
           inkscape:connector-curvature="0"
           id="path8904"
           style="fill:none;stroke:#a6a6a6;stroke-width:1.12;stroke-linecap:round;stroke-linejoin:round;stroke-miterlimit:10;stroke-dasharray:none;stroke-opacity:1"
           d="M 54.63,220.17 H 48.96" />
        <text
           id="text8908"
           style="font-variant:normal;font-weight:normal;font-size:10px;font-family:Helvetica;-inkscape-font-specification:Helvetica;writing-mode:lr-tb;fill:#000000;fill-opacity:1;fill-rule:nonzero;stroke:none"
           transform="matrix(1,0,0,-1,37.74,70.31)">
          <tspan
             id="tspan8906"
             y="0"
             x="0">2</tspan>
        </text>
        <text
           id="text8912"
           style="font-variant:normal;font-weight:normal;font-size:10px;font-family:Helvetica;-inkscape-font-specification:Helvetica;writing-mode:lr-tb;fill:#000000;fill-opacity:1;fill-rule:nonzero;stroke:none"
           transform="matrix(1,0,0,-1,37.74,119.07)">
          <tspan
             id="tspan8910"
             y="0"
             x="0">0</tspan>
        </text>
        <text
           id="text8916"
           style="font-variant:normal;font-weight:normal;font-size:10px;font-family:Helvetica;-inkscape-font-specification:Helvetica;writing-mode:lr-tb;fill:#000000;fill-opacity:1;fill-rule:nonzero;stroke:none"
           transform="matrix(1,0,0,-1,31.9,167.82)">
          <tspan
             id="tspan8914"
             sodipodi:role="line"
             y="0"
             x="0 5.8400002">−2</tspan>
        </text>
        <text
           id="text8920"
           style="font-variant:normal;font-weight:normal;font-size:10px;font-family:Helvetica;-inkscape-font-specification:Helvetica;writing-mode:lr-tb;fill:#000000;fill-opacity:1;fill-rule:nonzero;stroke:none"
           transform="matrix(1,0,0,-1,31.9,216.58)">
          <tspan
             id="tspan8918"
             sodipodi:role="line"
             y="0"
             x="0 5.8400002">−4</tspan>
        </text>
      </g>
      <g
         id="g8922" />
      <g
         id="g8924">
        <path
           inkscape:connector-curvature="0"
           id="path8926"
           style="fill:none;stroke:#a6a6a6;stroke-width:1.12;stroke-linecap:round;stroke-linejoin:round;stroke-miterlimit:10;stroke-dasharray:none;stroke-opacity:1"
           d="M 67.18,56.41 V 50.74" />
        <path
           inkscape:connector-curvature="0"
           id="path8928"
           style="fill:none;stroke:#a6a6a6;stroke-width:1.12;stroke-linecap:round;stroke-linejoin:round;stroke-miterlimit:10;stroke-dasharray:none;stroke-opacity:1"
           d="M 119.99,56.41 V 50.74" />
        <path
           inkscape:connector-curvature="0"
           id="path8930"
           style="fill:none;stroke:#a6a6a6;stroke-width:1.12;stroke-linecap:round;stroke-linejoin:round;stroke-miterlimit:10;stroke-dasharray:none;stroke-opacity:1"
           d="M 172.79,56.41 V 50.74" />
        <path
           inkscape:connector-curvature="0"
           id="path8932"
           style="fill:none;stroke:#a6a6a6;stroke-width:1.12;stroke-linecap:round;stroke-linejoin:round;stroke-miterlimit:10;stroke-dasharray:none;stroke-opacity:1"
           d="M 225.6,56.41 V 50.74" />
        <text
           id="text8936"
           style="font-variant:normal;font-weight:normal;font-size:10px;font-family:Helvetica;-inkscape-font-specification:Helvetica;writing-mode:lr-tb;fill:#000000;fill-opacity:1;fill-rule:nonzero;stroke:none"
           transform="matrix(1,0,0,-1,61.48,37.9)">
          <tspan
             id="tspan8934"
             sodipodi:role="line"
             y="0"
             x="0 5.8400002">−5</tspan>
        </text>
        <text
           id="text8940"
           style="font-variant:normal;font-weight:normal;font-size:10px;font-family:Helvetica;-inkscape-font-specification:Helvetica;writing-mode:lr-tb;fill:#000000;fill-opacity:1;fill-rule:nonzero;stroke:none"
           transform="matrix(1,0,0,-1,111.51,37.9)">
          <tspan
             id="tspan8938"
             sodipodi:role="line"
             y="0"
             x="0 5.8400002 11.4">−10</tspan>
        </text>
        <text
           id="text8944"
           style="font-variant:normal;font-weight:normal;font-size:10px;font-family:Helvetica;-inkscape-font-specification:Helvetica;writing-mode:lr-tb;fill:#000000;fill-opacity:1;fill-rule:nonzero;stroke:none"
           transform="matrix(1,0,0,-1,164.31,37.9)">
          <tspan
             id="tspan8942"
             sodipodi:role="line"
             y="0"
             x="0 5.8400002 11.4">−15</tspan>
        </text>
        <text
           id="text8948"
           style="font-variant:normal;font-weight:normal;font-size:10px;font-family:Helvetica;-inkscape-font-specification:Helvetica;writing-mode:lr-tb;fill:#000000;fill-opacity:1;fill-rule:nonzero;stroke:none"
           transform="matrix(1,0,0,-1,217.12,37.9)">
          <tspan
             id="tspan8946"
             sodipodi:role="line"
             y="0"
             x="0 5.8400002 11.4">−20</tspan>
        </text>
        <path
           inkscape:connector-curvature="0"
           id="path8950"
           style="fill:none;stroke:#a6a6a6;stroke-width:1.12;stroke-linecap:round;stroke-linejoin:round;stroke-miterlimit:10;stroke-dasharray:none;stroke-opacity:1"
           d="m 258.99,73.9 h 5.67" />
        <path
           inkscape:connector-curvature="0"
           id="path8952"
           style="fill:none;stroke:#a6a6a6;stroke-width:1.12;stroke-linecap:round;stroke-linejoin:round;stroke-miterlimit:10;stroke-dasharray:none;stroke-opacity:1"
           d="m 258.99,122.66 h 5.67" />
        <path
           inkscape:connector-curvature="0"
           id="path8954"
           style="fill:none;stroke:#a6a6a6;stroke-width:1.12;stroke-linecap:round;stroke-linejoin:round;stroke-miterlimit:10;stroke-dasharray:none;stroke-opacity:1"
           d="m 258.99,171.41 h 5.67" />
        <path
           inkscape:connector-curvature="0"
           id="path8956"
           style="fill:none;stroke:#a6a6a6;stroke-width:1.12;stroke-linecap:round;stroke-linejoin:round;stroke-miterlimit:10;stroke-dasharray:none;stroke-opacity:1"
           d="m 258.99,220.17 h 5.67" />
      </g>
      <g
         id="g8958" />
      <g
         id="g8960">
        <g
           clip-path="url(#clipPath8966)"
           id="g8962">
          <path
             inkscape:connector-curvature="0"
             id="path8968"
             style="fill:none;stroke:#e5e5e5;stroke-width:0.75;stroke-linecap:round;stroke-linejoin:round;stroke-miterlimit:10;stroke-dasharray:none;stroke-opacity:1"
             d="M 54.63,73.9 H 258.99" />
          <path
             inkscape:connector-curvature="0"
             id="path8970"
             style="fill:none;stroke:#e5e5e5;stroke-width:0.75;stroke-linecap:round;stroke-linejoin:round;stroke-miterlimit:10;stroke-dasharray:none;stroke-opacity:1"
             d="M 54.63,122.66 H 258.99" />
          <path
             inkscape:connector-curvature="0"
             id="path8972"
             style="fill:none;stroke:#e5e5e5;stroke-width:0.75;stroke-linecap:round;stroke-linejoin:round;stroke-miterlimit:10;stroke-dasharray:none;stroke-opacity:1"
             d="M 54.63,171.41 H 258.99" />
          <path
             inkscape:connector-curvature="0"
             id="path8974"
             style="fill:none;stroke:#e5e5e5;stroke-width:0.75;stroke-linecap:round;stroke-linejoin:round;stroke-miterlimit:10;stroke-dasharray:none;stroke-opacity:1"
             d="M 54.63,220.17 H 258.99" />
          <path
             inkscape:connector-curvature="0"
             id="path8976"
             style="fill:none;stroke:#e5e5e5;stroke-width:0.75;stroke-linecap:round;stroke-linejoin:round;stroke-miterlimit:10;stroke-dasharray:none;stroke-opacity:1"
             d="M 67.18,56.41 V 252.99" />
          <path
             inkscape:connector-curvature="0"
             id="path8978"
             style="fill:none;stroke:#e5e5e5;stroke-width:0.75;stroke-linecap:round;stroke-linejoin:round;stroke-miterlimit:10;stroke-dasharray:none;stroke-opacity:1"
             d="M 119.99,56.41 V 252.99" />
          <path
             inkscape:connector-curvature="0"
             id="path8980"
             style="fill:none;stroke:#e5e5e5;stroke-width:0.75;stroke-linecap:round;stroke-linejoin:round;stroke-miterlimit:10;stroke-dasharray:none;stroke-opacity:1"
             d="M 172.79,56.41 V 252.99" />
          <path
             inkscape:connector-curvature="0"
             id="path8982"
             style="fill:none;stroke:#e5e5e5;stroke-width:0.75;stroke-linecap:round;stroke-linejoin:round;stroke-miterlimit:10;stroke-dasharray:none;stroke-opacity:1"
             d="M 225.6,56.41 V 252.99" />
          <path
             inkscape:connector-curvature="0"
             id="path8984"
             style="fill:none;stroke:#458b00;stroke-width:1.5;stroke-linecap:round;stroke-linejoin:round;stroke-miterlimit:10;stroke-dasharray:none;stroke-opacity:0.8"
             d="m 177.85,165.15 c 0,1.98 1.62,3.6 3.6,3.6 1.98,0 3.6,-1.62 3.6,-3.6 0,-1.98 -1.62,-3.6 -3.6,-3.6 -1.98,0 -3.6,1.62 -3.6,3.6" />
          <path
             inkscape:connector-curvature="0"
             id="path8986"
             style="fill:none;stroke:#458b00;stroke-width:1.5;stroke-linecap:round;stroke-linejoin:round;stroke-miterlimit:10;stroke-dasharray:none;stroke-opacity:0.8"
             d="m 225.03,209.84 c 0,1.98 1.62,3.6 3.6,3.6 1.98,0 3.6,-1.62 3.6,-3.6 0,-1.98 -1.62,-3.6 -3.6,-3.6 -1.98,0 -3.6,1.62 -3.6,3.6" />
          <path
             inkscape:connector-curvature="0"
             id="path8988"
             style="fill:none;stroke:#458b00;stroke-width:1.5;stroke-linecap:round;stroke-linejoin:round;stroke-miterlimit:10;stroke-dasharray:none;stroke-opacity:0.8"
             d="m 200.5,195.32 c 0,1.98 1.62,3.6 3.6,3.6 1.98,0 3.6,-1.62 3.6,-3.6 0,-1.98 -1.62,-3.6 -3.6,-3.6 -1.98,0 -3.6,1.62 -3.6,3.6" />
          <path
             inkscape:connector-curvature="0"
             id="path8990"
             style="fill:none;stroke:#458b00;stroke-width:1.5;stroke-linecap:round;stroke-linejoin:round;stroke-miterlimit:10;stroke-dasharray:none;stroke-opacity:0.8"
             d="m 199.47,205.19 4.85,-8.4 h -9.7 l 4.85,8.4" />
          <path
             inkscape:connector-curvature="0"
             id="path8992"
             style="fill:none;stroke:#458b00;stroke-width:1.5;stroke-linecap:round;stroke-linejoin:round;stroke-miterlimit:10;stroke-dasharray:none;stroke-opacity:0.8"
             d="m 170.59,181.81 4.85,-8.4 h -9.7 l 4.85,8.4" />
          <path
             inkscape:connector-curvature="0"
             id="path8994"
             style="fill:none;stroke:#458b00;stroke-width:1.5;stroke-linecap:round;stroke-linejoin:round;stroke-miterlimit:10;stroke-dasharray:none;stroke-opacity:0.8"
             d="m 189.23,192.32 4.85,-8.4 h -9.7 l 4.85,8.4" />
          <path
             inkscape:connector-curvature="0"
             id="path8996"
             style="fill:#458b00;fill-opacity:0.8;fill-rule:nonzero;stroke:#458b00;stroke-width:1.5;stroke-linecap:round;stroke-linejoin:round;stroke-miterlimit:10;stroke-dasharray:none;stroke-opacity:0.8"
             d="m 149.61,158.58 c 0,1.98 1.62,3.6 3.6,3.6 1.98,0 3.6,-1.62 3.6,-3.6 0,-1.98 -1.62,-3.6 -3.6,-3.6 -1.98,0 -3.6,1.62 -3.6,3.6" />
          <path
             inkscape:connector-curvature="0"
             id="path8998"
             style="fill:#458b00;fill-opacity:0.8;fill-rule:nonzero;stroke:#458b00;stroke-width:1.5;stroke-linecap:round;stroke-linejoin:round;stroke-miterlimit:10;stroke-dasharray:none;stroke-opacity:0.8"
             d="m 202.31,203.72 c 0,1.98 1.62,3.6 3.6,3.6 1.98,0 3.6,-1.62 3.6,-3.6 0,-1.98 -1.62,-3.6 -3.6,-3.6 -1.98,0 -3.6,1.62 -3.6,3.6" />
          <path
             inkscape:connector-curvature="0"
             id="path9000"
             style="fill:#458b00;fill-opacity:0.8;fill-rule:nonzero;stroke:#458b00;stroke-width:1.5;stroke-linecap:round;stroke-linejoin:round;stroke-miterlimit:10;stroke-dasharray:none;stroke-opacity:0.8"
             d="m 171.3,176.08 c 0,1.98 1.62,3.6 3.6,3.6 1.98,0 3.6,-1.62 3.6,-3.6 0,-1.98 -1.62,-3.6 -3.6,-3.6 -1.98,0 -3.6,1.62 -3.6,3.6" />
          <path
             inkscape:connector-curvature="0"
             id="path9002"
             style="fill:#458b00;fill-opacity:0.8;fill-rule:nonzero;stroke:none"
             d="m 194.24,189.98 4.85,-8.4 h -9.7 z" />
          <path
             inkscape:connector-curvature="0"
             id="path9004"
             style="fill:#458b00;fill-opacity:0.8;fill-rule:nonzero;stroke:none"
             d="m 197.66,182.83 4.85,-8.39 h -9.7 z" />
          <path
             inkscape:connector-curvature="0"
             id="path9006"
             style="fill:#458b00;fill-opacity:0.8;fill-rule:nonzero;stroke:none"
             d="m 210.41,217.22 4.85,-8.4 h -9.69 z" />
          <path
             inkscape:connector-curvature="0"
             id="path9008"
             style="fill:none;stroke:#ee7621;stroke-width:1.5;stroke-linecap:round;stroke-linejoin:round;stroke-miterlimit:10;stroke-dasharray:none;stroke-opacity:0.8"
             d="m 165.52,100.6 c 0,1.98 1.62,3.6 3.6,3.6 1.98,0 3.6,-1.62 3.6,-3.6 0,-1.98 -1.62,-3.6 -3.6,-3.6 -1.98,0 -3.6,1.62 -3.6,3.6" />
          <path
             inkscape:connector-curvature="0"
             id="path9010"
             style="fill:none;stroke:#ee7621;stroke-width:1.5;stroke-linecap:round;stroke-linejoin:round;stroke-miterlimit:10;stroke-dasharray:none;stroke-opacity:0.8"
             d="m 167.71,129.74 c 0,1.98 1.62,3.6 3.6,3.6 1.98,0 3.6,-1.62 3.6,-3.6 0,-1.98 -1.62,-3.6 -3.6,-3.6 -1.98,0 -3.6,1.62 -3.6,3.6" />
          <path
             inkscape:connector-curvature="0"
             id="path9012"
             style="fill:none;stroke:#ee7621;stroke-width:1.5;stroke-linecap:round;stroke-linejoin:round;stroke-miterlimit:10;stroke-dasharray:none;stroke-opacity:0.8"
             d="m 163.2,118.2 c 0,1.98 1.62,3.6 3.6,3.6 1.98,0 3.6,-1.62 3.6,-3.6 0,-1.98 -1.62,-3.6 -3.6,-3.6 -1.98,0 -3.6,1.62 -3.6,3.6" />
          <path
             inkscape:connector-curvature="0"
             id="path9014"
             style="fill:none;stroke:#ee7621;stroke-width:1.5;stroke-linecap:round;stroke-linejoin:round;stroke-miterlimit:10;stroke-dasharray:none;stroke-opacity:0.8"
             d="m 188.12,164.46 4.85,-8.39 h -9.7 l 4.85,8.39" />
          <path
             inkscape:connector-curvature="0"
             id="path9016"
             style="fill:none;stroke:#ee7621;stroke-width:1.5;stroke-linecap:round;stroke-linejoin:round;stroke-miterlimit:10;stroke-dasharray:none;stroke-opacity:0.8"
             d="m 214.2,175.73 4.85,-8.39 h -9.7 l 4.85,8.39" />
          <path
             inkscape:connector-curvature="0"
             id="path9018"
             style="fill:none;stroke:#ee7621;stroke-width:1.5;stroke-linecap:round;stroke-linejoin:round;stroke-miterlimit:10;stroke-dasharray:none;stroke-opacity:0.8"
             d="m 193.54,152.74 4.85,-8.4 h -9.7 l 4.85,8.4" />
          <path
             inkscape:connector-curvature="0"
             id="path9020"
             style="fill:#ee7621;fill-opacity:0.8;fill-rule:nonzero;stroke:#ee7621;stroke-width:1.5;stroke-linecap:round;stroke-linejoin:round;stroke-miterlimit:10;stroke-dasharray:none;stroke-opacity:0.8"
             d="m 134.59,131.94 c 0,1.98 1.62,3.6 3.6,3.6 1.98,0 3.6,-1.62 3.6,-3.6 0,-1.98 -1.62,-3.6 -3.6,-3.6 -1.98,0 -3.6,1.62 -3.6,3.6" />
          <path
             inkscape:connector-curvature="0"
             id="path9022"
             style="fill:#ee7621;fill-opacity:0.8;fill-rule:nonzero;stroke:#ee7621;stroke-width:1.5;stroke-linecap:round;stroke-linejoin:round;stroke-miterlimit:10;stroke-dasharray:none;stroke-opacity:0.8"
             d="m 108.77,127.07 c 0,1.98 1.62,3.6 3.6,3.6 1.98,0 3.6,-1.62 3.6,-3.6 0,-1.98 -1.62,-3.6 -3.6,-3.6 -1.98,0 -3.6,1.62 -3.6,3.6" />
          <path
             inkscape:connector-curvature="0"
             id="path9024"
             style="fill:#ee7621;fill-opacity:0.8;fill-rule:nonzero;stroke:#ee7621;stroke-width:1.5;stroke-linecap:round;stroke-linejoin:round;stroke-miterlimit:10;stroke-dasharray:none;stroke-opacity:0.8"
             d="m 136.52,150.42 c 0,1.98 1.62,3.6 3.6,3.6 1.98,0 3.6,-1.62 3.6,-3.6 0,-1.98 -1.62,-3.6 -3.6,-3.6 -1.98,0 -3.6,1.62 -3.6,3.6" />
          <path
             inkscape:connector-curvature="0"
             id="path9026"
             style="fill:#ee7621;fill-opacity:0.8;fill-rule:nonzero;stroke:none"
             d="m 199.88,192.8 4.85,-8.4 h -9.69 z" />
          <path
             inkscape:connector-curvature="0"
             id="path9028"
             style="fill:#ee7621;fill-opacity:0.8;fill-rule:nonzero;stroke:none"
             d="m 131.75,100.26 4.85,-8.39 h -9.69 z" />
          <path
             inkscape:connector-curvature="0"
             id="path9030"
             style="fill:#ee7621;fill-opacity:0.8;fill-rule:nonzero;stroke:none"
             d="m 198.58,191.02 4.85,-8.4 h -9.7 z" />
          <path
             inkscape:connector-curvature="0"
             id="path9032"
             style="fill:none;stroke:#6495ed;stroke-width:1.5;stroke-linecap:round;stroke-linejoin:round;stroke-miterlimit:10;stroke-dasharray:none;stroke-opacity:0.8"
             d="m 237.95,229.27 c 0,1.98 1.62,3.6 3.6,3.6 1.98,0 3.6,-1.62 3.6,-3.6 0,-1.98 -1.62,-3.6 -3.6,-3.6 -1.98,0 -3.6,1.62 -3.6,3.6" />
          <path
             inkscape:connector-curvature="0"
             id="path9034"
             style="fill:none;stroke:#6495ed;stroke-width:1.5;stroke-linecap:round;stroke-linejoin:round;stroke-miterlimit:10;stroke-dasharray:none;stroke-opacity:0.8"
             d="m 226.71,223.1 c 0,1.98 1.62,3.6 3.6,3.6 1.98,0 3.6,-1.62 3.6,-3.6 0,-1.98 -1.62,-3.6 -3.6,-3.6 -1.98,0 -3.6,1.62 -3.6,3.6" />
          <path
             inkscape:connector-curvature="0"
             id="path9036"
             style="fill:none;stroke:#6495ed;stroke-width:1.5;stroke-linecap:round;stroke-linejoin:round;stroke-miterlimit:10;stroke-dasharray:none;stroke-opacity:0.8"
             d="m 228.97,231.75 c 0,1.98 1.62,3.6 3.6,3.6 1.98,0 3.6,-1.62 3.6,-3.6 0,-1.98 -1.62,-3.6 -3.6,-3.6 -1.98,0 -3.6,1.62 -3.6,3.6" />
          <path
             inkscape:connector-curvature="0"
             id="path9038"
             style="fill:none;stroke:#6495ed;stroke-width:1.5;stroke-linecap:round;stroke-linejoin:round;stroke-miterlimit:10;stroke-dasharray:none;stroke-opacity:0.8"
             d="m 240.72,242.82 4.84,-8.39 h -9.69 l 4.85,8.39" />
          <path
             inkscape:connector-curvature="0"
             id="path9040"
             style="fill:none;stroke:#6495ed;stroke-width:1.5;stroke-linecap:round;stroke-linejoin:round;stroke-miterlimit:10;stroke-dasharray:none;stroke-opacity:0.8"
             d="m 234.21,241.74 4.85,-8.4 h -9.7 l 4.85,8.4" />
          <path
             inkscape:connector-curvature="0"
             id="path9042"
             style="fill:none;stroke:#6495ed;stroke-width:1.5;stroke-linecap:round;stroke-linejoin:round;stroke-miterlimit:10;stroke-dasharray:none;stroke-opacity:0.8"
             d="m 246.44,246.52 4.85,-8.4 h -9.69 l 4.84,8.4" />
          <path
             inkscape:connector-curvature="0"
             id="path9044"
             style="fill:#6495ed;fill-opacity:0.8;fill-rule:nonzero;stroke:#6495ed;stroke-width:1.5;stroke-linecap:round;stroke-linejoin:round;stroke-miterlimit:10;stroke-dasharray:none;stroke-opacity:0.8"
             d="m 173.26,172.62 c 0,1.98 1.62,3.6 3.6,3.6 1.98,0 3.6,-1.62 3.6,-3.6 0,-1.98 -1.62,-3.6 -3.6,-3.6 -1.98,0 -3.6,1.62 -3.6,3.6" />
          <path
             inkscape:connector-curvature="0"
             id="path9046"
             style="fill:#6495ed;fill-opacity:0.8;fill-rule:nonzero;stroke:#6495ed;stroke-width:1.5;stroke-linecap:round;stroke-linejoin:round;stroke-miterlimit:10;stroke-dasharray:none;stroke-opacity:0.8"
             d="m 197.17,204.89 c 0,1.98 1.62,3.6 3.6,3.6 1.98,0 3.6,-1.62 3.6,-3.6 0,-1.98 -1.62,-3.6 -3.6,-3.6 -1.98,0 -3.6,1.62 -3.6,3.6" />
          <path
             inkscape:connector-curvature="0"
             id="path9048"
             style="fill:#6495ed;fill-opacity:0.8;fill-rule:nonzero;stroke:#6495ed;stroke-width:1.5;stroke-linecap:round;stroke-linejoin:round;stroke-miterlimit:10;stroke-dasharray:none;stroke-opacity:0.8"
             d="m 212.43,208.27 c 0,1.98 1.62,3.6 3.6,3.6 1.98,0 3.6,-1.62 3.6,-3.6 0,-1.98 -1.62,-3.6 -3.6,-3.6 -1.98,0 -3.6,1.62 -3.6,3.6" />
          <path
             inkscape:connector-curvature="0"
             id="path9050"
             style="fill:#6495ed;fill-opacity:0.8;fill-rule:nonzero;stroke:none"
             d="m 222.14,230.84 4.85,-8.39 h -9.7 z" />
          <path
             inkscape:connector-curvature="0"
             id="path9052"
             style="fill:#6495ed;fill-opacity:0.8;fill-rule:nonzero;stroke:none"
             d="m 204.36,204.99 4.85,-8.39 h -9.7 z" />
          <path
             inkscape:connector-curvature="0"
             id="path9054"
             style="fill:#6495ed;fill-opacity:0.8;fill-rule:nonzero;stroke:none"
             d="m 182.74,197.68 4.85,-8.4 h -9.69 z" />
          <path
             inkscape:connector-curvature="0"
             id="path9056"
             style="fill:none;stroke:#cdad00;stroke-width:1.5;stroke-linecap:round;stroke-linejoin:round;stroke-miterlimit:10;stroke-dasharray:none;stroke-opacity:0.8"
             d="m 178.95,153.54 c 0,1.98 1.62,3.6 3.6,3.6 1.98,0 3.6,-1.62 3.6,-3.6 0,-1.98 -1.62,-3.6 -3.6,-3.6 -1.98,0 -3.6,1.62 -3.6,3.6" />
          <path
             inkscape:connector-curvature="0"
             id="path9058"
             style="fill:none;stroke:#cdad00;stroke-width:1.5;stroke-linecap:round;stroke-linejoin:round;stroke-miterlimit:10;stroke-dasharray:none;stroke-opacity:0.8"
             d="m 132.67,94.72 c 0,1.98 1.62,3.6 3.6,3.6 1.98,0 3.6,-1.62 3.6,-3.6 0,-1.98 -1.62,-3.6 -3.6,-3.6 -1.98,0 -3.6,1.62 -3.6,3.6" />
          <path
             inkscape:connector-curvature="0"
             id="path9060"
             style="fill:none;stroke:#cdad00;stroke-width:1.5;stroke-linecap:round;stroke-linejoin:round;stroke-miterlimit:10;stroke-dasharray:none;stroke-opacity:0.8"
             d="m 126.09,68.48 c 0,1.98 1.62,3.6 3.6,3.6 1.98,0 3.6,-1.62 3.6,-3.6 0,-1.98 -1.62,-3.6 -3.6,-3.6 -1.98,0 -3.6,1.62 -3.6,3.6" />
          <path
             inkscape:connector-curvature="0"
             id="path9062"
             style="fill:none;stroke:#cdad00;stroke-width:1.5;stroke-linecap:round;stroke-linejoin:round;stroke-miterlimit:10;stroke-dasharray:none;stroke-opacity:0.8"
             d="m 113.94,96.78 4.85,-8.4 h -9.69 l 4.84,8.4" />
          <path
             inkscape:connector-curvature="0"
             id="path9064"
             style="fill:none;stroke:#cdad00;stroke-width:1.5;stroke-linecap:round;stroke-linejoin:round;stroke-miterlimit:10;stroke-dasharray:none;stroke-opacity:0.8"
             d="m 128.46,88.9 4.85,-8.4 h -9.7 l 4.85,8.4" />
          <path
             inkscape:connector-curvature="0"
             id="path9066"
             style="fill:none;stroke:#cdad00;stroke-width:1.5;stroke-linecap:round;stroke-linejoin:round;stroke-miterlimit:10;stroke-dasharray:none;stroke-opacity:0.8"
             d="m 131.98,108.8 4.85,-8.4 h -9.69 l 4.84,8.4" />
          <path
             inkscape:connector-curvature="0"
             id="path9068"
             style="fill:#cdad00;fill-opacity:0.8;fill-rule:nonzero;stroke:#cdad00;stroke-width:1.5;stroke-linecap:round;stroke-linejoin:round;stroke-miterlimit:10;stroke-dasharray:none;stroke-opacity:0.8"
             d="m 154.1,123.12 c 0,1.98 1.62,3.6 3.6,3.6 1.98,0 3.6,-1.62 3.6,-3.6 0,-1.98 -1.62,-3.6 -3.6,-3.6 -1.98,0 -3.6,1.62 -3.6,3.6" />
          <path
             inkscape:connector-curvature="0"
             id="path9070"
             style="fill:#cdad00;fill-opacity:0.8;fill-rule:nonzero;stroke:#cdad00;stroke-width:1.5;stroke-linecap:round;stroke-linejoin:round;stroke-miterlimit:10;stroke-dasharray:none;stroke-opacity:0.8"
             d="m 111.24,68.64 c 0,1.98 1.62,3.6 3.6,3.6 1.98,0 3.6,-1.62 3.6,-3.6 0,-1.98 -1.62,-3.6 -3.6,-3.6 -1.98,0 -3.6,1.62 -3.6,3.6" />
          <path
             inkscape:connector-curvature="0"
             id="path9072"
             style="fill:#cdad00;fill-opacity:0.8;fill-rule:nonzero;stroke:#cdad00;stroke-width:1.5;stroke-linecap:round;stroke-linejoin:round;stroke-miterlimit:10;stroke-dasharray:none;stroke-opacity:0.8"
             d="m 155.47,137.41 c 0,1.98 1.62,3.6 3.6,3.6 1.98,0 3.6,-1.62 3.6,-3.6 0,-1.98 -1.62,-3.6 -3.6,-3.6 -1.98,0 -3.6,1.62 -3.6,3.6" />
          <path
             inkscape:connector-curvature="0"
             id="path9074"
             style="fill:#cdad00;fill-opacity:0.8;fill-rule:nonzero;stroke:none"
             d="m 148.83,129.75 4.85,-8.39 h -9.7 z" />
          <path
             inkscape:connector-curvature="0"
             id="path9076"
             style="fill:#cdad00;fill-opacity:0.8;fill-rule:nonzero;stroke:none"
             d="m 117.64,86.88 4.85,-8.4 h -9.7 z" />
          <path
             inkscape:connector-curvature="0"
             id="path9078"
             style="fill:#cdad00;fill-opacity:0.8;fill-rule:nonzero;stroke:none"
             d="m 161.46,131.46 4.85,-8.4 h -9.69 z" />
          <path
             inkscape:connector-curvature="0"
             id="path9080"
             style="fill:none;stroke:#4d4d4d;stroke-width:1.5;stroke-linecap:round;stroke-linejoin:round;stroke-miterlimit:10;stroke-dasharray:4.5, 7.5;stroke-dashoffset:0;stroke-opacity:0.8"
             d="m 113.94,67.13 14.52,18.96 1.23,1.61 2.29,3 4.29,5.59 30.53,39.89 2.32,3.03 1.47,1.92 0.72,0.94 10.14,13.25 1.1,1.44 5.57,7.27 1.11,1.45 4.31,5.63 5.93,7.75 4.63,6.05 10.1,13.19 14.43,18.86 1.68,2.19 2.26,2.96 1.64,2.14 6.51,8.49 0.83,1.09 4.89,6.4" />
          <path
             inkscape:connector-curvature="0"
             id="path9082"
             style="fill:none;stroke:#4d4d4d;stroke-width:1.5;stroke-linecap:round;stroke-linejoin:round;stroke-miterlimit:10;stroke-dasharray:none;stroke-opacity:0.8"
             d="m 112.37,90.02 2.47,2.93 2.8,3.33 14.11,16.77 6.44,7.65 1.93,2.3 8.71,10.35 4.38,5.2 4.49,5.34 1.37,1.62 2.39,2.85 13.44,15.97 1.96,2.33 5.88,6.99 11.5,13.66 3.42,4.07 0.92,1.09 1.3,1.55 0.89,1.06 3.59,4.26 1.55,1.84 4.5,5.35 5.62,6.68 6.11,7.26" />
        </g>
      </g>
      <g
         id="g9084" />
      <g
         id="g9086">
        <path
           inkscape:connector-curvature="0"
           id="path9088"
           style="fill:none;stroke:#a6a6a6;stroke-width:1.12;stroke-linecap:round;stroke-linejoin:round;stroke-miterlimit:10;stroke-dasharray:none;stroke-opacity:1"
           d="M 54.63,56.41 H 258.99 V 252.99 H 54.63 Z" />
      </g>
      <g
         id="g9090" />
      <g
         id="g9092" />
      <g
         id="g9094" />
    </g>
  </g>
</svg>
