<?xml version="1.0" encoding="UTF-8" standalone="no"?>
<!-- Created with Inkscape (http://www.inkscape.org/) -->

<svg
   xmlns:dc="http://purl.org/dc/elements/1.1/"
   xmlns:cc="http://creativecommons.org/ns#"
   xmlns:rdf="http://www.w3.org/1999/02/22-rdf-syntax-ns#"
   xmlns:svg="http://www.w3.org/2000/svg"
   xmlns="http://www.w3.org/2000/svg"
   xmlns:sodipodi="http://sodipodi.sourceforge.net/DTD/sodipodi-0.dtd"
   xmlns:inkscape="http://www.inkscape.org/namespaces/inkscape"
   width="136.3932mm"
   height="83.453262mm"
   viewBox="0 0 136.3932 83.453262"
   version="1.1"
   id="svg8"
   inkscape:version="0.92.1 r15371"
   sodipodi:docname="YmHADm.svg">
  <defs
     id="defs2">
    <clipPath
       id="clipPath4579"
       clipPathUnits="userSpaceOnUse">
      <path
         inkscape:connector-curvature="0"
         id="path4577"
         d="M 59.47,45 H 351.99 V 204.99 H 59.47 Z" />
    </clipPath>
    <clipPath
       id="clipPath4691"
       clipPathUnits="userSpaceOnUse">
      <path
         inkscape:connector-curvature="0"
         id="path4689"
         d="M 59.47,45 H 351.99 V 204.99 H 59.47 Z" />
    </clipPath>
  </defs>
  <sodipodi:namedview
     id="base"
     pagecolor="#ffffff"
     bordercolor="#666666"
     borderopacity="1.0"
     inkscape:pageopacity="0.0"
     inkscape:pageshadow="2"
     inkscape:zoom="0.35"
     inkscape:cx="257.75095"
     inkscape:cy="157.70696"
     inkscape:document-units="mm"
     inkscape:current-layer="layer1"
     showgrid="false"
     fit-margin-top="5"
     fit-margin-left="5"
     fit-margin-right="5"
     fit-margin-bottom="5"
     inkscape:window-width="1916"
     inkscape:window-height="1036"
     inkscape:window-x="0"
     inkscape:window-y="20"
     inkscape:window-maximized="1" />
  <metadata
     id="metadata5">
    <rdf:RDF>
      <cc:Work
         rdf:about="">
        <dc:format>image/svg+xml</dc:format>
        <dc:type
           rdf:resource="http://purl.org/dc/dcmitype/StillImage" />
        <dc:title></dc:title>
      </cc:Work>
    </rdf:RDF>
  </metadata>
  <g
     inkscape:label="Layer 1"
     inkscape:groupmode="layer"
     id="layer1"
     transform="translate(87.851367,-107.10671)">
    <g
       transform="matrix(0.35277777,0,0,-0.35277777,-82.833023,186.62324)"
       inkscape:label="compYmHADm_171003"
       id="g4493">
      <g
         id="g4495" />
      <g
         id="g4497" />
      <g
         id="g4499">
        <text
           id="text4503"
           style="font-variant:normal;font-weight:normal;font-size:12px;font-family:Helvetica;-inkscape-font-specification:Helvetica;writing-mode:lr-tb;fill:#000000;fill-opacity:1;fill-rule:nonzero;stroke:none"
           transform="matrix(1,0,0,-1,153.92,3.23)">
          <tspan
             id="tspan4501"
             sodipodi:role="line"
             y="0"
             x="0 8.6639996 16.667999 25.332001 35.327999 38.664001">HADm:</tspan>
        </text>
        <text
           id="text4507"
           style="font-variant:normal;font-weight:normal;font-size:12px;font-family:Helvetica;-inkscape-font-specification:Helvetica;writing-mode:lr-tb;fill:#000000;fill-opacity:1;fill-rule:nonzero;stroke:none"
           transform="matrix(1,0,0,-1,195.92,3.23)">
          <tspan
             id="tspan4505"
             y="0"
             x="0">m</tspan>
        </text>
        <text
           id="text4511"
           style="font-variant:normal;font-weight:normal;font-size:8px;font-family:Helvetica;-inkscape-font-specification:Helvetica;writing-mode:lr-tb;fill:#000000;fill-opacity:1;fill-rule:nonzero;stroke:none"
           transform="matrix(1,0,0,-1,205.91,9.19)">
          <tspan
             id="tspan4509"
             y="0"
             x="0">2</tspan>
        </text>
        <text
           id="text4515"
           style="font-variant:normal;font-weight:normal;font-size:12px;font-family:Symbol;-inkscape-font-specification:Symbol;writing-mode:lr-tb;fill:#000000;fill-opacity:1;fill-rule:nonzero;stroke:none"
           transform="matrix(1,0,0,-1,212.58,3.23)">
          <tspan
             id="tspan4513"
             y="0"
             x="0">⋅</tspan>
        </text>
        <text
           id="text4519"
           style="font-variant:normal;font-weight:normal;font-size:12px;font-family:Symbol;-inkscape-font-specification:Symbol;writing-mode:lr-tb;fill:#000000;fill-opacity:1;fill-rule:nonzero;stroke:none"
           transform="matrix(1,0,0,-1,217.81,3.23)">
          <tspan
             id="tspan4517"
             y="0"
             x="0">°</tspan>
        </text>
        <text
           id="text4523"
           style="font-variant:normal;font-weight:normal;font-size:12px;font-family:Helvetica;-inkscape-font-specification:Helvetica;writing-mode:lr-tb;fill:#000000;fill-opacity:1;fill-rule:nonzero;stroke:none"
           transform="matrix(1,0,0,-1,222.61,3.23)">
          <tspan
             id="tspan4521"
             y="0"
             x="0">C</tspan>
        </text>
        <text
           id="text4527"
           style="font-variant:normal;font-weight:normal;font-size:12px;font-family:Symbol;-inkscape-font-specification:Symbol;writing-mode:lr-tb;fill:#000000;fill-opacity:1;fill-rule:nonzero;stroke:none"
           transform="matrix(1,0,0,-1,233.49,3.23)">
          <tspan
             id="tspan4525"
             y="0"
             x="0">⋅</tspan>
        </text>
        <text
           id="text4531"
           style="font-variant:normal;font-weight:normal;font-size:12px;font-family:Helvetica;-inkscape-font-specification:Helvetica;writing-mode:lr-tb;fill:#000000;fill-opacity:1;fill-rule:nonzero;stroke:none"
           transform="matrix(1,0,0,-1,238.71,3.23)">
          <tspan
             id="tspan4529"
             y="0"
             x="0">m</tspan>
        </text>
        <text
           id="text4535"
           style="font-variant:normal;font-weight:normal;font-size:8px;font-family:Symbol;-inkscape-font-specification:Symbol;writing-mode:lr-tb;fill:#000000;fill-opacity:1;fill-rule:nonzero;stroke:none"
           transform="matrix(1,0,0,-1,248.71,9.19)">
          <tspan
             id="tspan4533"
             y="0"
             x="0">−</tspan>
        </text>
        <text
           id="text4539"
           style="font-variant:normal;font-weight:normal;font-size:8px;font-family:Helvetica;-inkscape-font-specification:Helvetica;writing-mode:lr-tb;fill:#000000;fill-opacity:1;fill-rule:nonzero;stroke:none"
           transform="matrix(1,0,0,-1,253.1,9.19)">
          <tspan
             id="tspan4537"
             y="0"
             x="0">2</tspan>
        </text>
      </g>
      <g
         id="g4541">
        <text
           id="text4545"
           style="font-variant:normal;font-weight:normal;font-size:12px;font-family:Helvetica;-inkscape-font-specification:Helvetica;writing-mode:lr-tb;fill:#000000;fill-opacity:1;fill-rule:nonzero;stroke:none"
           transform="matrix(0,1,1,0,11.59,64.24)">
          <tspan
             id="tspan4543"
             sodipodi:role="line"
             y="0"
             x="0 9.3360004 13.212 19.884001 22.548 29.219999 32.556 38.556 41.220001 47.891998 50.556 57.228001 60.563999 63.900002 71.903999 81.900002 85.236">Grain yield, Ym:</tspan>
        </text>
        <text
           id="text4549"
           style="font-variant:normal;font-weight:normal;font-size:12px;font-family:Helvetica;-inkscape-font-specification:Helvetica;writing-mode:lr-tb;fill:#000000;fill-opacity:1;fill-rule:nonzero;stroke:none"
           transform="matrix(0,1,1,0,11.59,152.81)">
          <tspan
             id="tspan4547"
             y="0"
             x="0">g</tspan>
        </text>
        <text
           id="text4553"
           style="font-variant:normal;font-weight:normal;font-size:12px;font-family:Symbol;-inkscape-font-specification:Symbol;writing-mode:lr-tb;fill:#000000;fill-opacity:1;fill-rule:nonzero;stroke:none"
           transform="matrix(0,1,1,0,11.59,161.7)">
          <tspan
             id="tspan4551"
             y="0"
             x="0">⋅</tspan>
        </text>
        <text
           id="text4557"
           style="font-variant:normal;font-weight:normal;font-size:12px;font-family:Helvetica;-inkscape-font-specification:Helvetica;writing-mode:lr-tb;fill:#000000;fill-opacity:1;fill-rule:nonzero;stroke:none"
           transform="matrix(0,1,1,0,11.59,166.92)">
          <tspan
             id="tspan4555"
             y="0"
             x="0">m</tspan>
        </text>
        <text
           id="text4561"
           style="font-variant:normal;font-weight:normal;font-size:8px;font-family:Symbol;-inkscape-font-specification:Symbol;writing-mode:lr-tb;fill:#000000;fill-opacity:1;fill-rule:nonzero;stroke:none"
           transform="matrix(0,1,1,0,5.62,176.92)">
          <tspan
             id="tspan4559"
             y="0"
             x="0">−</tspan>
        </text>
        <text
           id="text4565"
           style="font-variant:normal;font-weight:normal;font-size:8px;font-family:Helvetica;-inkscape-font-specification:Helvetica;writing-mode:lr-tb;fill:#000000;fill-opacity:1;fill-rule:nonzero;stroke:none"
           transform="matrix(0,1,1,0,5.62,181.31)">
          <tspan
             id="tspan4563"
             y="0"
             x="0">2</tspan>
        </text>
      </g>
      <g
         id="g4567" />
      <g
         id="g4569" />
      <g
         id="g4571" />
      <g
         id="g4573">
        <g
           clip-path="url(#clipPath4579)"
           id="g4575">
          <path
             inkscape:connector-curvature="0"
             id="path4581"
             style="fill:#ffffff;fill-opacity:1;fill-rule:nonzero;stroke:none"
             d="M 59.47,45 H 351.99 V 204.99 H 59.47 Z" />
        </g>
      </g>
      <g
         id="g4583" />
      <g
         id="g4585">
        <path
           inkscape:connector-curvature="0"
           id="path4587"
           style="fill:none;stroke:#a6a6a6;stroke-width:1.12;stroke-linecap:round;stroke-linejoin:round;stroke-miterlimit:10;stroke-dasharray:none;stroke-opacity:1"
           d="m 77.44,204.99 v 5.67" />
        <path
           inkscape:connector-curvature="0"
           id="path4589"
           style="fill:none;stroke:#a6a6a6;stroke-width:1.12;stroke-linecap:round;stroke-linejoin:round;stroke-miterlimit:10;stroke-dasharray:none;stroke-opacity:1"
           d="m 139.82,204.99 v 5.67" />
        <path
           inkscape:connector-curvature="0"
           id="path4591"
           style="fill:none;stroke:#a6a6a6;stroke-width:1.12;stroke-linecap:round;stroke-linejoin:round;stroke-miterlimit:10;stroke-dasharray:none;stroke-opacity:1"
           d="m 202.2,204.99 v 5.67" />
        <path
           inkscape:connector-curvature="0"
           id="path4593"
           style="fill:none;stroke:#a6a6a6;stroke-width:1.12;stroke-linecap:round;stroke-linejoin:round;stroke-miterlimit:10;stroke-dasharray:none;stroke-opacity:1"
           d="m 264.59,204.99 v 5.67" />
        <path
           inkscape:connector-curvature="0"
           id="path4595"
           style="fill:none;stroke:#a6a6a6;stroke-width:1.12;stroke-linecap:round;stroke-linejoin:round;stroke-miterlimit:10;stroke-dasharray:none;stroke-opacity:1"
           d="m 326.97,204.99 v 5.67" />
      </g>
      <g
         id="g4597" />
      <g
         id="g4599">
        <path
           inkscape:connector-curvature="0"
           id="path4601"
           style="fill:none;stroke:#a6a6a6;stroke-width:1.12;stroke-linecap:round;stroke-linejoin:round;stroke-miterlimit:10;stroke-dasharray:none;stroke-opacity:1"
           d="M 59.47,54.83 H 53.8" />
        <path
           inkscape:connector-curvature="0"
           id="path4603"
           style="fill:none;stroke:#a6a6a6;stroke-width:1.12;stroke-linecap:round;stroke-linejoin:round;stroke-miterlimit:10;stroke-dasharray:none;stroke-opacity:1"
           d="M 59.47,80.52 H 53.8" />
        <path
           inkscape:connector-curvature="0"
           id="path4605"
           style="fill:none;stroke:#a6a6a6;stroke-width:1.12;stroke-linecap:round;stroke-linejoin:round;stroke-miterlimit:10;stroke-dasharray:none;stroke-opacity:1"
           d="M 59.47,106.21 H 53.8" />
        <path
           inkscape:connector-curvature="0"
           id="path4607"
           style="fill:none;stroke:#a6a6a6;stroke-width:1.12;stroke-linecap:round;stroke-linejoin:round;stroke-miterlimit:10;stroke-dasharray:none;stroke-opacity:1"
           d="M 59.47,131.91 H 53.8" />
        <path
           inkscape:connector-curvature="0"
           id="path4609"
           style="fill:none;stroke:#a6a6a6;stroke-width:1.12;stroke-linecap:round;stroke-linejoin:round;stroke-miterlimit:10;stroke-dasharray:none;stroke-opacity:1"
           d="M 59.47,157.6 H 53.8" />
        <path
           inkscape:connector-curvature="0"
           id="path4611"
           style="fill:none;stroke:#a6a6a6;stroke-width:1.12;stroke-linecap:round;stroke-linejoin:round;stroke-miterlimit:10;stroke-dasharray:none;stroke-opacity:1"
           d="M 59.47,183.29 H 53.8" />
        <text
           id="text4615"
           style="font-variant:normal;font-weight:normal;font-size:10px;font-family:Helvetica;-inkscape-font-specification:Helvetica;writing-mode:lr-tb;fill:#000000;fill-opacity:1;fill-rule:nonzero;stroke:none"
           transform="matrix(1,0,0,-1,42.58,51.24)">
          <tspan
             id="tspan4613"
             y="0"
             x="0">0</tspan>
        </text>
        <text
           id="text4619"
           style="font-variant:normal;font-weight:normal;font-size:10px;font-family:Helvetica;-inkscape-font-specification:Helvetica;writing-mode:lr-tb;fill:#000000;fill-opacity:1;fill-rule:nonzero;stroke:none"
           transform="matrix(1,0,0,-1,31.46,76.93)">
          <tspan
             id="tspan4617"
             sodipodi:role="line"
             y="0"
             x="0 5.5599999 11.12">200</tspan>
        </text>
        <text
           id="text4623"
           style="font-variant:normal;font-weight:normal;font-size:10px;font-family:Helvetica;-inkscape-font-specification:Helvetica;writing-mode:lr-tb;fill:#000000;fill-opacity:1;fill-rule:nonzero;stroke:none"
           transform="matrix(1,0,0,-1,31.46,102.62)">
          <tspan
             id="tspan4621"
             sodipodi:role="line"
             y="0"
             x="0 5.5599999 11.12">400</tspan>
        </text>
        <text
           id="text4627"
           style="font-variant:normal;font-weight:normal;font-size:10px;font-family:Helvetica;-inkscape-font-specification:Helvetica;writing-mode:lr-tb;fill:#000000;fill-opacity:1;fill-rule:nonzero;stroke:none"
           transform="matrix(1,0,0,-1,31.46,128.32)">
          <tspan
             id="tspan4625"
             sodipodi:role="line"
             y="0"
             x="0 5.5599999 11.12">600</tspan>
        </text>
        <text
           id="text4631"
           style="font-variant:normal;font-weight:normal;font-size:10px;font-family:Helvetica;-inkscape-font-specification:Helvetica;writing-mode:lr-tb;fill:#000000;fill-opacity:1;fill-rule:nonzero;stroke:none"
           transform="matrix(1,0,0,-1,31.46,154.01)">
          <tspan
             id="tspan4629"
             sodipodi:role="line"
             y="0"
             x="0 5.5599999 11.12">800</tspan>
        </text>
        <text
           id="text4635"
           style="font-variant:normal;font-weight:normal;font-size:10px;font-family:Helvetica;-inkscape-font-specification:Helvetica;writing-mode:lr-tb;fill:#000000;fill-opacity:1;fill-rule:nonzero;stroke:none"
           transform="matrix(1,0,0,-1,25.9,179.7)">
          <tspan
             id="tspan4633"
             sodipodi:role="line"
             y="0"
             x="0 5.5599999 11.12 16.68">1000</tspan>
        </text>
      </g>
      <g
         id="g4637" />
      <g
         id="g4639">
        <path
           inkscape:connector-curvature="0"
           id="path4641"
           style="fill:none;stroke:#a6a6a6;stroke-width:1.12;stroke-linecap:round;stroke-linejoin:round;stroke-miterlimit:10;stroke-dasharray:none;stroke-opacity:1"
           d="M 77.44,45 V 39.33" />
        <path
           inkscape:connector-curvature="0"
           id="path4643"
           style="fill:none;stroke:#a6a6a6;stroke-width:1.12;stroke-linecap:round;stroke-linejoin:round;stroke-miterlimit:10;stroke-dasharray:none;stroke-opacity:1"
           d="M 139.82,45 V 39.33" />
        <path
           inkscape:connector-curvature="0"
           id="path4645"
           style="fill:none;stroke:#a6a6a6;stroke-width:1.12;stroke-linecap:round;stroke-linejoin:round;stroke-miterlimit:10;stroke-dasharray:none;stroke-opacity:1"
           d="M 202.2,45 V 39.33" />
        <path
           inkscape:connector-curvature="0"
           id="path4647"
           style="fill:none;stroke:#a6a6a6;stroke-width:1.12;stroke-linecap:round;stroke-linejoin:round;stroke-miterlimit:10;stroke-dasharray:none;stroke-opacity:1"
           d="M 264.59,45 V 39.33" />
        <path
           inkscape:connector-curvature="0"
           id="path4649"
           style="fill:none;stroke:#a6a6a6;stroke-width:1.12;stroke-linecap:round;stroke-linejoin:round;stroke-miterlimit:10;stroke-dasharray:none;stroke-opacity:1"
           d="M 326.97,45 V 39.33" />
        <text
           id="text4653"
           style="font-variant:normal;font-weight:normal;font-size:10px;font-family:Helvetica;-inkscape-font-specification:Helvetica;writing-mode:lr-tb;fill:#000000;fill-opacity:1;fill-rule:nonzero;stroke:none"
           transform="matrix(1,0,0,-1,74.66,26.48)">
          <tspan
             id="tspan4651"
             y="0"
             x="0">0</tspan>
        </text>
        <text
           id="text4657"
           style="font-variant:normal;font-weight:normal;font-size:10px;font-family:Helvetica;-inkscape-font-specification:Helvetica;writing-mode:lr-tb;fill:#000000;fill-opacity:1;fill-rule:nonzero;stroke:none"
           transform="matrix(1,0,0,-1,128.7,26.48)">
          <tspan
             id="tspan4655"
             sodipodi:role="line"
             y="0"
             x="0 5.5599999 11.12 16.68">1000</tspan>
        </text>
        <text
           id="text4661"
           style="font-variant:normal;font-weight:normal;font-size:10px;font-family:Helvetica;-inkscape-font-specification:Helvetica;writing-mode:lr-tb;fill:#000000;fill-opacity:1;fill-rule:nonzero;stroke:none"
           transform="matrix(1,0,0,-1,191.08,26.48)">
          <tspan
             id="tspan4659"
             sodipodi:role="line"
             y="0"
             x="0 5.5599999 11.12 16.68">2000</tspan>
        </text>
        <text
           id="text4665"
           style="font-variant:normal;font-weight:normal;font-size:10px;font-family:Helvetica;-inkscape-font-specification:Helvetica;writing-mode:lr-tb;fill:#000000;fill-opacity:1;fill-rule:nonzero;stroke:none"
           transform="matrix(1,0,0,-1,253.47,26.48)">
          <tspan
             id="tspan4663"
             sodipodi:role="line"
             y="0"
             x="0 5.5599999 11.12 16.68">3000</tspan>
        </text>
        <text
           id="text4669"
           style="font-variant:normal;font-weight:normal;font-size:10px;font-family:Helvetica;-inkscape-font-specification:Helvetica;writing-mode:lr-tb;fill:#000000;fill-opacity:1;fill-rule:nonzero;stroke:none"
           transform="matrix(1,0,0,-1,315.85,26.48)">
          <tspan
             id="tspan4667"
             sodipodi:role="line"
             y="0"
             x="0 5.5599999 11.12 16.68">4000</tspan>
        </text>
        <path
           inkscape:connector-curvature="0"
           id="path4671"
           style="fill:none;stroke:#a6a6a6;stroke-width:1.12;stroke-linecap:round;stroke-linejoin:round;stroke-miterlimit:10;stroke-dasharray:none;stroke-opacity:1"
           d="m 351.99,54.83 h 5.67" />
        <path
           inkscape:connector-curvature="0"
           id="path4673"
           style="fill:none;stroke:#a6a6a6;stroke-width:1.12;stroke-linecap:round;stroke-linejoin:round;stroke-miterlimit:10;stroke-dasharray:none;stroke-opacity:1"
           d="m 351.99,80.52 h 5.67" />
        <path
           inkscape:connector-curvature="0"
           id="path4675"
           style="fill:none;stroke:#a6a6a6;stroke-width:1.12;stroke-linecap:round;stroke-linejoin:round;stroke-miterlimit:10;stroke-dasharray:none;stroke-opacity:1"
           d="m 351.99,106.21 h 5.67" />
        <path
           inkscape:connector-curvature="0"
           id="path4677"
           style="fill:none;stroke:#a6a6a6;stroke-width:1.12;stroke-linecap:round;stroke-linejoin:round;stroke-miterlimit:10;stroke-dasharray:none;stroke-opacity:1"
           d="m 351.99,131.91 h 5.67" />
        <path
           inkscape:connector-curvature="0"
           id="path4679"
           style="fill:none;stroke:#a6a6a6;stroke-width:1.12;stroke-linecap:round;stroke-linejoin:round;stroke-miterlimit:10;stroke-dasharray:none;stroke-opacity:1"
           d="m 351.99,157.6 h 5.67" />
        <path
           inkscape:connector-curvature="0"
           id="path4681"
           style="fill:none;stroke:#a6a6a6;stroke-width:1.12;stroke-linecap:round;stroke-linejoin:round;stroke-miterlimit:10;stroke-dasharray:none;stroke-opacity:1"
           d="m 351.99,183.29 h 5.67" />
      </g>
      <g
         id="g4683" />
      <g
         id="g4685">
        <g
           clip-path="url(#clipPath4691)"
           id="g4687">
          <path
             inkscape:connector-curvature="0"
             id="path4693"
             style="fill:none;stroke:#e5e5e5;stroke-width:0.75;stroke-linecap:round;stroke-linejoin:round;stroke-miterlimit:10;stroke-dasharray:none;stroke-opacity:1"
             d="M 59.47,54.83 H 351.99" />
          <path
             inkscape:connector-curvature="0"
             id="path4695"
             style="fill:none;stroke:#e5e5e5;stroke-width:0.75;stroke-linecap:round;stroke-linejoin:round;stroke-miterlimit:10;stroke-dasharray:none;stroke-opacity:1"
             d="M 59.47,80.52 H 351.99" />
          <path
             inkscape:connector-curvature="0"
             id="path4697"
             style="fill:none;stroke:#e5e5e5;stroke-width:0.75;stroke-linecap:round;stroke-linejoin:round;stroke-miterlimit:10;stroke-dasharray:none;stroke-opacity:1"
             d="M 59.47,106.21 H 351.99" />
          <path
             inkscape:connector-curvature="0"
             id="path4699"
             style="fill:none;stroke:#e5e5e5;stroke-width:0.75;stroke-linecap:round;stroke-linejoin:round;stroke-miterlimit:10;stroke-dasharray:none;stroke-opacity:1"
             d="M 59.47,131.91 H 351.99" />
          <path
             inkscape:connector-curvature="0"
             id="path4701"
             style="fill:none;stroke:#e5e5e5;stroke-width:0.75;stroke-linecap:round;stroke-linejoin:round;stroke-miterlimit:10;stroke-dasharray:none;stroke-opacity:1"
             d="M 59.47,157.6 H 351.99" />
          <path
             inkscape:connector-curvature="0"
             id="path4703"
             style="fill:none;stroke:#e5e5e5;stroke-width:0.75;stroke-linecap:round;stroke-linejoin:round;stroke-miterlimit:10;stroke-dasharray:none;stroke-opacity:1"
             d="M 59.47,183.29 H 351.99" />
          <path
             inkscape:connector-curvature="0"
             id="path4705"
             style="fill:none;stroke:#e5e5e5;stroke-width:0.75;stroke-linecap:round;stroke-linejoin:round;stroke-miterlimit:10;stroke-dasharray:none;stroke-opacity:1"
             d="M 77.44,45 V 204.99" />
          <path
             inkscape:connector-curvature="0"
             id="path4707"
             style="fill:none;stroke:#e5e5e5;stroke-width:0.75;stroke-linecap:round;stroke-linejoin:round;stroke-miterlimit:10;stroke-dasharray:none;stroke-opacity:1"
             d="M 139.82,45 V 204.99" />
          <path
             inkscape:connector-curvature="0"
             id="path4709"
             style="fill:none;stroke:#e5e5e5;stroke-width:0.75;stroke-linecap:round;stroke-linejoin:round;stroke-miterlimit:10;stroke-dasharray:none;stroke-opacity:1"
             d="M 202.2,45 V 204.99" />
          <path
             inkscape:connector-curvature="0"
             id="path4711"
             style="fill:none;stroke:#e5e5e5;stroke-width:0.75;stroke-linecap:round;stroke-linejoin:round;stroke-miterlimit:10;stroke-dasharray:none;stroke-opacity:1"
             d="M 264.59,45 V 204.99" />
          <path
             inkscape:connector-curvature="0"
             id="path4713"
             style="fill:none;stroke:#e5e5e5;stroke-width:0.75;stroke-linecap:round;stroke-linejoin:round;stroke-miterlimit:10;stroke-dasharray:none;stroke-opacity:1"
             d="M 326.97,45 V 204.99" />
          <path
             inkscape:connector-curvature="0"
             id="path4715"
             style="fill:none;stroke:#737373;stroke-width:0.75;stroke-linecap:round;stroke-linejoin:round;stroke-miterlimit:10;stroke-dasharray:none;stroke-opacity:1"
             d="M 59.47,54.83 H 351.99" />
          <path
             inkscape:connector-curvature="0"
             id="path4717"
             style="fill:none;stroke:#737373;stroke-width:0.75;stroke-linecap:round;stroke-linejoin:round;stroke-miterlimit:10;stroke-dasharray:none;stroke-opacity:1"
             d="M 77.44,45 V 204.99" />
          <path
             inkscape:connector-curvature="0"
             id="path4719"
             style="fill:none;stroke:#ee0000;stroke-width:1.5;stroke-linecap:round;stroke-linejoin:round;stroke-miterlimit:10;stroke-dasharray:none;stroke-opacity:1"
             d="m 114.87,127.51 0.62,0.82 0.62,0.81 0.63,0.8 0.62,0.78 0.63,0.78 0.62,0.77 0.62,0.76 0.63,0.75 0.62,0.74 0.62,0.73 0.63,0.72 0.62,0.72 0.63,0.7 0.62,0.7 0.62,0.69 0.63,0.68 0.62,0.67 0.63,0.66 0.62,0.66 0.62,0.65 0.63,0.64 0.62,0.63 0.62,0.62 0.63,0.62 0.62,0.61 0.63,0.6 0.62,0.6 0.62,0.58 0.63,0.58 0.62,0.58 0.63,0.56 0.62,0.56 0.62,0.55 0.63,0.55 0.62,0.54 0.62,0.53 0.63,0.53 0.62,0.52 0.63,0.51 0.62,0.51 0.62,0.5 0.63,0.5 0.62,0.49 0.63,0.48 0.62,0.48 0.62,0.47 0.63,0.46 0.62,0.46 0.62,0.46 0.63,0.45 0.62,0.44 0.63,0.44 0.62,0.43 0.62,0.43 0.63,0.42 0.62,0.42 0.63,0.41 0.62,0.41 0.62,0.4 0.63,0.4 0.62,0.39 0.62,0.39 0.63,0.38 0.62,0.38 0.63,0.38 0.62,0.37 0.62,0.36 0.63,0.36 0.62,0.36 0.63,0.35 0.62,0.35 0.62,0.34 0.63,0.34 0.62,0.34 0.62,0.33 0.63,0.32 0.62,0.33 0.63,0.32 0.62,0.31 0.62,0.31 0.63,0.31 0.62,0.3 0.63,0.3 0.62,0.3 0.62,0.29 0.63,0.29 0.62,0.29 0.62,0.28 0.63,0.28 0.62,0.28 0.63,0.27 0.62,0.27 0.62,0.26 0.63,0.27 0.62,0.26 0.63,0.25 0.62,0.26 0.62,0.25 0.63,0.24 0.62,0.25 0.62,0.24 0.63,0.24 0.62,0.23 0.63,0.23 0.62,0.23 0.62,0.23 0.63,0.22 0.62,0.22 0.63,0.22 0.62,0.22 0.62,0.21 0.63,0.21 0.62,0.21 0.62,0.21 0.63,0.2 0.62,0.2 0.63,0.2 0.62,0.2 0.62,0.19 0.63,0.19 0.62,0.19 0.63,0.19 0.62,0.18 0.62,0.18 0.63,0.18 0.62,0.18 0.62,0.18 0.63,0.17 0.62,0.17 0.63,0.17 0.62,0.17 0.62,0.16 0.63,0.16 0.62,0.17 0.63,0.16 0.62,0.15 0.62,0.16 0.63,0.15 0.62,0.15 0.62,0.15 0.63,0.15 0.62,0.15 0.63,0.14 0.62,0.14 0.62,0.14 0.63,0.14 0.62,0.14 0.63,0.14 0.62,0.13 0.62,0.13 0.63,0.13 0.62,0.13 0.62,0.13 0.63,0.13 0.62,0.12 0.63,0.13 0.62,0.12 0.62,0.12 0.63,0.12 0.62,0.11 0.63,0.12 0.62,0.11 0.62,0.12 0.63,0.11 0.62,0.11 0.62,0.11 0.63,0.11 0.62,0.1 0.63,0.11 0.62,0.1 0.62,0.11 0.63,0.1 0.62,0.1 0.62,0.1 0.63,0.09 0.62,0.1 0.63,0.1 0.62,0.09 0.62,0.09 0.63,0.09 0.62,0.1 0.63,0.08 0.62,0.09 0.62,0.09 0.63,0.09 0.62,0.08 0.62,0.09 0.63,0.08 0.62,0.08 0.63,0.08 0.62,0.08 0.62,0.08 0.63,0.08 0.62,0.08 0.63,0.08 0.62,0.07 0.62,0.08 0.63,0.07 0.62,0.07 0.62,0.08 0.63,0.07 0.62,0.07 0.63,0.07 0.62,0.07 0.62,0.06 0.63,0.07 0.62,0.07 0.63,0.06 0.62,0.07 0.62,0.06 0.63,0.06 0.62,0.07 0.62,0.06 0.63,0.06 0.62,0.06 0.63,0.06 0.62,0.05 0.62,0.06 0.63,0.06 0.62,0.06 0.63,0.05 0.62,0.06 0.62,0.05 0.63,0.06 0.62,0.05 0.62,0.05 0.63,0.05 0.62,0.05 0.63,0.05 0.62,0.05 0.62,0.05 0.63,0.05 0.62,0.05 0.63,0.05 0.62,0.05 0.62,0.04 0.63,0.05 0.62,0.04 0.62,0.05 0.63,0.04 0.62,0.05 0.63,0.04 0.62,0.04 0.62,0.04 0.63,0.04 0.62,0.05 0.63,0.04 0.62,0.04 0.62,0.04 0.63,0.04 0.62,0.03 0.62,0.04 0.63,0.04 0.62,0.04 0.63,0.03 0.62,0.04 0.62,0.04 0.63,0.03 0.62,0.04 0.63,0.03 0.62,0.04 0.62,0.03 0.63,0.03 0.62,0.04 0.62,0.03 0.63,0.03 0.62,0.03 0.63,0.03 0.62,0.03 0.62,0.04 0.63,0.03 0.62,0.03 0.63,0.03 0.62,0.02 0.62,0.03 0.63,0.03 0.62,0.03 0.62,0.03 0.63,0.03 0.62,0.02 0.63,0.03 0.62,0.03 0.62,0.02 0.63,0.03 0.62,0.02 0.63,0.03 0.62,0.02 0.62,0.03 0.63,0.02 0.62,0.03" />
          <path
             inkscape:connector-curvature="0"
             id="path4721"
             style="fill:none;stroke:#ee0000;stroke-width:1.12;stroke-linecap:round;stroke-linejoin:round;stroke-miterlimit:10;stroke-dasharray:3.38, 5.62;stroke-dashoffset:0;stroke-opacity:0.6"
             d="m 77.44,54.83 0.62,1.69 0.62,1.68 0.63,1.66 0.62,1.64 0.62,1.61 0.63,1.6 0.62,1.58 0.63,1.56 0.62,1.54 0.62,1.52 0.63,1.5 0.62,1.49 0.63,1.47 0.62,1.44 0.62,1.44 0.63,1.41 0.62,1.4 0.62,1.38 0.63,1.36 0.62,1.35 0.63,1.33 0.62,1.31 0.62,1.3 0.63,1.28 0.62,1.27 0.63,1.25 0.62,1.24 0.62,1.22 0.63,1.21 0.62,1.19 0.62,1.18 0.63,1.16 0.62,1.15 0.63,1.13 0.62,1.13 0.62,1.1 0.63,1.1 0.62,1.08 0.63,1.07 0.62,1.05 0.62,1.05 0.63,1.03 0.62,1.01 0.62,1.01 0.63,0.99 0.62,0.98 0.63,0.97 0.62,0.96 0.62,0.94 0.63,0.94 0.62,0.92 0.63,0.91 0.62,0.9 0.62,0.89 0.63,0.88 0.62,0.87" />
          <path
             inkscape:connector-curvature="0"
             id="path4723"
             style="fill:none;stroke:#ee0000;stroke-width:1.35000002;stroke-linecap:round;stroke-linejoin:round;stroke-miterlimit:10;stroke-dasharray:none;stroke-opacity:0.6"
             d="m 295.78,192.9 0.62,0.02 0.63,0.02 0.62,0.03 0.63,0.02 0.62,0.02 0.62,0.02 0.63,0.03 0.62,0.02 0.63,0.02 0.62,0.02 0.62,0.02 0.63,0.02 0.62,0.02 0.62,0.02 0.63,0.02 0.62,0.02 0.63,0.02 0.62,0.02 0.62,0.02 0.63,0.02 0.62,0.02 0.63,0.02 0.62,0.02 0.62,0.01 0.63,0.02 0.62,0.02 0.62,0.02 0.63,0.01 0.62,0.02 0.63,0.02" />
          <path
             inkscape:connector-curvature="0"
             id="path4725"
             style="fill:none;stroke:#ee0000;stroke-width:1.12;stroke-linecap:round;stroke-linejoin:round;stroke-miterlimit:10;stroke-dasharray:3.38, 5.62;stroke-dashoffset:0;stroke-opacity:0.4"
             d="m 318.24,193.59 0.62,0.02 0.63,0.01 0.62,0.02 0.62,0.01 0.63,0.02 0.62,0.01 0.63,0.02 0.62,0.01 0.62,0.01 0.63,0.02 0.62,0.01 0.63,0.01 0.62,0.02 0.62,0.01 0.63,0.01 0.62,0.02 0.62,0.01 0.63,0.01 0.62,0.01 0.63,0.02 0.62,0.01 0.62,0.01 0.63,0.01 0.62,0.01 0.63,0.01 0.62,0.01 0.62,0.02 0.63,0.01 0.62,0.01 0.62,0.01 0.63,0.01 0.62,0.01 0.63,0.01 0.62,0.01 0.62,0.01 0.63,0.01 0.62,0.01 0.63,0.01 0.62,0.01 0.62,0.01 0.63,0.01 0.62,0.01 0.62,0.01 0.63,0.01 h 0.62 l 0.63,0.01 0.62,0.01 0.62,0.01 0.63,0.01 0.62,0.01 0.63,0.01 h 0.62 l 0.62,0.01 0.63,0.01 0.62,0.01 0.62,0.01 h 0.63 l 0.62,0.01 0.63,0.01 0.62,0.01 h 0.62 l 0.63,0.01 0.62,0.01 0.63,0.01" />
          <path
             inkscape:connector-curvature="0"
             id="path4727"
             style="fill:none;stroke:#ee9a00;stroke-width:1.88;stroke-linecap:round;stroke-linejoin:round;stroke-miterlimit:10;stroke-dasharray:none;stroke-opacity:0.69800002"
             d="m 182.54,138.14 c 0,1.82 1.48,3.3 3.3,3.3 1.81,0 3.3,-1.48 3.3,-3.3 0,-1.81 -1.49,-3.3 -3.3,-3.3 -1.82,0 -3.3,1.49 -3.3,3.3" />
          <path
             inkscape:connector-curvature="0"
             id="path4729"
             style="fill:none;stroke:#ee9a00;stroke-width:1.88;stroke-linecap:round;stroke-linejoin:round;stroke-miterlimit:10;stroke-dasharray:none;stroke-opacity:0.69800002"
             d="m 167.94,124.15 c 0,1.81 1.48,3.3 3.3,3.3 1.81,0 3.3,-1.49 3.3,-3.3 0,-1.82 -1.49,-3.3 -3.3,-3.3 -1.82,0 -3.3,1.48 -3.3,3.3" />
          <path
             inkscape:connector-curvature="0"
             id="path4731"
             style="fill:none;stroke:#ee9a00;stroke-width:1.88;stroke-linecap:round;stroke-linejoin:round;stroke-miterlimit:10;stroke-dasharray:none;stroke-opacity:0.69800002"
             d="m 162.73,127.98 c 0,1.82 1.49,3.3 3.3,3.3 1.82,0 3.3,-1.48 3.3,-3.3 0,-1.81 -1.48,-3.3 -3.3,-3.3 -1.81,0 -3.3,1.49 -3.3,3.3" />
          <path
             inkscape:connector-curvature="0"
             id="path4733"
             style="fill:none;stroke:#ee9a00;stroke-width:1.88;stroke-linecap:round;stroke-linejoin:round;stroke-miterlimit:10;stroke-dasharray:none;stroke-opacity:0.69800002"
             d="m 151.05,129.85 c 0,1.82 1.48,3.3 3.3,3.3 1.81,0 3.3,-1.48 3.3,-3.3 0,-1.81 -1.49,-3.3 -3.3,-3.3 -1.82,0 -3.3,1.49 -3.3,3.3" />
          <path
             inkscape:connector-curvature="0"
             id="path4735"
             style="fill:none;stroke:#ee9a00;stroke-width:1.88;stroke-linecap:round;stroke-linejoin:round;stroke-miterlimit:10;stroke-dasharray:none;stroke-opacity:0.69800002"
             d="m 184.51,138.39 c 0,1.82 1.48,3.3 3.3,3.3 1.81,0 3.3,-1.48 3.3,-3.3 0,-1.81 -1.49,-3.3 -3.3,-3.3 -1.82,0 -3.3,1.49 -3.3,3.3" />
          <path
             inkscape:connector-curvature="0"
             id="path4737"
             style="fill:none;stroke:#ee9a00;stroke-width:1.88;stroke-linecap:round;stroke-linejoin:round;stroke-miterlimit:10;stroke-dasharray:none;stroke-opacity:0.69800002"
             d="m 161.22,116.55 c 0,1.81 1.49,3.3 3.3,3.3 1.82,0 3.3,-1.49 3.3,-3.3 0,-1.82 -1.48,-3.3 -3.3,-3.3 -1.81,0 -3.3,1.48 -3.3,3.3" />
          <path
             inkscape:connector-curvature="0"
             id="path4739"
             style="fill:#ee9a00;fill-opacity:0.69800002;fill-rule:nonzero;stroke:#ee9a00;stroke-width:1.88;stroke-linecap:round;stroke-linejoin:round;stroke-miterlimit:10;stroke-dasharray:none;stroke-opacity:0.69800002"
             d="m 178.32,192.24 c 0,1.81 1.49,3.3 3.3,3.3 1.82,0 3.3,-1.49 3.3,-3.3 0,-1.82 -1.48,-3.3 -3.3,-3.3 -1.81,0 -3.3,1.48 -3.3,3.3" />
          <path
             inkscape:connector-curvature="0"
             id="path4741"
             style="fill:#ee9a00;fill-opacity:0.69800002;fill-rule:nonzero;stroke:#ee9a00;stroke-width:1.88;stroke-linecap:round;stroke-linejoin:round;stroke-miterlimit:10;stroke-dasharray:none;stroke-opacity:0.69800002"
             d="m 168.24,171.81 c 0,1.82 1.48,3.3 3.3,3.3 1.81,0 3.3,-1.48 3.3,-3.3 0,-1.81 -1.49,-3.3 -3.3,-3.3 -1.82,0 -3.3,1.49 -3.3,3.3" />
          <path
             inkscape:connector-curvature="0"
             id="path4743"
             style="fill:#ee9a00;fill-opacity:0.69800002;fill-rule:nonzero;stroke:#ee9a00;stroke-width:1.88;stroke-linecap:round;stroke-linejoin:round;stroke-miterlimit:10;stroke-dasharray:none;stroke-opacity:0.69800002"
             d="m 163.3,160.68 c 0,1.81 1.48,3.3 3.3,3.3 1.81,0 3.3,-1.49 3.3,-3.3 0,-1.82 -1.49,-3.3 -3.3,-3.3 -1.82,0 -3.3,1.48 -3.3,3.3" />
          <path
             inkscape:connector-curvature="0"
             id="path4745"
             style="fill:#ee9a00;fill-opacity:0.69800002;fill-rule:nonzero;stroke:#ee9a00;stroke-width:1.88;stroke-linecap:round;stroke-linejoin:round;stroke-miterlimit:10;stroke-dasharray:none;stroke-opacity:0.69800002"
             d="m 149.41,166.29 c 0,1.81 1.49,3.3 3.3,3.3 1.82,0 3.3,-1.49 3.3,-3.3 0,-1.82 -1.48,-3.3 -3.3,-3.3 -1.81,0 -3.3,1.48 -3.3,3.3" />
          <path
             inkscape:connector-curvature="0"
             id="path4747"
             style="fill:#ee9a00;fill-opacity:0.69800002;fill-rule:nonzero;stroke:#ee9a00;stroke-width:1.88;stroke-linecap:round;stroke-linejoin:round;stroke-miterlimit:10;stroke-dasharray:none;stroke-opacity:0.69800002"
             d="m 181.8,193.87 c 0,1.81 1.49,3.3 3.3,3.3 1.82,0 3.3,-1.49 3.3,-3.3 0,-1.82 -1.48,-3.3 -3.3,-3.3 -1.81,0 -3.3,1.48 -3.3,3.3" />
          <path
             inkscape:connector-curvature="0"
             id="path4749"
             style="fill:#ee9a00;fill-opacity:0.69800002;fill-rule:nonzero;stroke:#ee9a00;stroke-width:1.88;stroke-linecap:round;stroke-linejoin:round;stroke-miterlimit:10;stroke-dasharray:none;stroke-opacity:0.69800002"
             d="m 157.54,151.91 c 0,1.81 1.49,3.3 3.3,3.3 1.82,0 3.3,-1.49 3.3,-3.3 0,-1.82 -1.48,-3.3 -3.3,-3.3 -1.81,0 -3.3,1.48 -3.3,3.3" />
          <path
             inkscape:connector-curvature="0"
             id="path4751"
             style="fill:none;stroke:#1874cd;stroke-width:1.88;stroke-linecap:round;stroke-linejoin:round;stroke-miterlimit:10;stroke-dasharray:none;stroke-opacity:0.69800002"
             d="m 164.97,161.52 4.44,-7.7 h -8.89 l 4.45,7.7" />
          <path
             inkscape:connector-curvature="0"
             id="path4753"
             style="fill:none;stroke:#1874cd;stroke-width:1.88;stroke-linecap:round;stroke-linejoin:round;stroke-miterlimit:10;stroke-dasharray:none;stroke-opacity:0.69800002"
             d="m 215.41,159.41 4.45,-7.7 h -8.89 l 4.44,7.7" />
          <path
             inkscape:connector-curvature="0"
             id="path4755"
             style="fill:none;stroke:#1874cd;stroke-width:1.88;stroke-linecap:round;stroke-linejoin:round;stroke-miterlimit:10;stroke-dasharray:none;stroke-opacity:0.69800002"
             d="m 147.96,135.08 4.44,-7.7 h -8.89 l 4.45,7.7" />
          <path
             inkscape:connector-curvature="0"
             id="path4757"
             style="fill:none;stroke:#1874cd;stroke-width:1.88;stroke-linecap:round;stroke-linejoin:round;stroke-miterlimit:10;stroke-dasharray:none;stroke-opacity:0.69800002"
             d="m 161.69,131.23 4.44,-7.7 h -8.88 l 4.44,7.7" />
          <path
             inkscape:connector-curvature="0"
             id="path4759"
             style="fill:none;stroke:#1874cd;stroke-width:1.88;stroke-linecap:round;stroke-linejoin:round;stroke-miterlimit:10;stroke-dasharray:none;stroke-opacity:0.69800002"
             d="m 195.14,173.23 4.45,-7.7 h -8.89 l 4.44,7.7" />
          <path
             inkscape:connector-curvature="0"
             id="path4761"
             style="fill:none;stroke:#1874cd;stroke-width:1.88;stroke-linecap:round;stroke-linejoin:round;stroke-miterlimit:10;stroke-dasharray:none;stroke-opacity:0.69800002"
             d="m 219.96,148.03 4.44,-7.7 h -8.89 l 4.45,7.7" />
          <path
             inkscape:connector-curvature="0"
             id="path4763"
             style="fill:none;stroke:#1874cd;stroke-width:1.88;stroke-linecap:round;stroke-linejoin:round;stroke-miterlimit:10;stroke-dasharray:none;stroke-opacity:0.69800002"
             d="m 150.46,132.05 4.45,-7.7 h -8.89 l 4.44,7.7" />
          <path
             inkscape:connector-curvature="0"
             id="path4765"
             style="fill:none;stroke:#1874cd;stroke-width:1.88;stroke-linecap:round;stroke-linejoin:round;stroke-miterlimit:10;stroke-dasharray:none;stroke-opacity:0.69800002"
             d="m 140.18,136.25 4.45,-7.7 h -8.89 l 4.44,7.7" />
          <path
             inkscape:connector-curvature="0"
             id="path4767"
             style="fill:#1874cd;fill-opacity:0.69800002;fill-rule:nonzero;stroke:none"
             d="m 282.47,200.3 4.44,-7.7 h -8.89 z" />
          <path
             inkscape:connector-curvature="0"
             id="path4769"
             style="fill:#1874cd;fill-opacity:0.69800002;fill-rule:nonzero;stroke:none"
             d="m 334.03,154.39 4.44,-7.7 h -8.88 z" />
          <path
             inkscape:connector-curvature="0"
             id="path4771"
             style="fill:#1874cd;fill-opacity:0.69800002;fill-rule:nonzero;stroke:none"
             d="m 210.53,168.11 4.44,-7.69 h -8.89 z" />
          <path
             inkscape:connector-curvature="0"
             id="path4773"
             style="fill:#1874cd;fill-opacity:0.69800002;fill-rule:nonzero;stroke:none"
             d="m 281.82,185.64 4.44,-7.7 h -8.89 z" />
          <path
             inkscape:connector-curvature="0"
             id="path4775"
             style="fill:#1874cd;fill-opacity:0.69800002;fill-rule:nonzero;stroke:none"
             d="m 295.68,196.05 4.45,-7.7 h -8.89 z" />
          <path
             inkscape:connector-curvature="0"
             id="path4777"
             style="fill:#1874cd;fill-opacity:0.69800002;fill-rule:nonzero;stroke:none"
             d="m 325.26,163.98 4.44,-7.69 h -8.89 z" />
          <path
             inkscape:connector-curvature="0"
             id="path4779"
             style="fill:#1874cd;fill-opacity:0.69800002;fill-rule:nonzero;stroke:none"
             d="m 245,160.99 4.45,-7.7 h -8.89 z" />
          <path
             inkscape:connector-curvature="0"
             id="path4781"
             style="fill:#1874cd;fill-opacity:0.69800002;fill-rule:nonzero;stroke:none"
             d="m 283.35,171.51 4.45,-7.7 h -8.89 z" />
          <path
             inkscape:connector-curvature="0"
             id="path4783"
             style="fill:none;stroke:#228b22;stroke-width:1.88;stroke-linecap:round;stroke-linejoin:round;stroke-miterlimit:10;stroke-dasharray:none;stroke-opacity:0.69800002"
             d="m 147.08,136.18 4.66,4.67 4.67,-4.67 -4.67,-4.67 -4.66,4.67" />
          <path
             inkscape:connector-curvature="0"
             id="path4785"
             style="fill:none;stroke:#228b22;stroke-width:1.88;stroke-linecap:round;stroke-linejoin:round;stroke-miterlimit:10;stroke-dasharray:none;stroke-opacity:0.69800002"
             d="m 168.75,157.63 4.66,4.67 4.67,-4.67 -4.67,-4.66 -4.66,4.66" />
          <path
             inkscape:connector-curvature="0"
             id="path4787"
             style="fill:none;stroke:#228b22;stroke-width:1.88;stroke-linecap:round;stroke-linejoin:round;stroke-miterlimit:10;stroke-dasharray:none;stroke-opacity:0.69800002"
             d="m 157.18,161.9 4.67,4.67 4.66,-4.67 -4.66,-4.67 -4.67,4.67" />
          <path
             inkscape:connector-curvature="0"
             id="path4789"
             style="fill:none;stroke:#228b22;stroke-width:1.88;stroke-linecap:round;stroke-linejoin:round;stroke-miterlimit:10;stroke-dasharray:none;stroke-opacity:0.69800002"
             d="m 159.31,162.65 4.67,4.67 4.66,-4.67 -4.66,-4.67 -4.67,4.67" />
          <path
             inkscape:connector-curvature="0"
             id="path4791"
             style="fill:none;stroke:#228b22;stroke-width:1.88;stroke-linecap:round;stroke-linejoin:round;stroke-miterlimit:10;stroke-dasharray:none;stroke-opacity:0.69800002"
             d="m 184.22,179.74 4.67,4.66 4.67,-4.66 -4.67,-4.67 -4.67,4.67" />
          <path
             inkscape:connector-curvature="0"
             id="path4793"
             style="fill:none;stroke:#228b22;stroke-width:1.88;stroke-linecap:round;stroke-linejoin:round;stroke-miterlimit:10;stroke-dasharray:none;stroke-opacity:0.69800002"
             d="m 168.11,164.1 4.66,4.67 4.67,-4.67 -4.67,-4.66 -4.66,4.66" />
          <path
             inkscape:connector-curvature="0"
             id="path4795"
             style="fill:#228b22;fill-opacity:0.69800002;fill-rule:nonzero;stroke:none"
             d="m 182.8,155.8 4.95,4.95 4.95,-4.95 -4.95,-4.95 z" />
          <path
             inkscape:connector-curvature="0"
             id="path4797"
             style="fill:#228b22;fill-opacity:0.69800002;fill-rule:nonzero;stroke:none"
             d="m 217.76,176.55 4.95,4.95 4.95,-4.95 -4.95,-4.95 z" />
          <path
             inkscape:connector-curvature="0"
             id="path4799"
             style="fill:#228b22;fill-opacity:0.69800002;fill-rule:nonzero;stroke:none"
             d="m 225.43,189.25 4.95,4.95 4.95,-4.95 -4.95,-4.95 z" />
          <path
             inkscape:connector-curvature="0"
             id="path4801"
             style="fill:#228b22;fill-opacity:0.69800002;fill-rule:nonzero;stroke:none"
             d="m 218.25,194.76 4.95,4.95 4.95,-4.95 -4.95,-4.95 z" />
          <path
             inkscape:connector-curvature="0"
             id="path4803"
             style="fill:#228b22;fill-opacity:0.69800002;fill-rule:nonzero;stroke:none"
             d="m 226.07,191.45 4.95,4.95 4.95,-4.95 -4.95,-4.95 z" />
          <path
             inkscape:connector-curvature="0"
             id="path4805"
             style="fill:#228b22;fill-opacity:0.69800002;fill-rule:nonzero;stroke:none"
             d="m 210.39,185.64 4.95,4.95 4.95,-4.95 -4.95,-4.95 z" />
        </g>
      </g>
      <g
         id="g4807" />
      <g
         id="g4809">
        <path
           inkscape:connector-curvature="0"
           id="path4811"
           style="fill:none;stroke:#a6a6a6;stroke-width:1.12;stroke-linecap:round;stroke-linejoin:round;stroke-miterlimit:10;stroke-dasharray:none;stroke-opacity:1"
           d="M 59.47,45 H 351.99 V 204.99 H 59.47 Z" />
      </g>
      <g
         id="g4813" />
      <g
         id="g4815" />
      <g
         id="g4817" />
    </g>
  </g>
</svg>
