<?xml version="1.0" encoding="UTF-8" standalone="no"?>
<!-- Created with Inkscape (http://www.inkscape.org/) -->

<svg
   xmlns:dc="http://purl.org/dc/elements/1.1/"
   xmlns:cc="http://creativecommons.org/ns#"
   xmlns:rdf="http://www.w3.org/1999/02/22-rdf-syntax-ns#"
   xmlns:svg="http://www.w3.org/2000/svg"
   xmlns="http://www.w3.org/2000/svg"
   xmlns:sodipodi="http://sodipodi.sourceforge.net/DTD/sodipodi-0.dtd"
   xmlns:inkscape="http://www.inkscape.org/namespaces/inkscape"
   width="41.970966mm"
   height="70.138695mm"
   viewBox="0 0 41.970966 70.138695"
   version="1.1"
   id="svg8"
   inkscape:version="0.92.1 r15371"
   sodipodi:docname="ble.svg">
  <defs
     id="defs2" />
  <sodipodi:namedview
     id="base"
     pagecolor="#ffffff"
     bordercolor="#666666"
     borderopacity="1.0"
     inkscape:pageopacity="0.0"
     inkscape:pageshadow="2"
     inkscape:zoom="0.35"
     inkscape:cx="-592.11336"
     inkscape:cy="-244.5973"
     inkscape:document-units="mm"
     inkscape:current-layer="layer1"
     showgrid="false"
     fit-margin-top="0"
     fit-margin-left="0"
     fit-margin-right="0"
     fit-margin-bottom="0"
     inkscape:window-width="956"
     inkscape:window-height="1036"
     inkscape:window-x="0"
     inkscape:window-y="20"
     inkscape:window-maximized="0" />
  <metadata
     id="metadata5">
    <rdf:RDF>
      <cc:Work
         rdf:about="">
        <dc:format>image/svg+xml</dc:format>
        <dc:type
           rdf:resource="http://purl.org/dc/dcmitype/StillImage" />
        <dc:title />
      </cc:Work>
    </rdf:RDF>
  </metadata>
  <g
     inkscape:label="Layer 1"
     inkscape:groupmode="layer"
     id="layer1"
     transform="translate(-11.52047,-13.97827)">
    <g
       transform="matrix(0.35277777,0,0,-0.35277777,10.955945,84.680704)"
       inkscape:label="ble_epi"
       id="g4493"
       style="opacity:0.365">
      <g
         id="g4495"
         style="">
        <path
           inkscape:connector-curvature="0"
           id="path4497"
           style="fill:#ead39f;fill-opacity:1;fill-rule:nonzero;stroke:none"
           d="M 11.57,3.399 C 11.367,4.391 10.797,13.661 10.305,24.001 9.809,34.34 9.074,45.141 8.672,48.001 8.27,50.86 7.934,55.872 7.926,59.137 7.914,63.508 7.563,65.458 6.594,66.528 5.871,67.329 4.84,70.594 4.305,73.79 c -0.532,3.195 -1.45,7.504 -2.039,9.57 -0.883,3.117 -0.887,4.102 -0.016,5.73 0.848,1.586 0.863,2.75 0.086,6 -0.856,3.563 -0.781,4.536 0.625,8.301 1.254,3.352 1.453,5.028 0.93,7.836 -0.496,2.656 -0.375,4.027 0.476,5.344 0.735,1.141 1.141,3.949 1.141,7.875 0,5.519 0.16,6.144 1.676,6.543 1.418,0.371 1.586,0.816 1.097,2.926 -0.898,3.882 -0.742,10.675 0.274,11.898 0.508,0.613 1.3,3.774 1.761,7.031 0.52,3.66 1.289,6.168 2.016,6.578 0.648,0.36 1.176,1.34 1.176,2.176 0,0.836 0.902,3.211 2,5.278 1.101,2.07 2,4.851 2,6.179 0,1.332 0.519,2.992 1.152,3.692 0.637,0.699 1.61,3.07 2.168,5.261 1.258,4.954 0.91,4.551 4.438,5.125 2.718,0.442 3.109,0.844 4.617,4.793 1.074,2.821 2.68,5.153 4.644,6.743 3.481,2.816 4.344,2.378 4.782,-2.411 0.168,-1.836 0.773,-3.902 1.347,-4.593 0.864,-1.039 0.801,-1.762 -0.379,-4.243 -0.777,-1.64 -1.39,-4.609 -1.363,-6.597 0.031,-1.985 -0.453,-4.824 -1.074,-6.313 -0.621,-1.488 -1.129,-3.441 -1.129,-4.34 0,-2.429 -2.363,-9.925 -4.867,-15.445 -1.219,-2.68 -2.391,-6.93 -2.61,-9.441 -0.214,-2.512 -0.988,-5.473 -1.714,-6.578 -1,-1.532 -1.098,-2.278 -0.411,-3.11 0.618,-0.742 0.661,-1.566 0.133,-2.554 -0.429,-0.801 -1.312,-3.489 -1.961,-5.973 -1.043,-3.984 -1.039,-4.66 0,-5.703 0.957,-0.953 1,-1.524 0.231,-2.965 -0.879,-1.641 -2.34,-11.723 -2.668,-18.383 -0.188,-3.891 2.289,-4.43 3.062,-0.664 0.453,2.207 3.227,9.055 4.117,10.164 0.141,0.176 1.207,0.356 2.368,0.399 1.863,0.07 2.336,0.722 4.101,5.679 2.289,6.43 3.746,8.403 6.211,8.403 1.32,0 2.27,1.066 3.895,4.39 1.183,2.414 3.218,5.18 4.519,6.141 1.301,0.961 3.27,3.117 4.375,4.785 1.274,1.926 2.43,2.875 3.164,2.594 0.774,-0.297 2.282,1.285 4.594,4.832 1.895,2.898 4.047,5.461 4.781,5.695 0.735,0.234 2.285,1.672 3.449,3.191 1.415,1.856 2.77,2.77 4.106,2.77 1.434,0 2.383,0.727 3.359,2.566 2.41,4.536 5.219,6.918 7.618,6.457 1.277,-0.242 2.152,-0.937 2.156,-1.714 0.008,-0.719 0.25,-2.207 0.539,-3.309 0.484,-1.836 0.414,-1.906 -0.891,-0.832 -1.344,1.102 -1.39,0.875 -0.847,-4.172 0.554,-5.199 0.5,-5.426 -2.082,-8.766 -1.458,-1.886 -3.786,-4.726 -5.176,-6.308 -1.391,-1.582 -3.16,-4.305 -3.926,-6.043 -0.77,-1.738 -2.625,-4.004 -4.125,-5.031 -1.5,-1.028 -2.941,-2.723 -3.203,-3.762 -0.258,-1.039 -1.887,-3.008 -3.617,-4.379 -1.727,-1.367 -3.817,-3.797 -4.641,-5.398 -0.824,-1.598 -2.793,-4.149 -4.375,-5.668 -1.961,-1.883 -2.727,-3.219 -2.414,-4.207 0.312,-0.985 -0.711,-2.782 -3.219,-5.641 -2.039,-2.324 -4.058,-5.617 -4.535,-7.391 -1.109,-4.132 -1.898,-5.808 -4.269,-9.054 -1.067,-1.457 -1.747,-3.153 -1.512,-3.766 0.238,-0.613 -0.504,-3.16 -1.649,-5.66 -2.703,-5.899 -3.625,-12.883 -1.793,-13.582 1.352,-0.52 6.125,3.555 6.125,5.23 0,1.328 3.137,7.231 3.84,7.231 1.227,0 6.727,5.988 8.258,8.988 0.863,1.699 2.188,3.285 2.938,3.524 3.546,1.128 5.332,2.546 7.64,6.07 1.82,2.785 3.012,3.816 4.399,3.816 1.23,0 3.078,1.285 5.254,3.656 2.867,3.122 3.667,3.579 5.488,3.122 1.824,-0.457 2.613,-0.004 5.48,3.144 1.844,2.024 3.996,3.68 4.785,3.68 0.789,0 2.321,0.808 3.399,1.801 1.082,0.988 3.348,2.468 5.043,3.289 4.629,2.238 4.707,2.285 9.34,5.527 4.668,3.273 6.625,3.297 7.429,0.094 0.266,-1.051 0.801,-1.91 1.196,-1.91 0.39,0 0.711,-0.704 0.711,-1.563 0,-0.855 0.605,-1.898 1.347,-2.312 1.254,-0.7 1.242,-0.918 -0.16,-3.039 -0.832,-1.258 -1.547,-2.829 -1.59,-3.489 -0.168,-2.492 -2.187,-6.351 -3.551,-6.785 -0.781,-0.246 -2.929,-2.062 -4.777,-4.031 -1.848,-1.969 -3.902,-3.582 -4.566,-3.582 -1.696,0 -6.703,-3.957 -6.703,-5.297 0,-0.645 -1.559,-1.527 -3.715,-2.102 -2.871,-0.769 -4.129,-1.656 -5.563,-3.922 -1.246,-1.972 -2.84,-3.25 -4.886,-3.902 -3.375,-1.078 -4.637,-2 -4.637,-3.387 0,-0.507 -1.258,-1.742 -2.797,-2.738 -3.168,-2.051 -7.199,-5.918 -7.199,-6.91 -0.004,-0.363 -1.981,-2.469 -4.399,-4.676 -3.418,-3.125 -4.3,-4.402 -3.965,-5.742 0.325,-1.297 -0.457,-2.598 -3.16,-5.246 -2.968,-2.914 -3.515,-3.899 -3.156,-5.695 0.367,-1.84 -0.125,-2.641 -3.242,-5.246 -2.024,-1.692 -3.68,-3.567 -3.68,-4.165 0,-1.75 -3.98,-8.039 -6.187,-9.777 -1.118,-0.875 -2.7,-1.594 -3.52,-1.594 -0.824,0 -1.519,-0.269 -1.551,-0.601 C 36.203,19.462 35.57,16.661 34.297,13.79 33.457,11.887 32.543,8.997 32.27,7.364 31.398,2.2 31.074,1.598 29.141,1.598 c -2.715,0 -2.977,1.66 -1.649,10.531 1.168,7.821 1.156,8.016 -0.512,10.278 -1.449,1.953 -1.632,3.004 -1.23,6.949 0.344,3.34 0.91,4.934 2.023,5.68 1.375,0.918 1.446,1.379 0.641,4.101 -1.133,3.836 -1.949,4.2 -3.762,1.664 C 23.434,39.09 23.16,36.403 22.789,22.399 22.547,13.379 22.34,5.008 22.332,3.801 22.313,2.008 21.949,1.598 20.363,1.598 c -1.172,0 -2.101,0.559 -2.336,1.403 -0.214,0.769 -0.148,11.23 0.149,23.242 l 0.535,21.844 -2.113,2.023 c -1.649,1.578 -2.262,1.785 -2.782,0.957 C 12.891,49.59 13.094,33.903 14.148,25.2 14.629,21.239 15.27,14.309 15.57,9.801 l 0.547,-8.203 h -2.09 c -1.523,0 -2.187,0.489 -2.457,1.801 z m 23.539,52.664 v 4.859 L 32.91,58.305 c -1.211,-1.437 -2.094,-3.176 -1.961,-3.859 0.508,-2.656 0.965,-3.246 2.535,-3.246 1.454,0 1.625,0.508 1.625,4.863 z" />
        <path
           inkscape:connector-curvature="0"
           id="path4499"
           style="fill:#cfaa60;fill-opacity:1;fill-rule:nonzero;stroke:none"
           d="m 11.91,2.399 c 0,0.441 0.36,0.801 0.801,0.801 0.437,0 0.797,-0.36 0.797,-0.801 0,-0.437 -0.36,-0.801 -0.797,-0.801 -0.441,0 -0.801,0.364 -0.801,0.801 z m 15.199,0 c 0,0.441 0.36,0.801 0.801,0.801 0.438,0 0.801,-0.36 0.801,-0.801 0,-0.437 -0.363,-0.801 -0.801,-0.801 -0.441,0 -0.801,0.364 -0.801,0.801 z m 1.653,3.961 c -0.035,1.894 0.207,2.5 0.773,1.937 0.543,-0.546 0.563,-1.48 0.051,-2.761 -0.727,-1.821 -0.777,-1.77 -0.824,0.824 z m -0.051,6.789 c 0,1.07 0.363,2.91 0.812,4.086 0.649,1.711 0.493,2.652 -0.8,4.746 -2.118,3.422 -2.039,3.766 0.586,2.652 3.3,-1.398 3.894,-2.507 3.75,-7 -0.094,-2.972 -0.543,-4.41 -1.641,-5.238 -2.145,-1.625 -2.707,-1.469 -2.707,0.754 z m 1.219,15.586 c -1.082,3.262 -1.164,4.367 -0.399,5.293 0.75,0.902 0.758,2.004 0.039,4.867 -1.16,4.609 -0.547,5.34 1.903,2.274 1.043,-1.301 2.086,-2.18 2.32,-1.946 0.883,0.871 0.785,7.086 -0.125,8.184 -1.105,1.336 -0.488,2.191 1.574,2.191 1.113,0 1.469,0.614 1.469,2.543 v 2.539 l 1.852,-1.742 c 2.578,-2.422 2.945,-2.215 2.96,1.66 0.004,1.871 0.34,3.922 0.743,4.559 0.445,0.707 0.433,1.715 -0.032,2.582 -0.566,1.062 -0.351,1.836 0.856,3.043 0.89,0.89 1.621,2 1.621,2.465 0,1.379 1.637,-0.047 2.422,-2.11 0.961,-2.531 3.176,-1.695 3.176,1.196 0,1.187 0.527,2.859 1.175,3.714 0.645,0.856 1.184,2.918 1.2,4.586 0.015,1.836 0.718,3.969 1.785,5.411 l 1.761,2.382 1.774,-2.214 1.777,-2.211 0.813,2.121 c 0.449,1.168 1.199,2.359 1.668,2.648 0.465,0.289 0.847,1.52 0.847,2.738 0,1.325 0.801,2.965 2,4.09 l 2,1.879 v -3.176 c 0,-1.75 -0.406,-3.589 -0.906,-4.086 -0.5,-0.5 -0.676,-1.503 -0.398,-2.23 0.414,-1.078 1.144,-1.219 3.906,-0.766 5.211,0.86 7.621,3.567 3.199,3.594 -1.211,0.004 -2.742,0.356 -3.402,0.774 -1.012,0.644 -0.867,1.093 0.941,2.91 2.125,2.129 2.156,2.136 5.02,0.777 1.613,-0.766 3.594,-1.145 4.5,-0.855 0.89,0.281 2.051,0.164 2.578,-0.262 1.148,-0.922 4.562,0.183 4.562,1.476 0,0.508 -1.019,0.782 -2.375,0.637 -1.636,-0.172 -2.746,0.246 -3.574,1.34 -1.695,2.242 -1.539,3.352 0.75,5.34 1.098,0.957 2,2.078 2,2.492 0,0.984 4.25,7.691 4.903,7.73 0.726,0.04 -0.168,-7.433 -1,-8.332 -1.411,-1.527 -0.688,-2.839 1.562,-2.839 3.02,0 3.484,0.625 2.074,2.781 -1.066,1.621 -1.023,1.976 0.442,3.707 1.519,1.793 1.683,1.824 2.707,0.512 1.179,-1.52 5.699,-1.891 7.691,-0.629 0.996,0.629 0.883,1.058 -0.711,2.754 l -1.89,2.011 2.5,2.848 c 1.375,1.562 2.726,3.754 3.003,4.863 0.282,1.114 0.914,1.887 1.414,1.719 1.481,-0.492 1.54,-2.98 0.11,-4.559 -1.07,-1.183 -1.152,-1.812 -0.422,-3.179 1.098,-2.051 3.672,-1.578 5.797,1.054 l 1.383,1.715 0.019,-2.152 c 0.008,-1.184 0.363,-2.363 0.781,-2.625 1.645,-1.016 -0.324,-2.852 -4.449,-4.152 -2.383,-0.75 -3.929,-1.614 -3.445,-1.915 1.746,-1.078 0.34,-3.5 -2.516,-4.332 -3.125,-0.906 -6.277,-3.242 -7.636,-5.656 -0.516,-0.914 -2.301,-1.871 -4.297,-2.301 -2.821,-0.605 -3.61,-1.203 -4.539,-3.425 -0.661,-1.582 -2.024,-3.047 -3.305,-3.551 -6.352,-2.5 -7.324,-3.09 -6.906,-4.188 0.285,-0.738 -0.703,-1.781 -2.817,-2.968 -1.789,-1.004 -3.254,-2.289 -3.254,-2.852 0,-0.562 -0.718,-1.41 -1.601,-1.883 -0.879,-0.469 -1.598,-1.359 -1.598,-1.972 0,-0.614 -0.722,-1.348 -1.601,-1.625 -0.879,-0.282 -1.973,-1.204 -2.43,-2.055 -0.969,-1.809 -2.758,-2.109 -2.082,-0.348 0.609,1.586 -1.391,1.567 -2.711,-0.027 -0.563,-0.676 -1.598,-1.176 -2.301,-1.109 -3.262,0.312 -4.074,-0.102 -4.074,-2.063 0,-2.48 1.309,-2.547 3.816,-0.199 l 1.922,1.801 -0.574,-3.2 c -0.316,-1.761 -0.703,-3.906 -0.855,-4.765 -0.157,-0.86 -1.012,-2.293 -1.907,-3.188 -1.281,-1.281 -1.922,-1.441 -3.015,-0.75 -1.735,1.098 -5.789,-0.152 -5.789,-1.785 0,-0.918 0.289,-0.945 1.562,-0.148 1.859,1.156 2.227,0.89 2.449,-1.766 0.266,-3.176 0.035,-5.109 -0.539,-4.535 -0.293,0.289 -0.926,-0.266 -1.406,-1.235 -0.484,-0.968 -1.777,-1.972 -2.871,-2.23 -1.387,-0.328 -2.043,-1.07 -2.156,-2.434 -0.09,-1.082 -0.457,-3.402 -0.813,-5.16 -0.722,-3.547 -2.89,-5.07 -8.226,-5.785 l -3.008,-0.406 z m 8.746,8.922 c -0.688,1.109 -1.168,0.902 -1.168,-0.504 0,-0.688 0.367,-1.02 0.816,-0.746 0.446,0.277 0.606,0.84 0.352,1.25 z m 27.234,35.64 c 0,0.387 -0.812,0.817 -1.801,0.957 -1.484,0.211 -1.8,-0.121 -1.8,-1.894 0,-2.055 0.082,-2.102 1.8,-0.961 0.989,0.66 1.801,1.512 1.801,1.898 z M 96.711,95.2 c 0,0.441 -0.723,0.801 -1.602,0.801 -0.879,0 -1.601,-0.36 -1.601,-0.801 0,-0.442 0.722,-0.801 1.601,-0.801 0.879,0 1.602,0.359 1.602,0.801 z M 19.699,42.598 c -0.207,0.551 -0.074,1.828 0.301,2.836 0.57,1.528 0.949,1.695 2.25,0.996 2.238,-1.195 2.742,-2.328 1.629,-3.664 -1.184,-1.429 -3.66,-1.527 -4.18,-0.168 z M 9.52,51.165 c -0.532,1.968 -0.684,5.164 -0.372,7.683 0.446,3.539 0.235,4.903 -1.148,7.559 -2.004,3.84 -2.109,4.535 -0.492,3.191 1.574,-1.304 1.515,-0.679 -0.32,3.41 -2.739,6.094 -4.235,10.789 -3.922,12.305 0.246,1.168 0.777,0.762 2.488,-1.914 1.195,-1.867 2.512,-3.398 2.926,-3.398 1.062,0 -1.442,5.718 -3.254,7.429 -0.836,0.789 -1.52,2.227 -1.524,3.199 -0.007,0.973 -0.234,3.122 -0.507,4.77 -0.657,3.984 0.695,3.906 3.41,-0.199 1.164,-1.762 2.609,-3.199 3.211,-3.199 1.293,0 1.418,0.953 0.277,2.097 -0.449,0.449 -1.102,2.41 -1.445,4.36 -0.508,2.886 -0.922,3.511 -2.227,3.379 -1.48,-0.149 -1.605,0.339 -1.672,6.601 -0.051,4.711 0.211,6.762 0.871,6.762 0.637,0 0.938,1.734 0.918,5.277 -0.015,2.902 0.207,5.422 0.492,5.598 0.29,0.176 1.266,-0.938 2.172,-2.477 0.911,-1.539 2.196,-2.797 2.856,-2.797 0.863,0 1.172,-0.8 1.097,-2.839 -0.066,-1.684 0.422,-3.375 1.2,-4.149 1.207,-1.207 1.425,-1.195 2.929,0.164 1.602,1.449 1.625,1.434 1.625,-0.996 0,-4.492 -5.734,-7.355 -8.937,-4.457 -0.805,0.727 -1.457,1 -1.449,0.602 0.019,-1.176 1.09,-2.407 2.562,-2.95 0.758,-0.281 1.598,-1.511 1.867,-2.742 0.879,-3.996 1.075,-4.234 3.516,-4.234 1.98,0 2.496,-0.395 2.895,-2.199 0.261,-1.211 0.605,-2.618 0.757,-3.122 0.153,-0.507 1.539,-0.886 3.082,-0.843 2.95,0.082 3.661,1.109 3.707,5.363 0.016,1.102 0.364,2.535 0.774,3.188 0.586,0.921 1.156,0.296 2.566,-2.801 1.594,-3.508 1.848,-3.746 2.114,-1.985 0.164,1.098 0.648,2.422 1.07,2.938 0.426,0.515 0.535,2.211 0.242,3.762 -0.398,2.128 -0.145,3.375 1.043,5.062 0.863,1.231 2.027,3.676 2.586,5.438 1.641,5.16 3.281,7.972 3.98,6.843 0.485,-0.785 0.957,-0.777 2.262,0.039 1.445,0.903 1.844,0.793 3.203,-0.882 l 1.551,-1.918 0.578,1.816 c 0.387,1.223 0.141,2.297 -0.762,3.293 -1.054,1.168 -1.148,1.82 -0.445,3.133 0.488,0.914 1.211,1.574 1.606,1.469 0.394,-0.106 1.23,0.492 1.859,1.335 1.074,1.438 1.25,1.45 3.035,0.2 2.555,-1.789 2.828,-1.715 4.262,1.156 0.84,1.687 1,2.934 0.5,3.871 -0.942,1.758 -0.223,4.598 1.312,5.188 1.508,0.574 4.266,-0.879 4.266,-2.247 0,-0.578 -0.723,-1.699 -1.602,-2.496 -1.914,-1.734 -2.007,-2.472 -0.394,-3.093 2.211,-0.848 5.195,0.89 5.195,3.027 0,1.082 -0.359,2.191 -0.801,2.465 -1.089,0.676 -1.011,3.375 0.121,4.074 0.508,0.313 1.387,-0.066 1.961,-0.848 0.817,-1.117 1.657,-1.304 3.961,-0.871 1.61,0.301 2.778,0.254 2.598,-0.101 -0.18,-0.36 -0.937,-1.996 -1.687,-3.641 -0.817,-1.785 -2.094,-3.168 -3.18,-3.441 -1.004,-0.25 -2.27,-1.473 -2.82,-2.711 -1,-2.262 -2.426,-2.766 -9.973,-3.532 -1.219,-0.121 -2.84,-0.843 -3.598,-1.605 -1.211,-1.211 -1.234,-1.477 -0.183,-2.141 0.66,-0.418 2.371,-0.765 3.8,-0.769 1.43,-0.008 2.602,-0.172 2.602,-0.363 0,-1.637 -2.203,-5.161 -5.281,-8.454 -2.278,-2.433 -3.528,-4.421 -3.246,-5.152 0.562,-1.469 -0.821,-2.437 -3.473,-2.441 -1.102,-0.004 -2,-0.364 -2,-0.805 0,-0.437 0.629,-0.711 1.402,-0.609 1.235,0.168 1.176,-0.172 -0.476,-2.797 -1.035,-1.649 -2.336,-4.434 -2.891,-6.192 -0.558,-1.761 -2.078,-4.558 -3.379,-6.222 -1.301,-1.66 -2.57,-4.36 -2.824,-6 -0.25,-1.637 -0.734,-3.34 -1.074,-3.778 -0.336,-0.441 -1.543,-3.457 -2.676,-6.703 -2.555,-7.332 -3.309,-8.344 -5.285,-7.109 -1.692,1.055 -4,-0.32 -4,-2.379 0,-1.207 1.875,-1.141 5,0.172 1.047,0.441 1.394,0.215 1.375,-0.895 -0.035,-2.011 -1.403,-3.605 -4.973,-5.785 -2.316,-1.414 -3,-2.344 -3,-4.07 0,-1.231 -0.515,-2.664 -1.148,-3.188 -1.508,-1.254 -4.676,0.774 -7.668,4.903 L 12.914,56.758 12.5,53.11 C 11.91,47.856 10.633,47.024 9.52,51.165 Z m 10.418,3.984 c -0.458,0.848 -0.829,2.48 -0.829,3.625 0,1.949 -1.898,3.594 -2.941,2.551 -0.961,-0.961 2.742,-7.727 4.227,-7.727 0.203,0 0,0.699 -0.457,1.551 z m 1.972,15.527 c 0,2.434 -0.472,4.844 -1.09,5.59 -2.769,3.34 -3.465,-2.554 -0.832,-7.019 0.922,-1.567 1.735,-2.848 1.801,-2.848 0.066,0 0.121,1.926 0.121,4.277 z m -6.183,-0.425 c 0.171,0.523 -0.254,0.949 -0.95,0.949 -0.699,0 -1.269,-0.571 -1.269,-1.266 0,-1.414 1.722,-1.168 2.219,0.317 z m 0.984,10.636 c 0,1.86 -0.641,1.907 -2.539,0.188 -1.5,-1.36 -1.918,-3.551 -0.875,-4.598 0.808,-0.808 3.414,2.555 3.414,4.41 z m 9.719,5.114 c -0.512,4.73 -1.375,5.707 -2.895,3.293 -0.551,-0.872 -0.25,-2.317 1.035,-4.957 0.996,-2.051 1.942,-3.598 2.098,-3.434 0.156,0.164 0.051,2.457 -0.238,5.098 z m -9.535,3.398 c 1.445,1.641 2.668,6.602 1.628,6.602 -0.394,0 -1.718,-1.047 -2.941,-2.325 -1.609,-1.679 -2.082,-2.793 -1.695,-4 0.648,-2.043 1.39,-2.109 3.008,-0.277 z m 27.015,12.137 c 0,1.383 -0.972,3.265 -1.687,3.265 -0.391,0 -0.715,-0.902 -0.715,-2 0,-1.246 0.453,-2 1.203,-2 0.66,0 1.199,0.328 1.199,0.735 z m -1.426,13.64 c -0.441,2.993 -1.484,3.797 -2.16,1.664 -0.551,-1.722 0.883,-5.121 1.891,-4.496 0.348,0.211 0.465,1.485 0.269,2.832 z m 10.227,-0.683 c 0,0.441 -0.363,0.578 -0.801,0.308 -0.441,-0.273 -0.801,-0.855 -0.801,-1.297 0,-0.437 0.36,-0.578 0.801,-0.304 0.438,0.273 0.801,0.855 0.801,1.293 z M 73.777,93.251 c -0.535,1.394 0.914,5.148 1.989,5.148 0.375,0 1.132,-0.973 1.675,-2.168 0.848,-1.863 0.789,-2.312 -0.425,-3.199 -1.856,-1.356 -2.653,-1.301 -3.239,0.219 z m 20.36,11.988 c -0.84,0.84 0.89,6.324 2.328,7.383 1.316,0.965 1.469,0.8 1.699,-1.86 0.305,-3.543 -2.355,-7.195 -4.027,-5.523 z m -82.52,19.234 c -1.957,2.453 -2.297,3.633 -2.429,8.391 -0.083,3.043 0.003,5.535 0.195,5.535 0.957,0 3.953,-4.117 5,-6.871 1.277,-3.367 4.305,-4.754 5.215,-2.387 0.261,0.688 0.785,1.059 1.16,0.828 0.375,-0.23 0.472,-0.961 0.219,-1.625 -0.254,-0.66 0.187,-1.918 0.976,-2.793 1.918,-2.121 0.848,-3.047 -4.086,-3.539 -3.789,-0.375 -4.078,-0.261 -6.25,2.461 z m 2.891,13.328 c -2.043,2.567 -4.117,8.805 -3.672,11.039 0.262,1.297 0.723,2.36 1.023,2.36 1.032,0 4.516,-4.391 5.871,-7.399 0.747,-1.652 1.719,-3 2.165,-3 0.449,0 0.816,-0.382 0.816,-0.847 0,-0.469 -0.344,-0.637 -0.762,-0.379 -0.418,0.258 -1.148,-0.262 -1.629,-1.153 -0.98,-1.835 -2.629,-2.105 -3.812,-0.621 z m 8.601,0.934 c 0,0.695 0.571,1.266 1.266,1.266 1.414,0 1.168,-1.723 -0.316,-2.219 -0.524,-0.172 -0.95,0.254 -0.95,0.953 z m -0.886,4.219 c -0.043,0.355 -0.024,1.59 0.05,2.746 0.106,1.64 -0.312,2.215 -1.914,2.617 -1.129,0.281 -2.05,0.996 -2.05,1.586 0,0.59 -0.93,2.441 -2.063,4.117 -1.617,2.379 -1.957,3.625 -1.566,5.711 0.547,2.914 1.3,3.309 2.824,1.477 1.656,-1.996 2.457,-0.508 2.039,3.777 -0.219,2.242 -0.184,4.934 0.082,5.984 0.477,1.899 0.484,1.899 1.625,0.27 1.945,-2.777 3.426,-2.082 2.898,1.359 -0.253,1.653 -0.773,3.61 -1.152,4.348 -0.93,1.82 -0.875,7.055 0.074,7.055 0.418,0 1.047,-0.477 1.399,-1.063 0.351,-0.582 1.269,-1.289 2.039,-1.574 0.969,-0.356 1.402,-1.375 1.402,-3.293 0,-1.527 0.36,-3 0.801,-3.27 0.437,-0.273 0.797,-1.375 0.797,-2.449 0,-2.351 1.246,-2.59 1.832,-0.351 0.254,0.968 1.094,1.597 2.121,1.597 1.473,0 1.586,-0.222 0.824,-1.644 -0.484,-0.903 -1.367,-1.832 -1.965,-2.059 -0.812,-0.312 -1.007,-1.808 -0.769,-5.957 0.183,-3.269 -0.004,-5.539 -0.465,-5.539 -0.426,0 -0.777,0.359 -0.777,0.801 0,1.16 -2.571,0.98 -5.903,-0.41 -3.523,-1.473 -3.734,-3.383 -0.496,-4.508 2.668,-0.93 2.973,-2.016 1.223,-4.328 -0.645,-0.856 -1.184,-2.703 -1.199,-4.106 -0.02,-2.211 -1.477,-4.676 -1.711,-2.894 z m 5.976,24.644 c 0.309,0.809 -0.039,1.203 -1.066,1.203 -1.649,0 -2.699,-1.062 -1.867,-1.89 0.906,-0.907 2.461,-0.543 2.933,0.687 z m 40.203,-24.34 c -0.203,0.629 -0.597,2.524 -0.879,4.211 -0.441,2.637 -0.316,3.028 0.887,2.797 2.047,-0.394 3.176,-5.332 1.582,-6.926 -1.039,-1.043 -1.277,-1.054 -1.59,-0.082 z m 6.153,3.657 c -0.707,1.843 1.023,3.156 2.519,1.914 1.672,-1.387 1.551,-2.16 -0.414,-2.672 -1.031,-0.27 -1.82,0.012 -2.105,0.758 z m 5.754,0.285 c 0.273,0.441 0.855,0.801 1.296,0.801 0.438,0 0.575,-0.36 0.305,-0.801 -0.273,-0.442 -0.855,-0.801 -1.297,-0.801 -0.437,0 -0.574,0.359 -0.304,0.801 z m -5.047,6.191 c 0.398,2.086 3.047,2.317 3.047,0.266 0,-1.145 -0.512,-1.656 -1.657,-1.656 -1.148,0 -1.578,0.429 -1.39,1.39 z m -46.953,28.211 c -0.871,1.41 0.308,4.797 1.668,4.797 0.906,0 1.168,-0.672 0.984,-2.539 -0.258,-2.613 -1.684,-3.824 -2.652,-2.258 z" />
        <path
           inkscape:connector-curvature="0"
           id="path4501"
           style="fill:#98712d;fill-opacity:1;fill-rule:nonzero;stroke:none"
           d="m 32.012,26.676 c -1.418,1.707 -2.004,5.996 -0.989,7.219 0.504,0.606 0.688,1.688 0.415,2.402 -0.383,0.997 -0.012,1.301 1.585,1.301 1.696,0 2.086,-0.375 2.086,-2.004 0,-1.14 1.039,-3.093 2.399,-4.519 1.32,-1.383 2.402,-2.746 2.402,-3.031 0,-0.559 -4.754,-2.446 -6.16,-2.446 -0.465,0 -1.246,0.485 -1.738,1.078 z m 4.765,14.082 c -1.07,0.661 -0.406,6.442 0.743,6.442 0.582,0 2.39,-4.262 2.39,-5.633 0,-0.949 -2.051,-1.477 -3.133,-0.809 z m -16.066,3.243 c 0,0.437 0.359,0.8 0.797,0.8 0.441,0 0.801,-0.363 0.801,-0.8 0,-0.442 -0.36,-0.801 -0.801,-0.801 -0.438,0 -0.797,0.359 -0.797,0.801 z m -0.402,6.398 c -0.27,0.441 -0.114,0.801 0.351,0.801 0.469,0 0.848,-0.36 0.848,-0.801 0,-0.437 -0.156,-0.801 -0.352,-0.801 -0.195,0 -0.574,0.364 -0.847,0.801 z m -2.61,1.332 c -1.187,0.481 -2.504,2.785 -3.426,5.996 -0.984,3.434 0.516,2.012 2.707,-2.566 1.043,-2.18 1.86,-3.934 1.813,-3.899 -0.047,0.035 -0.539,0.246 -1.094,0.469 z m 25.438,1.016 c -1.137,2.125 -1.035,3.683 0.304,4.797 0.903,0.75 1.235,0.617 1.641,-0.661 0.281,-0.882 1.211,-1.824 2.066,-2.097 1.985,-0.629 1.993,-1.699 0.012,-2.758 -2.219,-1.188 -3.086,-1.035 -4.023,0.719 z m -33.36,2.105 c -0.265,0.692 -0.074,1.664 0.426,2.16 0.676,0.676 0.906,0.356 0.906,-1.254 0,-2.406 -0.597,-2.812 -1.332,-0.906 z M 21,55.598 c -0.254,0.66 -0.254,1.739 -0.004,2.399 0.375,0.972 0.832,1.023 2.488,0.269 2.426,-1.105 2.555,-1.926 0.477,-3.039 C 21.914,54.133 21.543,54.18 21,55.598 Z m -1.691,6.094 c -1.586,1.016 -2.61,2.336 -2.625,3.387 -0.024,1.672 -0.059,1.675 -1.176,0.199 -1.008,-1.328 -1.219,-1.359 -1.637,-0.262 -0.281,0.731 0.215,1.961 1.176,2.922 3.09,3.09 1.344,6.348 -1.809,3.383 -0.965,-0.906 -2.125,-1.395 -2.578,-1.086 -1.09,0.75 -3.945,5.73 -4.504,7.859 -0.414,1.582 -0.269,1.641 2.215,0.879 1.684,-0.519 2.746,-1.402 2.899,-2.414 0.3,-2.015 3.074,-3.828 3.609,-2.359 0.488,1.347 1.832,1.273 1.832,-0.098 0,-1.515 4.059,-8.754 5.348,-9.543 1.101,-0.672 1.488,-4.57 0.449,-4.547 -0.328,0.008 -1.77,0.766 -3.199,1.68 z m 25.132,-1.16 c -0.828,0.832 -0.625,3.469 0.27,3.469 0.437,0 0.797,-0.903 0.797,-2 0,-2.094 -0.184,-2.348 -1.067,-1.469 z m 7.469,5.422 c 0,2.675 0.86,2.98 3.16,1.117 1.61,-1.305 1.75,-1.711 0.797,-2.313 C 53.66,63.36 51.91,63.887 51.91,65.954 Z M 23.18,68.2 c -0.383,1.008 -0.371,2.394 0.023,3.148 1.125,2.145 0.879,2.86 -2.129,6.188 -2.797,3.093 -2.82,3.179 -1.664,5.953 0.649,1.547 0.981,3.555 0.742,4.461 -0.234,0.906 -0.058,1.648 0.399,1.648 0.457,0 1.605,-2.336 2.554,-5.191 0.95,-2.852 2.075,-5.403 2.5,-5.664 0.422,-0.262 0.563,-1.129 0.309,-1.926 -0.254,-0.797 0.133,-2.926 0.856,-4.73 0.722,-1.805 1.105,-3.825 0.851,-4.485 C 26.91,65.747 23.953,66.145 23.18,68.2 Z m 44.73,2.953 c 0,0.465 0.36,0.848 0.801,0.848 0.437,0 0.797,-0.161 0.797,-0.352 0,-0.195 -0.36,-0.578 -0.797,-0.848 -0.441,-0.273 -0.801,-0.113 -0.801,0.352 z m -13.879,4.422 c -0.25,0.644 -0.109,1.387 0.313,1.648 0.422,0.258 0.765,-0.269 0.765,-1.176 0,-1.933 -0.445,-2.125 -1.078,-0.472 z m 13.926,-0.031 c -0.641,0.769 -1.84,0.996 -3.699,0.695 -2.41,-0.395 -2.75,-0.238 -2.75,1.258 0,2.007 0.867,2.125 3.941,0.535 1.242,-0.641 2.473,-0.949 2.739,-0.688 0.574,0.575 2.921,-1.23 2.921,-2.242 0,-1.109 -2.109,-0.816 -3.152,0.442 z M 9.074,83.399 C 8.773,84.391 7.699,86.098 6.684,87.2 4.707,89.344 2.871,97.536 4.605,96.462 5.109,96.153 6.055,94.868 6.707,93.606 7.359,92.344 8.613,91.083 9.5,90.805 c 0.883,-0.281 1.828,-1.394 2.098,-2.476 0.273,-1.082 1.23,-2.481 2.129,-3.114 1.367,-0.953 1.468,-1.347 0.613,-2.378 -1.567,-1.891 -4.625,-1.563 -5.266,0.562 z M 28.492,82.2 c -0.254,0.492 -0.133,11.285 0.137,12.019 0.043,0.121 0.93,-0.34 1.969,-1.019 1.035,-0.68 2.476,-1.008 3.199,-0.731 0.73,0.278 1.312,0.11 1.312,-0.382 0,-0.489 -0.679,-0.887 -1.515,-0.887 -1.496,0 -2.485,-1.461 -2.485,-3.664 0,-0.625 0.7,-1.137 1.551,-1.137 2.266,0 2.813,-1.473 1.203,-3.25 -1.379,-1.523 -4.761,-2.121 -5.371,-0.949 z m 48.367,2.398 c 0.145,0.774 1.075,1.516 2.059,1.656 1.969,0.282 2.32,-0.605 0.832,-2.093 -1.434,-1.434 -3.195,-1.164 -2.891,0.437 z m -39.082,4.551 c 0.653,1.695 -0.738,4.449 -2.242,4.449 -1.441,0 -2.441,3.11 -1.351,4.199 0.582,0.579 1.539,0.543 3.132,-0.117 1.633,-0.676 2.922,-0.715 4.446,-0.136 1.976,0.75 2.148,0.656 2.148,-1.184 0,-1.383 -0.601,-2.227 -1.945,-2.738 -1.277,-0.489 -2.027,-1.485 -2.199,-2.918 -0.141,-1.2 -0.766,-2.348 -1.383,-2.551 -0.789,-0.262 -0.973,0.039 -0.606,0.996 z m 54.512,1.285 c -0.262,0.422 -0.301,0.766 -0.094,0.766 0.211,0 0.953,0.219 1.649,0.484 0.695,0.27 1.265,0.129 1.265,-0.312 0,-1.121 -2.246,-1.868 -2.82,-0.938 z m -80.684,4.199 c -0.91,0.664 -1.335,1.813 -1.164,3.149 l 0.27,2.101 2.312,-2 c 2.008,-1.738 2.161,-2.152 1.165,-3.148 -0.958,-0.957 -1.395,-0.973 -2.583,-0.102 z m -2.968,8.086 c -1.621,1.399 -2.176,2.778 -2.543,6.344 -0.281,2.731 -0.172,4.379 0.273,4.102 0.406,-0.254 0.742,-1.321 0.742,-2.375 0,-2.606 1.629,-5.989 2.883,-5.989 1.438,0 2.121,-1.379 1.36,-2.73 -0.528,-0.938 -1.008,-0.824 -2.715,0.648 z m 26.539,0.336 c -0.449,0.801 -0.426,1.875 0.066,2.789 0.754,1.418 0.871,1.422 2.332,0.098 1.981,-1.793 1.953,-3.246 -0.066,-3.773 -0.988,-0.258 -1.883,0.078 -2.332,0.886 z m 7.711,3.836 c -0.317,0.317 -0.578,1.25 -0.578,2.078 0,1.301 0.406,1.43 3,0.961 3.527,-0.636 3.949,-0.906 2.949,-1.886 -1.078,-1.055 -4.695,-1.829 -5.371,-1.153 z m -32.25,3.11 c -0.723,1.101 -1.121,2.742 -0.883,3.648 0.258,0.98 -0.008,1.816 -0.645,2.063 -1.621,0.621 -2.101,2.601 -1.093,4.492 0.875,1.633 0.937,1.636 2,0.187 0.601,-0.824 1.093,-2.418 1.097,-3.543 0,-1.129 0.731,-3.238 1.617,-4.695 2.43,-3.984 0.442,-6.024 -2.093,-2.152 z m 32.761,5.597 c -0.253,0.66 -0.234,1.789 0.043,2.512 0.457,1.191 0.641,1.18 2.082,-0.121 1.204,-1.094 1.368,-1.688 0.684,-2.512 -1.172,-1.41 -2.238,-1.367 -2.809,0.121 z m 7.711,4 c 0,0.66 0.539,1.203 1.2,1.203 0.66,0 1.199,-0.543 1.199,-1.203 0,-0.66 -0.539,-1.199 -1.199,-1.199 -0.661,0 -1.2,0.539 -1.2,1.199 z m -38.769,6.114 c -1.5,1.781 -2.043,3.238 -1.871,5 0.32,3.316 1.566,3.156 2.453,-0.313 0.394,-1.539 1.41,-3.547 2.262,-4.457 1.41,-1.52 1.347,-2.742 -0.137,-2.742 -0.328,0 -1.547,1.129 -2.707,2.512 z m 47.57,3.488 c 0,0.734 0.449,1.183 1,1 1.133,-0.379 1.008,-1.664 -0.199,-2.067 -0.441,-0.148 -0.801,0.332 -0.801,1.067 z m 0.184,6.949 c 0.492,1.484 2.215,1.73 2.215,0.316 0,-0.695 -0.571,-1.265 -1.266,-1.265 -0.695,0 -1.125,0.426 -0.949,0.949 z m -45.805,4.305 c -0.43,1.129 -0.781,2.269 -0.781,2.535 0,0.265 -0.57,1.117 -1.27,1.89 -0.812,0.895 -1.074,2.028 -0.73,3.122 0.519,1.636 0.617,1.652 2.074,0.332 0.84,-0.758 1.527,-2.325 1.527,-3.481 0,-1.152 0.528,-2.848 1.172,-3.769 1.129,-1.61 0.918,-2.684 -0.523,-2.684 -0.379,0 -1.039,0.926 -1.469,2.055 z m 5.793,10.871 c 0.199,0.59 1,1.199 1.785,1.351 0.914,0.176 1.297,-0.113 1.067,-0.8 -0.196,-0.59 -1,-1.2 -1.782,-1.352 -0.914,-0.176 -1.297,0.109 -1.07,0.801 z m -3.746,4.644 c -0.828,0.914 -1.207,2.129 -0.906,2.91 0.472,1.239 0.633,1.231 2.097,-0.093 1.578,-1.43 2.188,-4.387 0.907,-4.387 -0.371,0 -1.317,0.707 -2.098,1.57 z m 5.172,5.7 c 0,1.949 1.871,1.671 2.262,-0.336 0.152,-0.789 -0.258,-1.332 -1,-1.332 -0.743,0 -1.262,0.683 -1.262,1.668 z m -1.199,5.531 c -0.653,1.054 0.304,2.554 1.257,1.965 0.969,-0.598 0.965,-2.766 -0.011,-2.766 -0.414,0 -0.973,0.359 -1.246,0.801 z m 3.968,9.797 c -0.785,2.039 -0.105,3.418 1.016,2.062 0.574,-0.691 0.656,-1.547 0.215,-2.262 -0.602,-0.972 -0.793,-0.941 -1.231,0.2 z" />
      </g>
    </g>
  </g>
</svg>
