<?xml version="1.0" encoding="UTF-8" standalone="no"?>
<!-- Created with Inkscape (http://www.inkscape.org/) -->

<svg
   xmlns:dc="http://purl.org/dc/elements/1.1/"
   xmlns:cc="http://creativecommons.org/ns#"
   xmlns:rdf="http://www.w3.org/1999/02/22-rdf-syntax-ns#"
   xmlns:svg="http://www.w3.org/2000/svg"
   xmlns="http://www.w3.org/2000/svg"
   xmlns:sodipodi="http://sodipodi.sourceforge.net/DTD/sodipodi-0.dtd"
   xmlns:inkscape="http://www.inkscape.org/namespaces/inkscape"
   width="355.70663"
   height="339.60529"
   viewBox="0 0 94.114045 89.853901"
   version="1.1"
   id="svg7002"
   inkscape:version="0.92.1 r15371"
   sodipodi:docname="dNlamina_dNveg_shoot_171002.svg">
  <defs
     id="defs6996">
    <clipPath
       id="clipPath7717"
       clipPathUnits="userSpaceOnUse">
      <path
         inkscape:connector-curvature="0"
         id="path7715"
         d="m 60.19,56.41 h 198.8 V 252.99 H 60.19 Z" />
    </clipPath>
    <clipPath
       id="clipPath7829"
       clipPathUnits="userSpaceOnUse">
      <path
         inkscape:connector-curvature="0"
         id="path7827"
         d="m 60.19,56.41 h 198.8 V 252.99 H 60.19 Z" />
    </clipPath>
  </defs>
  <sodipodi:namedview
     id="base"
     pagecolor="#ffffff"
     bordercolor="#666666"
     borderopacity="1.0"
     inkscape:pageopacity="0.0"
     inkscape:pageshadow="2"
     inkscape:zoom="0.35"
     inkscape:cx="-76.432401"
     inkscape:cy="-493.05446"
     inkscape:document-units="mm"
     inkscape:current-layer="layer1"
     showgrid="false"
     units="px"
     fit-margin-top="5"
     fit-margin-left="5"
     fit-margin-right="5"
     fit-margin-bottom="5"
     inkscape:window-width="1276"
     inkscape:window-height="1396"
     inkscape:window-x="1920"
     inkscape:window-y="20"
     inkscape:window-maximized="0" />
  <metadata
     id="metadata6999">
    <rdf:RDF>
      <cc:Work
         rdf:about="">
        <dc:format>image/svg+xml</dc:format>
        <dc:type
           rdf:resource="http://purl.org/dc/dcmitype/StillImage" />
        <dc:title></dc:title>
      </cc:Work>
    </rdf:RDF>
  </metadata>
  <g
     inkscape:label="Layer 1"
     inkscape:groupmode="layer"
     id="layer1"
     transform="translate(-0.5679775,71.474569)">
    <g
       transform="matrix(0.35277777,0,0,-0.35277777,-0.20742801,21.298215)"
       inkscape:label="dNlamina_dNveg_shoot_171002"
       id="g7555">
      <g
         id="g7557" />
      <g
         id="g7559" />
      <g
         id="g7561">
        <text
           id="text7565"
           style="font-variant:normal;font-weight:normal;font-size:12px;font-family:Symbol;-inkscape-font-specification:Symbol;writing-mode:lr-tb;fill:#000000;fill-opacity:1;fill-rule:nonzero;stroke:none"
           transform="matrix(1,0,0,-1,107.43,14.64)">
          <tspan
             id="tspan7563"
             y="0"
             x="0">∆</tspan>
        </text>
        <text
           id="text7569"
           style="font-variant:normal;font-weight:normal;font-size:12px;font-family:Helvetica;-inkscape-font-specification:Helvetica;writing-mode:lr-tb;fill:#000000;fill-opacity:1;fill-rule:nonzero;stroke:none"
           transform="matrix(1,0,0,-1,114.77,14.64)">
          <tspan
             id="tspan7567"
             y="0"
             x="0">N</tspan>
        </text>
        <text
           id="text7573"
           style="font-variant:normal;font-weight:normal;font-size:12px;font-family:Helvetica;-inkscape-font-specification:Helvetica;writing-mode:lr-tb;fill:#000000;fill-opacity:1;fill-rule:nonzero;stroke:none"
           transform="matrix(1,0,0,-1,123.44,14.64)">
          <tspan
             id="tspan7571"
             y="0"
             x="0">v</tspan>
        </text>
        <text
           id="text7577"
           style="font-variant:normal;font-weight:normal;font-size:12px;font-family:Helvetica;-inkscape-font-specification:Helvetica;writing-mode:lr-tb;fill:#000000;fill-opacity:1;fill-rule:nonzero;stroke:none"
           transform="matrix(1,0,0,-1,129.44,14.64)">
          <tspan
             id="tspan7575"
             y="0"
             x="0">e</tspan>
        </text>
        <text
           id="text7581"
           style="font-variant:normal;font-weight:normal;font-size:12px;font-family:Helvetica;-inkscape-font-specification:Helvetica;writing-mode:lr-tb;fill:#000000;fill-opacity:1;fill-rule:nonzero;stroke:none"
           transform="matrix(1,0,0,-1,136.11,14.64)">
          <tspan
             id="tspan7579"
             y="0"
             x="0">g</tspan>
        </text>
        <text
           id="text7585"
           style="font-variant:normal;font-weight:normal;font-size:12px;font-family:Helvetica;-inkscape-font-specification:Helvetica;writing-mode:lr-tb;fill:#000000;fill-opacity:1;fill-rule:nonzero;stroke:none"
           transform="matrix(1,0,0,-1,142.78,14.64)">
          <tspan
             id="tspan7583"
             sodipodi:role="line"
             y="0"
             x="0 3.336">,</tspan>
        </text>
        <text
           id="text7589"
           style="font-variant:normal;font-weight:normal;font-size:12px;font-family:Helvetica;-inkscape-font-specification:Helvetica;writing-mode:lr-tb;fill:#000000;fill-opacity:1;fill-rule:nonzero;stroke:none"
           transform="matrix(1,0,0,-1,149.45,14.64)">
          <tspan
             id="tspan7587"
             y="0"
             x="0">m</tspan>
        </text>
        <text
           id="text7593"
           style="font-variant:normal;font-weight:normal;font-size:12px;font-family:Helvetica;-inkscape-font-specification:Helvetica;writing-mode:lr-tb;fill:#000000;fill-opacity:1;fill-rule:nonzero;stroke:none"
           transform="matrix(1,0,0,-1,159.45,14.64)">
          <tspan
             id="tspan7591"
             y="0"
             x="0">g</tspan>
        </text>
        <text
           id="text7597"
           style="font-variant:normal;font-weight:normal;font-size:12px;font-family:Symbol;-inkscape-font-specification:Symbol;writing-mode:lr-tb;fill:#000000;fill-opacity:1;fill-rule:nonzero;stroke:none"
           transform="matrix(1,0,0,-1,168.34,14.64)">
          <tspan
             id="tspan7595"
             y="0"
             x="0">⋅</tspan>
        </text>
        <text
           id="text7601"
           style="font-variant:normal;font-weight:normal;font-size:12px;font-family:Helvetica;-inkscape-font-specification:Helvetica;writing-mode:lr-tb;fill:#000000;fill-opacity:1;fill-rule:nonzero;stroke:none"
           transform="matrix(1,0,0,-1,173.56,14.64)">
          <tspan
             id="tspan7599"
             y="0"
             x="0">s</tspan>
        </text>
        <text
           id="text7605"
           style="font-variant:normal;font-weight:normal;font-size:12px;font-family:Helvetica;-inkscape-font-specification:Helvetica;writing-mode:lr-tb;fill:#000000;fill-opacity:1;fill-rule:nonzero;stroke:none"
           transform="matrix(1,0,0,-1,179.56,14.64)">
          <tspan
             id="tspan7603"
             y="0"
             x="0">h</tspan>
        </text>
        <text
           id="text7609"
           style="font-variant:normal;font-weight:normal;font-size:12px;font-family:Helvetica;-inkscape-font-specification:Helvetica;writing-mode:lr-tb;fill:#000000;fill-opacity:1;fill-rule:nonzero;stroke:none"
           transform="matrix(1,0,0,-1,186.24,14.64)">
          <tspan
             id="tspan7607"
             y="0"
             x="0">o</tspan>
        </text>
        <text
           id="text7613"
           style="font-variant:normal;font-weight:normal;font-size:12px;font-family:Helvetica;-inkscape-font-specification:Helvetica;writing-mode:lr-tb;fill:#000000;fill-opacity:1;fill-rule:nonzero;stroke:none"
           transform="matrix(1,0,0,-1,192.91,14.64)">
          <tspan
             id="tspan7611"
             y="0"
             x="0">o</tspan>
        </text>
        <text
           id="text7617"
           style="font-variant:normal;font-weight:normal;font-size:12px;font-family:Helvetica;-inkscape-font-specification:Helvetica;writing-mode:lr-tb;fill:#000000;fill-opacity:1;fill-rule:nonzero;stroke:none"
           transform="matrix(1,0,0,-1,199.58,14.64)">
          <tspan
             id="tspan7615"
             y="0"
             x="0">t</tspan>
        </text>
        <text
           id="text7621"
           style="font-variant:normal;font-weight:normal;font-size:8px;font-family:Symbol;-inkscape-font-specification:Symbol;writing-mode:lr-tb;fill:#000000;fill-opacity:1;fill-rule:nonzero;stroke:none"
           transform="matrix(1,0,0,-1,202.92,20.6)">
          <tspan
             id="tspan7619"
             y="0"
             x="0">−</tspan>
        </text>
        <text
           id="text7625"
           style="font-variant:normal;font-weight:normal;font-size:8px;font-family:Helvetica;-inkscape-font-specification:Helvetica;writing-mode:lr-tb;fill:#000000;fill-opacity:1;fill-rule:nonzero;stroke:none"
           transform="matrix(1,0,0,-1,207.31,20.6)">
          <tspan
             id="tspan7623"
             y="0"
             x="0">1</tspan>
        </text>
      </g>
      <g
         id="g7627">
        <text
           id="text7631"
           style="font-variant:normal;font-weight:normal;font-size:12px;font-family:Symbol;-inkscape-font-specification:Symbol;writing-mode:lr-tb;fill:#000000;fill-opacity:1;fill-rule:nonzero;stroke:none"
           transform="matrix(0,1,1,0,17.59,94.54)">
          <tspan
             id="tspan7629"
             y="0"
             x="0">∆</tspan>
        </text>
        <text
           id="text7635"
           style="font-variant:normal;font-weight:normal;font-size:12px;font-family:Helvetica;-inkscape-font-specification:Helvetica;writing-mode:lr-tb;fill:#000000;fill-opacity:1;fill-rule:nonzero;stroke:none"
           transform="matrix(0,1,1,0,17.59,101.89)">
          <tspan
             id="tspan7633"
             y="0"
             x="0">N</tspan>
        </text>
        <text
           id="text7639"
           style="font-variant:normal;font-weight:normal;font-size:12px;font-family:Helvetica;-inkscape-font-specification:Helvetica;writing-mode:lr-tb;fill:#000000;fill-opacity:1;fill-rule:nonzero;stroke:none"
           transform="matrix(0,1,1,0,17.59,110.55)">
          <tspan
             id="tspan7637"
             y="0"
             x="0">l</tspan>
        </text>
        <text
           id="text7643"
           style="font-variant:normal;font-weight:normal;font-size:12px;font-family:Helvetica;-inkscape-font-specification:Helvetica;writing-mode:lr-tb;fill:#000000;fill-opacity:1;fill-rule:nonzero;stroke:none"
           transform="matrix(0,1,1,0,17.59,113.21)">
          <tspan
             id="tspan7641"
             y="0"
             x="0">a</tspan>
        </text>
        <text
           id="text7647"
           style="font-variant:normal;font-weight:normal;font-size:12px;font-family:Helvetica;-inkscape-font-specification:Helvetica;writing-mode:lr-tb;fill:#000000;fill-opacity:1;fill-rule:nonzero;stroke:none"
           transform="matrix(0,1,1,0,17.59,119.89)">
          <tspan
             id="tspan7645"
             y="0"
             x="0">m</tspan>
        </text>
        <text
           id="text7651"
           style="font-variant:normal;font-weight:normal;font-size:12px;font-family:Helvetica;-inkscape-font-specification:Helvetica;writing-mode:lr-tb;fill:#000000;fill-opacity:1;fill-rule:nonzero;stroke:none"
           transform="matrix(0,1,1,0,17.59,129.88)">
          <tspan
             id="tspan7649"
             y="0"
             x="0">i</tspan>
        </text>
        <text
           id="text7655"
           style="font-variant:normal;font-weight:normal;font-size:12px;font-family:Helvetica;-inkscape-font-specification:Helvetica;writing-mode:lr-tb;fill:#000000;fill-opacity:1;fill-rule:nonzero;stroke:none"
           transform="matrix(0,1,1,0,17.59,132.55)">
          <tspan
             id="tspan7653"
             y="0"
             x="0">n</tspan>
        </text>
        <text
           id="text7659"
           style="font-variant:normal;font-weight:normal;font-size:12px;font-family:Helvetica;-inkscape-font-specification:Helvetica;writing-mode:lr-tb;fill:#000000;fill-opacity:1;fill-rule:nonzero;stroke:none"
           transform="matrix(0,1,1,0,17.59,139.22)">
          <tspan
             id="tspan7657"
             y="0"
             x="0">a</tspan>
        </text>
        <text
           id="text7663"
           style="font-variant:normal;font-weight:normal;font-size:12px;font-family:Helvetica;-inkscape-font-specification:Helvetica;writing-mode:lr-tb;fill:#000000;fill-opacity:1;fill-rule:nonzero;stroke:none"
           transform="matrix(0,1,1,0,17.59,145.89)">
          <tspan
             id="tspan7661"
             sodipodi:role="line"
             y="0"
             x="0 3.336">,</tspan>
        </text>
        <text
           id="text7667"
           style="font-variant:normal;font-weight:normal;font-size:12px;font-family:Helvetica;-inkscape-font-specification:Helvetica;writing-mode:lr-tb;fill:#000000;fill-opacity:1;fill-rule:nonzero;stroke:none"
           transform="matrix(0,1,1,0,17.59,152.56)">
          <tspan
             id="tspan7665"
             y="0"
             x="0">m</tspan>
        </text>
        <text
           id="text7671"
           style="font-variant:normal;font-weight:normal;font-size:12px;font-family:Helvetica;-inkscape-font-specification:Helvetica;writing-mode:lr-tb;fill:#000000;fill-opacity:1;fill-rule:nonzero;stroke:none"
           transform="matrix(0,1,1,0,17.59,162.56)">
          <tspan
             id="tspan7669"
             y="0"
             x="0">g</tspan>
        </text>
        <text
           id="text7675"
           style="font-variant:normal;font-weight:normal;font-size:12px;font-family:Symbol;-inkscape-font-specification:Symbol;writing-mode:lr-tb;fill:#000000;fill-opacity:1;fill-rule:nonzero;stroke:none"
           transform="matrix(0,1,1,0,17.59,171.45)">
          <tspan
             id="tspan7673"
             y="0"
             x="0">⋅</tspan>
        </text>
        <text
           id="text7679"
           style="font-variant:normal;font-weight:normal;font-size:12px;font-family:Helvetica;-inkscape-font-specification:Helvetica;writing-mode:lr-tb;fill:#000000;fill-opacity:1;fill-rule:nonzero;stroke:none"
           transform="matrix(0,1,1,0,17.59,176.67)">
          <tspan
             id="tspan7677"
             y="0"
             x="0">s</tspan>
        </text>
        <text
           id="text7683"
           style="font-variant:normal;font-weight:normal;font-size:12px;font-family:Helvetica;-inkscape-font-specification:Helvetica;writing-mode:lr-tb;fill:#000000;fill-opacity:1;fill-rule:nonzero;stroke:none"
           transform="matrix(0,1,1,0,17.59,182.67)">
          <tspan
             id="tspan7681"
             y="0"
             x="0">h</tspan>
        </text>
        <text
           id="text7687"
           style="font-variant:normal;font-weight:normal;font-size:12px;font-family:Helvetica;-inkscape-font-specification:Helvetica;writing-mode:lr-tb;fill:#000000;fill-opacity:1;fill-rule:nonzero;stroke:none"
           transform="matrix(0,1,1,0,17.59,189.34)">
          <tspan
             id="tspan7685"
             y="0"
             x="0">o</tspan>
        </text>
        <text
           id="text7691"
           style="font-variant:normal;font-weight:normal;font-size:12px;font-family:Helvetica;-inkscape-font-specification:Helvetica;writing-mode:lr-tb;fill:#000000;fill-opacity:1;fill-rule:nonzero;stroke:none"
           transform="matrix(0,1,1,0,17.59,196.02)">
          <tspan
             id="tspan7689"
             y="0"
             x="0">o</tspan>
        </text>
        <text
           id="text7695"
           style="font-variant:normal;font-weight:normal;font-size:12px;font-family:Helvetica;-inkscape-font-specification:Helvetica;writing-mode:lr-tb;fill:#000000;fill-opacity:1;fill-rule:nonzero;stroke:none"
           transform="matrix(0,1,1,0,17.59,202.69)">
          <tspan
             id="tspan7693"
             y="0"
             x="0">t</tspan>
        </text>
        <text
           id="text7699"
           style="font-variant:normal;font-weight:normal;font-size:8px;font-family:Symbol;-inkscape-font-specification:Symbol;writing-mode:lr-tb;fill:#000000;fill-opacity:1;fill-rule:nonzero;stroke:none"
           transform="matrix(0,1,1,0,11.62,206.02)">
          <tspan
             id="tspan7697"
             y="0"
             x="0">−</tspan>
        </text>
        <text
           id="text7703"
           style="font-variant:normal;font-weight:normal;font-size:8px;font-family:Helvetica;-inkscape-font-specification:Helvetica;writing-mode:lr-tb;fill:#000000;fill-opacity:1;fill-rule:nonzero;stroke:none"
           transform="matrix(0,1,1,0,11.62,210.42)">
          <tspan
             id="tspan7701"
             y="0"
             x="0">1</tspan>
        </text>
      </g>
      <g
         id="g7705" />
      <g
         id="g7707" />
      <g
         id="g7709" />
      <g
         id="g7711">
        <g
           clip-path="url(#clipPath7717)"
           id="g7713">
          <path
             inkscape:connector-curvature="0"
             id="path7719"
             style="fill:#ffffff;fill-opacity:1;fill-rule:nonzero;stroke:none"
             d="m 60.19,56.41 h 198.8 V 252.99 H 60.19 Z" />
        </g>
      </g>
      <g
         id="g7721" />
      <g
         id="g7723">
        <path
           inkscape:connector-curvature="0"
           id="path7725"
           style="fill:none;stroke:#a6a6a6;stroke-width:1.12;stroke-linecap:round;stroke-linejoin:round;stroke-miterlimit:10;stroke-dasharray:none;stroke-opacity:1"
           d="m 72.4,252.99 v 5.67" />
        <path
           inkscape:connector-curvature="0"
           id="path7727"
           style="fill:none;stroke:#a6a6a6;stroke-width:1.12;stroke-linecap:round;stroke-linejoin:round;stroke-miterlimit:10;stroke-dasharray:none;stroke-opacity:1"
           d="m 123.77,252.99 v 5.67" />
        <path
           inkscape:connector-curvature="0"
           id="path7729"
           style="fill:none;stroke:#a6a6a6;stroke-width:1.12;stroke-linecap:round;stroke-linejoin:round;stroke-miterlimit:10;stroke-dasharray:none;stroke-opacity:1"
           d="m 175.14,252.99 v 5.67" />
        <path
           inkscape:connector-curvature="0"
           id="path7731"
           style="fill:none;stroke:#a6a6a6;stroke-width:1.12;stroke-linecap:round;stroke-linejoin:round;stroke-miterlimit:10;stroke-dasharray:none;stroke-opacity:1"
           d="m 226.51,252.99 v 5.67" />
      </g>
      <g
         id="g7733" />
      <g
         id="g7735">
        <path
           inkscape:connector-curvature="0"
           id="path7737"
           style="fill:none;stroke:#a6a6a6;stroke-width:1.12;stroke-linecap:round;stroke-linejoin:round;stroke-miterlimit:10;stroke-dasharray:none;stroke-opacity:1"
           d="M 60.19,68.48 H 54.52" />
        <path
           inkscape:connector-curvature="0"
           id="path7739"
           style="fill:none;stroke:#a6a6a6;stroke-width:1.12;stroke-linecap:round;stroke-linejoin:round;stroke-miterlimit:10;stroke-dasharray:none;stroke-opacity:1"
           d="M 60.19,96.28 H 54.52" />
        <path
           inkscape:connector-curvature="0"
           id="path7741"
           style="fill:none;stroke:#a6a6a6;stroke-width:1.12;stroke-linecap:round;stroke-linejoin:round;stroke-miterlimit:10;stroke-dasharray:none;stroke-opacity:1"
           d="M 60.19,124.07 H 54.52" />
        <path
           inkscape:connector-curvature="0"
           id="path7743"
           style="fill:none;stroke:#a6a6a6;stroke-width:1.12;stroke-linecap:round;stroke-linejoin:round;stroke-miterlimit:10;stroke-dasharray:none;stroke-opacity:1"
           d="M 60.19,151.87 H 54.52" />
        <path
           inkscape:connector-curvature="0"
           id="path7745"
           style="fill:none;stroke:#a6a6a6;stroke-width:1.12;stroke-linecap:round;stroke-linejoin:round;stroke-miterlimit:10;stroke-dasharray:none;stroke-opacity:1"
           d="M 60.19,179.66 H 54.52" />
        <path
           inkscape:connector-curvature="0"
           id="path7747"
           style="fill:none;stroke:#a6a6a6;stroke-width:1.12;stroke-linecap:round;stroke-linejoin:round;stroke-miterlimit:10;stroke-dasharray:none;stroke-opacity:1"
           d="M 60.19,207.45 H 54.52" />
        <path
           inkscape:connector-curvature="0"
           id="path7749"
           style="fill:none;stroke:#a6a6a6;stroke-width:1.12;stroke-linecap:round;stroke-linejoin:round;stroke-miterlimit:10;stroke-dasharray:none;stroke-opacity:1"
           d="M 60.19,235.25 H 54.52" />
        <text
           id="text7753"
           style="font-variant:normal;font-weight:normal;font-size:10px;font-family:Helvetica;-inkscape-font-specification:Helvetica;writing-mode:lr-tb;fill:#000000;fill-opacity:1;fill-rule:nonzero;stroke:none"
           transform="matrix(1,0,0,-1,43.3,64.89)">
          <tspan
             id="tspan7751"
             y="0"
             x="0">0</tspan>
        </text>
        <text
           id="text7757"
           style="font-variant:normal;font-weight:normal;font-size:10px;font-family:Helvetica;-inkscape-font-specification:Helvetica;writing-mode:lr-tb;fill:#000000;fill-opacity:1;fill-rule:nonzero;stroke:none"
           transform="matrix(1,0,0,-1,37.46,92.69)">
          <tspan
             id="tspan7755"
             sodipodi:role="line"
             y="0"
             x="0 5.8400002">−2</tspan>
        </text>
        <text
           id="text7761"
           style="font-variant:normal;font-weight:normal;font-size:10px;font-family:Helvetica;-inkscape-font-specification:Helvetica;writing-mode:lr-tb;fill:#000000;fill-opacity:1;fill-rule:nonzero;stroke:none"
           transform="matrix(1,0,0,-1,37.46,120.48)">
          <tspan
             id="tspan7759"
             sodipodi:role="line"
             y="0"
             x="0 5.8400002">−4</tspan>
        </text>
        <text
           id="text7765"
           style="font-variant:normal;font-weight:normal;font-size:10px;font-family:Helvetica;-inkscape-font-specification:Helvetica;writing-mode:lr-tb;fill:#000000;fill-opacity:1;fill-rule:nonzero;stroke:none"
           transform="matrix(1,0,0,-1,37.46,148.28)">
          <tspan
             id="tspan7763"
             sodipodi:role="line"
             y="0"
             x="0 5.8400002">−6</tspan>
        </text>
        <text
           id="text7769"
           style="font-variant:normal;font-weight:normal;font-size:10px;font-family:Helvetica;-inkscape-font-specification:Helvetica;writing-mode:lr-tb;fill:#000000;fill-opacity:1;fill-rule:nonzero;stroke:none"
           transform="matrix(1,0,0,-1,37.46,176.07)">
          <tspan
             id="tspan7767"
             sodipodi:role="line"
             y="0"
             x="0 5.8400002">−8</tspan>
        </text>
        <text
           id="text7773"
           style="font-variant:normal;font-weight:normal;font-size:10px;font-family:Helvetica;-inkscape-font-specification:Helvetica;writing-mode:lr-tb;fill:#000000;fill-opacity:1;fill-rule:nonzero;stroke:none"
           transform="matrix(1,0,0,-1,31.9,203.86)">
          <tspan
             id="tspan7771"
             sodipodi:role="line"
             y="0"
             x="0 5.8400002 11.4">−10</tspan>
        </text>
        <text
           id="text7777"
           style="font-variant:normal;font-weight:normal;font-size:10px;font-family:Helvetica;-inkscape-font-specification:Helvetica;writing-mode:lr-tb;fill:#000000;fill-opacity:1;fill-rule:nonzero;stroke:none"
           transform="matrix(1,0,0,-1,31.9,231.66)">
          <tspan
             id="tspan7775"
             sodipodi:role="line"
             y="0"
             x="0 5.8400002 11.4">−12</tspan>
        </text>
      </g>
      <g
         id="g7779" />
      <g
         id="g7781">
        <path
           inkscape:connector-curvature="0"
           id="path7783"
           style="fill:none;stroke:#a6a6a6;stroke-width:1.12;stroke-linecap:round;stroke-linejoin:round;stroke-miterlimit:10;stroke-dasharray:none;stroke-opacity:1"
           d="M 72.4,56.41 V 50.74" />
        <path
           inkscape:connector-curvature="0"
           id="path7785"
           style="fill:none;stroke:#a6a6a6;stroke-width:1.12;stroke-linecap:round;stroke-linejoin:round;stroke-miterlimit:10;stroke-dasharray:none;stroke-opacity:1"
           d="M 123.77,56.41 V 50.74" />
        <path
           inkscape:connector-curvature="0"
           id="path7787"
           style="fill:none;stroke:#a6a6a6;stroke-width:1.12;stroke-linecap:round;stroke-linejoin:round;stroke-miterlimit:10;stroke-dasharray:none;stroke-opacity:1"
           d="M 175.14,56.41 V 50.74" />
        <path
           inkscape:connector-curvature="0"
           id="path7789"
           style="fill:none;stroke:#a6a6a6;stroke-width:1.12;stroke-linecap:round;stroke-linejoin:round;stroke-miterlimit:10;stroke-dasharray:none;stroke-opacity:1"
           d="M 226.51,56.41 V 50.74" />
        <text
           id="text7793"
           style="font-variant:normal;font-weight:normal;font-size:10px;font-family:Helvetica;-inkscape-font-specification:Helvetica;writing-mode:lr-tb;fill:#000000;fill-opacity:1;fill-rule:nonzero;stroke:none"
           transform="matrix(1,0,0,-1,66.7,37.9)">
          <tspan
             id="tspan7791"
             sodipodi:role="line"
             y="0"
             x="0 5.8400002">−5</tspan>
        </text>
        <text
           id="text7797"
           style="font-variant:normal;font-weight:normal;font-size:10px;font-family:Helvetica;-inkscape-font-specification:Helvetica;writing-mode:lr-tb;fill:#000000;fill-opacity:1;fill-rule:nonzero;stroke:none"
           transform="matrix(1,0,0,-1,115.29,37.9)">
          <tspan
             id="tspan7795"
             sodipodi:role="line"
             y="0"
             x="0 5.8400002 11.4">−10</tspan>
        </text>
        <text
           id="text7801"
           style="font-variant:normal;font-weight:normal;font-size:10px;font-family:Helvetica;-inkscape-font-specification:Helvetica;writing-mode:lr-tb;fill:#000000;fill-opacity:1;fill-rule:nonzero;stroke:none"
           transform="matrix(1,0,0,-1,166.66,37.9)">
          <tspan
             id="tspan7799"
             sodipodi:role="line"
             y="0"
             x="0 5.8400002 11.4">−15</tspan>
        </text>
        <text
           id="text7805"
           style="font-variant:normal;font-weight:normal;font-size:10px;font-family:Helvetica;-inkscape-font-specification:Helvetica;writing-mode:lr-tb;fill:#000000;fill-opacity:1;fill-rule:nonzero;stroke:none"
           transform="matrix(1,0,0,-1,218.03,37.9)">
          <tspan
             id="tspan7803"
             sodipodi:role="line"
             y="0"
             x="0 5.8400002 11.4">−20</tspan>
        </text>
        <path
           inkscape:connector-curvature="0"
           id="path7807"
           style="fill:none;stroke:#a6a6a6;stroke-width:1.12;stroke-linecap:round;stroke-linejoin:round;stroke-miterlimit:10;stroke-dasharray:none;stroke-opacity:1"
           d="m 258.99,68.48 h 5.67" />
        <path
           inkscape:connector-curvature="0"
           id="path7809"
           style="fill:none;stroke:#a6a6a6;stroke-width:1.12;stroke-linecap:round;stroke-linejoin:round;stroke-miterlimit:10;stroke-dasharray:none;stroke-opacity:1"
           d="m 258.99,96.28 h 5.67" />
        <path
           inkscape:connector-curvature="0"
           id="path7811"
           style="fill:none;stroke:#a6a6a6;stroke-width:1.12;stroke-linecap:round;stroke-linejoin:round;stroke-miterlimit:10;stroke-dasharray:none;stroke-opacity:1"
           d="m 258.99,124.07 h 5.67" />
        <path
           inkscape:connector-curvature="0"
           id="path7813"
           style="fill:none;stroke:#a6a6a6;stroke-width:1.12;stroke-linecap:round;stroke-linejoin:round;stroke-miterlimit:10;stroke-dasharray:none;stroke-opacity:1"
           d="m 258.99,151.87 h 5.67" />
        <path
           inkscape:connector-curvature="0"
           id="path7815"
           style="fill:none;stroke:#a6a6a6;stroke-width:1.12;stroke-linecap:round;stroke-linejoin:round;stroke-miterlimit:10;stroke-dasharray:none;stroke-opacity:1"
           d="m 258.99,179.66 h 5.67" />
        <path
           inkscape:connector-curvature="0"
           id="path7817"
           style="fill:none;stroke:#a6a6a6;stroke-width:1.12;stroke-linecap:round;stroke-linejoin:round;stroke-miterlimit:10;stroke-dasharray:none;stroke-opacity:1"
           d="m 258.99,207.45 h 5.67" />
        <path
           inkscape:connector-curvature="0"
           id="path7819"
           style="fill:none;stroke:#a6a6a6;stroke-width:1.12;stroke-linecap:round;stroke-linejoin:round;stroke-miterlimit:10;stroke-dasharray:none;stroke-opacity:1"
           d="m 258.99,235.25 h 5.67" />
      </g>
      <g
         id="g7821" />
      <g
         id="g7823">
        <g
           clip-path="url(#clipPath7829)"
           id="g7825">
          <path
             inkscape:connector-curvature="0"
             id="path7831"
             style="fill:none;stroke:#e5e5e5;stroke-width:0.75;stroke-linecap:round;stroke-linejoin:round;stroke-miterlimit:10;stroke-dasharray:none;stroke-opacity:1"
             d="m 60.19,68.48 h 198.8" />
          <path
             inkscape:connector-curvature="0"
             id="path7833"
             style="fill:none;stroke:#e5e5e5;stroke-width:0.75;stroke-linecap:round;stroke-linejoin:round;stroke-miterlimit:10;stroke-dasharray:none;stroke-opacity:1"
             d="m 60.19,137.97 h 198.8" />
          <path
             inkscape:connector-curvature="0"
             id="path7835"
             style="fill:none;stroke:#e5e5e5;stroke-width:0.75;stroke-linecap:round;stroke-linejoin:round;stroke-miterlimit:10;stroke-dasharray:none;stroke-opacity:1"
             d="m 60.19,207.45 h 198.8" />
          <path
             inkscape:connector-curvature="0"
             id="path7837"
             style="fill:none;stroke:#e5e5e5;stroke-width:0.75;stroke-linecap:round;stroke-linejoin:round;stroke-miterlimit:10;stroke-dasharray:none;stroke-opacity:1"
             d="M 72.4,56.41 V 252.99" />
          <path
             inkscape:connector-curvature="0"
             id="path7839"
             style="fill:none;stroke:#e5e5e5;stroke-width:0.75;stroke-linecap:round;stroke-linejoin:round;stroke-miterlimit:10;stroke-dasharray:none;stroke-opacity:1"
             d="M 123.77,56.41 V 252.99" />
          <path
             inkscape:connector-curvature="0"
             id="path7841"
             style="fill:none;stroke:#e5e5e5;stroke-width:0.75;stroke-linecap:round;stroke-linejoin:round;stroke-miterlimit:10;stroke-dasharray:none;stroke-opacity:1"
             d="M 175.14,56.41 V 252.99" />
          <path
             inkscape:connector-curvature="0"
             id="path7843"
             style="fill:none;stroke:#e5e5e5;stroke-width:0.75;stroke-linecap:round;stroke-linejoin:round;stroke-miterlimit:10;stroke-dasharray:none;stroke-opacity:1"
             d="M 226.51,56.41 V 252.99" />
          <path
             inkscape:connector-curvature="0"
             id="path7845"
             style="fill:none;stroke:#458b00;stroke-width:1.5;stroke-linecap:round;stroke-linejoin:round;stroke-miterlimit:10;stroke-dasharray:none;stroke-opacity:0.8"
             d="m 179.96,222.1 c 0,1.98 1.62,3.6 3.6,3.6 1.98,0 3.6,-1.62 3.6,-3.6 0,-1.98 -1.62,-3.6 -3.6,-3.6 -1.98,0 -3.6,1.62 -3.6,3.6" />
          <path
             inkscape:connector-curvature="0"
             id="path7847"
             style="fill:none;stroke:#458b00;stroke-width:1.5;stroke-linecap:round;stroke-linejoin:round;stroke-miterlimit:10;stroke-dasharray:none;stroke-opacity:0.8"
             d="m 225.86,225.07 c 0,1.98 1.62,3.6 3.6,3.6 1.98,0 3.6,-1.62 3.6,-3.6 0,-1.98 -1.62,-3.6 -3.6,-3.6 -1.98,0 -3.6,1.62 -3.6,3.6" />
          <path
             inkscape:connector-curvature="0"
             id="path7849"
             style="fill:none;stroke:#458b00;stroke-width:1.5;stroke-linecap:round;stroke-linejoin:round;stroke-miterlimit:10;stroke-dasharray:none;stroke-opacity:0.8"
             d="m 201.99,226.53 c 0,1.98 1.62,3.6 3.6,3.6 1.98,0 3.6,-1.62 3.6,-3.6 0,-1.98 -1.62,-3.6 -3.6,-3.6 -1.98,0 -3.6,1.62 -3.6,3.6" />
          <path
             inkscape:connector-curvature="0"
             id="path7851"
             style="fill:none;stroke:#458b00;stroke-width:1.5;stroke-linecap:round;stroke-linejoin:round;stroke-miterlimit:10;stroke-dasharray:none;stroke-opacity:0.8"
             d="m 201.09,223.03 4.85,-8.39 h -9.7 l 4.85,8.39" />
          <path
             inkscape:connector-curvature="0"
             id="path7853"
             style="fill:none;stroke:#458b00;stroke-width:1.5;stroke-linecap:round;stroke-linejoin:round;stroke-miterlimit:10;stroke-dasharray:none;stroke-opacity:0.8"
             d="m 172.99,208.25 4.85,-8.4 h -9.7 l 4.85,8.4" />
          <path
             inkscape:connector-curvature="0"
             id="path7855"
             style="fill:none;stroke:#458b00;stroke-width:1.5;stroke-linecap:round;stroke-linejoin:round;stroke-miterlimit:10;stroke-dasharray:none;stroke-opacity:0.8"
             d="m 191.13,223.96 4.85,-8.4 h -9.7 l 4.85,8.4" />
          <path
             inkscape:connector-curvature="0"
             id="path7857"
             style="fill:#458b00;fill-opacity:0.8;fill-rule:nonzero;stroke:#458b00;stroke-width:1.5;stroke-linecap:round;stroke-linejoin:round;stroke-miterlimit:10;stroke-dasharray:none;stroke-opacity:0.8"
             d="m 152.49,187.72 c 0,1.98 1.62,3.6 3.6,3.6 1.98,0 3.6,-1.62 3.6,-3.6 0,-1.98 -1.62,-3.6 -3.6,-3.6 -1.98,0 -3.6,1.62 -3.6,3.6" />
          <path
             inkscape:connector-curvature="0"
             id="path7859"
             style="fill:#458b00;fill-opacity:0.8;fill-rule:nonzero;stroke:#458b00;stroke-width:1.5;stroke-linecap:round;stroke-linejoin:round;stroke-miterlimit:10;stroke-dasharray:none;stroke-opacity:0.8"
             d="m 203.75,216.98 c 0,1.98 1.62,3.6 3.6,3.6 1.98,0 3.6,-1.62 3.6,-3.6 0,-1.98 -1.62,-3.6 -3.6,-3.6 -1.98,0 -3.6,1.62 -3.6,3.6" />
          <path
             inkscape:connector-curvature="0"
             id="path7861"
             style="fill:#458b00;fill-opacity:0.8;fill-rule:nonzero;stroke:#458b00;stroke-width:1.5;stroke-linecap:round;stroke-linejoin:round;stroke-miterlimit:10;stroke-dasharray:none;stroke-opacity:0.8"
             d="m 173.59,200.77 c 0,1.98 1.62,3.6 3.6,3.6 1.98,0 3.6,-1.62 3.6,-3.6 0,-1.98 -1.62,-3.6 -3.6,-3.6 -1.98,0 -3.6,1.62 -3.6,3.6" />
          <path
             inkscape:connector-curvature="0"
             id="path7863"
             style="fill:#458b00;fill-opacity:0.8;fill-rule:nonzero;stroke:none"
             d="m 196,218.57 4.85,-8.39 h -9.7 z" />
          <path
             inkscape:connector-curvature="0"
             id="path7865"
             style="fill:#458b00;fill-opacity:0.8;fill-rule:nonzero;stroke:none"
             d="m 199.33,217.18 4.85,-8.4 h -9.7 z" />
          <path
             inkscape:connector-curvature="0"
             id="path7867"
             style="fill:#458b00;fill-opacity:0.8;fill-rule:nonzero;stroke:none"
             d="m 211.74,217.56 4.84,-8.39 h -9.69 z" />
          <path
             inkscape:connector-curvature="0"
             id="path7869"
             style="fill:none;stroke:#ee7621;stroke-width:1.5;stroke-linecap:round;stroke-linejoin:round;stroke-miterlimit:10;stroke-dasharray:none;stroke-opacity:0.8"
             d="m 167.96,238.47 c 0,1.98 1.62,3.6 3.6,3.6 1.98,0 3.6,-1.62 3.6,-3.6 0,-1.98 -1.62,-3.6 -3.6,-3.6 -1.98,0 -3.6,1.62 -3.6,3.6" />
          <path
             inkscape:connector-curvature="0"
             id="path7871"
             style="fill:none;stroke:#ee7621;stroke-width:1.5;stroke-linecap:round;stroke-linejoin:round;stroke-miterlimit:10;stroke-dasharray:none;stroke-opacity:0.8"
             d="m 170.1,230.01 c 0,1.98 1.62,3.6 3.6,3.6 1.98,0 3.6,-1.62 3.6,-3.6 0,-1.98 -1.62,-3.6 -3.6,-3.6 -1.98,0 -3.6,1.62 -3.6,3.6" />
          <path
             inkscape:connector-curvature="0"
             id="path7873"
             style="fill:none;stroke:#ee7621;stroke-width:1.5;stroke-linecap:round;stroke-linejoin:round;stroke-miterlimit:10;stroke-dasharray:none;stroke-opacity:0.8"
             d="m 165.71,224.83 c 0,1.98 1.62,3.6 3.6,3.6 1.98,0 3.6,-1.62 3.6,-3.6 0,-1.98 -1.62,-3.6 -3.6,-3.6 -1.98,0 -3.6,1.62 -3.6,3.6" />
          <path
             inkscape:connector-curvature="0"
             id="path7875"
             style="fill:none;stroke:#ee7621;stroke-width:1.5;stroke-linecap:round;stroke-linejoin:round;stroke-miterlimit:10;stroke-dasharray:none;stroke-opacity:0.8"
             d="m 190.05,240.44 4.85,-8.4 h -9.7 l 4.85,8.4" />
          <path
             inkscape:connector-curvature="0"
             id="path7877"
             style="fill:none;stroke:#ee7621;stroke-width:1.5;stroke-linecap:round;stroke-linejoin:round;stroke-miterlimit:10;stroke-dasharray:none;stroke-opacity:0.8"
             d="m 215.42,246.52 4.85,-8.4 h -9.7 l 4.85,8.4" />
          <path
             inkscape:connector-curvature="0"
             id="path7879"
             style="fill:none;stroke:#ee7621;stroke-width:1.5;stroke-linecap:round;stroke-linejoin:round;stroke-miterlimit:10;stroke-dasharray:none;stroke-opacity:0.8"
             d="m 195.32,238.54 4.85,-8.4 h -9.7 l 4.85,8.4" />
          <path
             inkscape:connector-curvature="0"
             id="path7881"
             style="fill:#ee7621;fill-opacity:0.8;fill-rule:nonzero;stroke:#ee7621;stroke-width:1.5;stroke-linecap:round;stroke-linejoin:round;stroke-miterlimit:10;stroke-dasharray:none;stroke-opacity:0.8"
             d="m 137.88,193 c 0,1.98 1.62,3.6 3.6,3.6 1.98,0 3.6,-1.62 3.6,-3.6 0,-1.98 -1.62,-3.6 -3.6,-3.6 -1.98,0 -3.6,1.62 -3.6,3.6" />
          <path
             inkscape:connector-curvature="0"
             id="path7883"
             style="fill:#ee7621;fill-opacity:0.8;fill-rule:nonzero;stroke:#ee7621;stroke-width:1.5;stroke-linecap:round;stroke-linejoin:round;stroke-miterlimit:10;stroke-dasharray:none;stroke-opacity:0.8"
             d="m 112.76,179.81 c 0,1.98 1.62,3.6 3.6,3.6 1.98,0 3.6,-1.62 3.6,-3.6 0,-1.98 -1.62,-3.6 -3.6,-3.6 -1.98,0 -3.6,1.62 -3.6,3.6" />
          <path
             inkscape:connector-curvature="0"
             id="path7885"
             style="fill:#ee7621;fill-opacity:0.8;fill-rule:nonzero;stroke:#ee7621;stroke-width:1.5;stroke-linecap:round;stroke-linejoin:round;stroke-miterlimit:10;stroke-dasharray:none;stroke-opacity:0.8"
             d="m 139.75,181.86 c 0,1.98 1.62,3.6 3.6,3.6 1.98,0 3.6,-1.62 3.6,-3.6 0,-1.98 -1.62,-3.6 -3.6,-3.6 -1.98,0 -3.6,1.62 -3.6,3.6" />
          <path
             inkscape:connector-curvature="0"
             id="path7887"
             style="fill:#ee7621;fill-opacity:0.8;fill-rule:nonzero;stroke:none"
             d="m 201.49,227.5 4.85,-8.4 h -9.7 z" />
          <path
             inkscape:connector-curvature="0"
             id="path7889"
             style="fill:#ee7621;fill-opacity:0.8;fill-rule:nonzero;stroke:none"
             d="m 135.22,208.22 4.84,-8.4 h -9.69 z" />
          <path
             inkscape:connector-curvature="0"
             id="path7891"
             style="fill:#ee7621;fill-opacity:0.8;fill-rule:nonzero;stroke:none"
             d="m 200.23,227.02 4.84,-8.4 h -9.69 z" />
          <path
             inkscape:connector-curvature="0"
             id="path7893"
             style="fill:none;stroke:#6495ed;stroke-width:1.5;stroke-linecap:round;stroke-linejoin:round;stroke-miterlimit:10;stroke-dasharray:none;stroke-opacity:0.8"
             d="m 238.43,203.56 c 0,1.98 1.62,3.6 3.6,3.6 1.98,0 3.6,-1.62 3.6,-3.6 0,-1.98 -1.62,-3.6 -3.6,-3.6 -1.98,0 -3.6,1.62 -3.6,3.6" />
          <path
             inkscape:connector-curvature="0"
             id="path7895"
             style="fill:none;stroke:#6495ed;stroke-width:1.5;stroke-linecap:round;stroke-linejoin:round;stroke-miterlimit:10;stroke-dasharray:none;stroke-opacity:0.8"
             d="m 227.49,202.4 c 0,1.98 1.62,3.6 3.6,3.6 1.98,0 3.6,-1.62 3.6,-3.6 0,-1.98 -1.62,-3.6 -3.6,-3.6 -1.98,0 -3.6,1.62 -3.6,3.6" />
          <path
             inkscape:connector-curvature="0"
             id="path7897"
             style="fill:none;stroke:#6495ed;stroke-width:1.5;stroke-linecap:round;stroke-linejoin:round;stroke-miterlimit:10;stroke-dasharray:none;stroke-opacity:0.8"
             d="m 229.69,201.63 c 0,1.98 1.62,3.6 3.6,3.6 1.98,0 3.6,-1.62 3.6,-3.6 0,-1.98 -1.62,-3.6 -3.6,-3.6 -1.98,0 -3.6,1.62 -3.6,3.6" />
          <path
             inkscape:connector-curvature="0"
             id="path7899"
             style="fill:none;stroke:#6495ed;stroke-width:1.5;stroke-linecap:round;stroke-linejoin:round;stroke-miterlimit:10;stroke-dasharray:none;stroke-opacity:0.8"
             d="m 241.21,207.98 4.85,-8.39 h -9.69 l 4.84,8.39" />
          <path
             inkscape:connector-curvature="0"
             id="path7901"
             style="fill:none;stroke:#6495ed;stroke-width:1.5;stroke-linecap:round;stroke-linejoin:round;stroke-miterlimit:10;stroke-dasharray:none;stroke-opacity:0.8"
             d="m 234.89,206.63 4.84,-8.4 h -9.69 l 4.85,8.4" />
          <path
             inkscape:connector-curvature="0"
             id="path7903"
             style="fill:none;stroke:#6495ed;stroke-width:1.5;stroke-linecap:round;stroke-linejoin:round;stroke-miterlimit:10;stroke-dasharray:none;stroke-opacity:0.8"
             d="m 246.79,208.27 4.84,-8.4 h -9.69 l 4.85,8.4" />
          <path
             inkscape:connector-curvature="0"
             id="path7905"
             style="fill:#6495ed;fill-opacity:0.8;fill-rule:nonzero;stroke:#6495ed;stroke-width:1.5;stroke-linecap:round;stroke-linejoin:round;stroke-miterlimit:10;stroke-dasharray:none;stroke-opacity:0.8"
             d="m 175.49,185.54 c 0,1.98 1.62,3.6 3.6,3.6 1.98,0 3.6,-1.62 3.6,-3.6 0,-1.98 -1.62,-3.6 -3.6,-3.6 -1.98,0 -3.6,1.62 -3.6,3.6" />
          <path
             inkscape:connector-curvature="0"
             id="path7907"
             style="fill:#6495ed;fill-opacity:0.8;fill-rule:nonzero;stroke:#6495ed;stroke-width:1.5;stroke-linecap:round;stroke-linejoin:round;stroke-miterlimit:10;stroke-dasharray:none;stroke-opacity:0.8"
             d="m 198.76,194.9 c 0,1.98 1.62,3.6 3.6,3.6 1.98,0 3.6,-1.62 3.6,-3.6 0,-1.98 -1.62,-3.6 -3.6,-3.6 -1.98,0 -3.6,1.62 -3.6,3.6" />
          <path
             inkscape:connector-curvature="0"
             id="path7909"
             style="fill:#6495ed;fill-opacity:0.8;fill-rule:nonzero;stroke:#6495ed;stroke-width:1.5;stroke-linecap:round;stroke-linejoin:round;stroke-miterlimit:10;stroke-dasharray:none;stroke-opacity:0.8"
             d="m 213.6,199.08 c 0,1.98 1.62,3.6 3.6,3.6 1.98,0 3.6,-1.62 3.6,-3.6 0,-1.98 -1.62,-3.6 -3.6,-3.6 -1.98,0 -3.6,1.62 -3.6,3.6" />
          <path
             inkscape:connector-curvature="0"
             id="path7911"
             style="fill:#6495ed;fill-opacity:0.8;fill-rule:nonzero;stroke:none"
             d="m 223.15,204.64 4.84,-8.4 h -9.69 z" />
          <path
             inkscape:connector-curvature="0"
             id="path7913"
             style="fill:#6495ed;fill-opacity:0.8;fill-rule:nonzero;stroke:none"
             d="m 205.84,193.03 4.85,-8.4 H 201 Z" />
          <path
             inkscape:connector-curvature="0"
             id="path7915"
             style="fill:#6495ed;fill-opacity:0.8;fill-rule:nonzero;stroke:none"
             d="m 184.82,198.34 4.85,-8.4 h -9.7 z" />
          <path
             inkscape:connector-curvature="0"
             id="path7917"
             style="fill:none;stroke:#cdad00;stroke-width:1.5;stroke-linecap:round;stroke-linejoin:round;stroke-miterlimit:10;stroke-dasharray:none;stroke-opacity:0.8"
             d="m 181.03,202.25 c 0,1.98 1.62,3.6 3.6,3.6 1.98,0 3.6,-1.62 3.6,-3.6 0,-1.98 -1.62,-3.6 -3.6,-3.6 -1.98,0 -3.6,1.62 -3.6,3.6" />
          <path
             inkscape:connector-curvature="0"
             id="path7919"
             style="fill:none;stroke:#cdad00;stroke-width:1.5;stroke-linecap:round;stroke-linejoin:round;stroke-miterlimit:10;stroke-dasharray:none;stroke-opacity:0.8"
             d="m 136.01,186.16 c 0,1.98 1.62,3.6 3.6,3.6 1.98,0 3.6,-1.62 3.6,-3.6 0,-1.98 -1.62,-3.6 -3.6,-3.6 -1.98,0 -3.6,1.62 -3.6,3.6" />
          <path
             inkscape:connector-curvature="0"
             id="path7921"
             style="fill:none;stroke:#cdad00;stroke-width:1.5;stroke-linecap:round;stroke-linejoin:round;stroke-miterlimit:10;stroke-dasharray:none;stroke-opacity:0.8"
             d="m 129.61,198.5 c 0,1.98 1.62,3.6 3.6,3.6 1.98,0 3.6,-1.62 3.6,-3.6 0,-1.98 -1.62,-3.6 -3.6,-3.6 -1.98,0 -3.6,1.62 -3.6,3.6" />
          <path
             inkscape:connector-curvature="0"
             id="path7923"
             style="fill:none;stroke:#cdad00;stroke-width:1.5;stroke-linecap:round;stroke-linejoin:round;stroke-miterlimit:10;stroke-dasharray:none;stroke-opacity:0.8"
             d="m 117.89,192.86 4.85,-8.4 h -9.7 l 4.85,8.4" />
          <path
             inkscape:connector-curvature="0"
             id="path7925"
             style="fill:none;stroke:#cdad00;stroke-width:1.5;stroke-linecap:round;stroke-linejoin:round;stroke-miterlimit:10;stroke-dasharray:none;stroke-opacity:0.8"
             d="m 132.01,193.14 4.85,-8.4 h -9.7 l 4.85,8.4" />
          <path
             inkscape:connector-curvature="0"
             id="path7927"
             style="fill:none;stroke:#cdad00;stroke-width:1.5;stroke-linecap:round;stroke-linejoin:round;stroke-miterlimit:10;stroke-dasharray:none;stroke-opacity:0.8"
             d="m 135.44,188.01 4.85,-8.4 h -9.7 l 4.85,8.4" />
          <path
             inkscape:connector-curvature="0"
             id="path7929"
             style="fill:#cdad00;fill-opacity:0.8;fill-rule:nonzero;stroke:#cdad00;stroke-width:1.5;stroke-linecap:round;stroke-linejoin:round;stroke-miterlimit:10;stroke-dasharray:none;stroke-opacity:0.8"
             d="m 156.86,197.2 c 0,1.98 1.62,3.6 3.6,3.6 1.98,0 3.6,-1.62 3.6,-3.6 0,-1.98 -1.62,-3.6 -3.6,-3.6 -1.98,0 -3.6,1.62 -3.6,3.6" />
          <path
             inkscape:connector-curvature="0"
             id="path7931"
             style="fill:#cdad00;fill-opacity:0.8;fill-rule:nonzero;stroke:#cdad00;stroke-width:1.5;stroke-linecap:round;stroke-linejoin:round;stroke-miterlimit:10;stroke-dasharray:none;stroke-opacity:0.8"
             d="m 115.16,185.47 c 0,1.98 1.62,3.6 3.6,3.6 1.98,0 3.6,-1.62 3.6,-3.6 0,-1.98 -1.62,-3.6 -3.6,-3.6 -1.98,0 -3.6,1.62 -3.6,3.6" />
          <path
             inkscape:connector-curvature="0"
             id="path7933"
             style="fill:#cdad00;fill-opacity:0.8;fill-rule:nonzero;stroke:#cdad00;stroke-width:1.5;stroke-linecap:round;stroke-linejoin:round;stroke-miterlimit:10;stroke-dasharray:none;stroke-opacity:0.8"
             d="m 158.18,193.62 c 0,1.98 1.62,3.6 3.6,3.6 1.98,0 3.6,-1.62 3.6,-3.6 0,-1.98 -1.62,-3.6 -3.6,-3.6 -1.98,0 -3.6,1.62 -3.6,3.6" />
          <path
             inkscape:connector-curvature="0"
             id="path7935"
             style="fill:#cdad00;fill-opacity:0.8;fill-rule:nonzero;stroke:none"
             d="m 151.83,202.35 4.85,-8.4 h -9.7 z" />
          <path
             inkscape:connector-curvature="0"
             id="path7937"
             style="fill:#cdad00;fill-opacity:0.8;fill-rule:nonzero;stroke:none"
             d="m 121.49,187.5 4.84,-8.4 h -9.69 z" />
          <path
             inkscape:connector-curvature="0"
             id="path7939"
             style="fill:#cdad00;fill-opacity:0.8;fill-rule:nonzero;stroke:none"
             d="m 164.12,197.81 4.85,-8.4 h -9.7 z" />
          <path
             inkscape:connector-curvature="0"
             id="path7941"
             style="fill:none;stroke:#4d4d4d;stroke-width:1.5;stroke-linecap:round;stroke-linejoin:round;stroke-miterlimit:10;stroke-dasharray:4.5, 7.5;stroke-dashoffset:0;stroke-opacity:0.8"
             d="m 117.89,201.39 14.12,1.93 1.2,0.17 2.23,0.3 4.17,0.57 29.7,4.07 2.25,0.31 1.43,0.2 0.71,0.09 9.86,1.36 1.07,0.14 5.42,0.74 1.08,0.15 4.19,0.58 5.77,0.79 4.5,0.61 9.83,1.35 14.04,1.92 1.63,0.23 2.2,0.3 1.6,0.22 6.32,0.86 0.82,0.12 4.76,0.65" />
          <path
             inkscape:connector-curvature="0"
             id="path7943"
             style="fill:none;stroke:#4d4d4d;stroke-width:1.5;stroke-linecap:round;stroke-linejoin:round;stroke-miterlimit:10;stroke-dasharray:none;stroke-opacity:0.8"
             d="m 116.36,183.99 2.4,0.58 2.73,0.66 13.73,3.3 6.26,1.5 1.87,0.45 8.48,2.04 4.26,1.02 4.37,1.05 1.32,0.32 2.34,0.56 13.07,3.14 1.9,0.46 5.73,1.38 11.18,2.68 3.33,0.8 0.9,0.22 1.26,0.3 0.87,0.21 3.48,0.84 1.51,0.36 4.39,1.06 5.46,1.31 5.95,1.43" />
        </g>
      </g>
      <g
         id="g7945" />
      <g
         id="g7947">
        <path
           inkscape:connector-curvature="0"
           id="path7949"
           style="fill:none;stroke:#a6a6a6;stroke-width:1.12;stroke-linecap:round;stroke-linejoin:round;stroke-miterlimit:10;stroke-dasharray:none;stroke-opacity:1"
           d="m 60.19,56.41 h 198.8 V 252.99 H 60.19 Z" />
      </g>
      <g
         id="g7951" />
      <g
         id="g7953" />
      <g
         id="g7955" />
    </g>
  </g>
</svg>
