<?xml version="1.0" encoding="UTF-8" standalone="no"?>
<!-- Created with Inkscape (http://www.inkscape.org/) -->

<svg
   xmlns:dc="http://purl.org/dc/elements/1.1/"
   xmlns:cc="http://creativecommons.org/ns#"
   xmlns:rdf="http://www.w3.org/1999/02/22-rdf-syntax-ns#"
   xmlns:svg="http://www.w3.org/2000/svg"
   xmlns="http://www.w3.org/2000/svg"
   xmlns:sodipodi="http://sodipodi.sourceforge.net/DTD/sodipodi-0.dtd"
   xmlns:inkscape="http://www.inkscape.org/namespaces/inkscape"
   width="98.323639mm"
   height="42.189209mm"
   viewBox="0 0 98.323639 42.189209"
   version="1.1"
   id="svg8"
   inkscape:version="0.92.1 r15371"
   sodipodi:docname="schedule_F2015.svg">
  <defs
     id="defs2" />
  <sodipodi:namedview
     id="base"
     pagecolor="#ffffff"
     bordercolor="#666666"
     borderopacity="1.0"
     inkscape:pageopacity="0.0"
     inkscape:pageshadow="2"
     inkscape:zoom="0.35"
     inkscape:cx="5.8084466"
     inkscape:cy="-68.843787"
     inkscape:document-units="mm"
     inkscape:current-layer="layer1"
     showgrid="false"
     fit-margin-top="0"
     fit-margin-left="0"
     fit-margin-right="0"
     fit-margin-bottom="0"
     inkscape:window-width="1916"
     inkscape:window-height="1036"
     inkscape:window-x="0"
     inkscape:window-y="20"
     inkscape:window-maximized="0" />
  <metadata
     id="metadata5">
    <rdf:RDF>
      <cc:Work
         rdf:about="">
        <dc:format>image/svg+xml</dc:format>
        <dc:type
           rdf:resource="http://purl.org/dc/dcmitype/StillImage" />
        <dc:title></dc:title>
      </cc:Work>
    </rdf:RDF>
  </metadata>
  <g
     inkscape:label="Layer 1"
     inkscape:groupmode="layer"
     id="layer1"
     transform="translate(21.19158,-88.429207)">
    <g
       transform="matrix(0.35277777,0,0,-0.35277777,-21.895489,131.18286)"
       inkscape:label="schedule_161229"
       id="g4493">
      <g
         id="g4495">
        <text
           id="text4499"
           style="font-variant:normal;font-weight:normal;font-size:8px;font-family:'DejaVu Sans';-inkscape-font-specification:DejaVuSans;writing-mode:lr-tb;fill:#000000;fill-opacity:1;fill-rule:nonzero;stroke:none"
           transform="matrix(1,0,0,-1,39.763055,28.184083)">
          <tspan
             id="tspan4497"
             sodipodi:role="line"
             y="0"
             x="0 5.9840002">N1</tspan>
        </text>
        <g
           transform="matrix(1,0,0,-1,0,122.79146)"
           id="g4501">
          <path
             inkscape:connector-curvature="0"
             id="path4503"
             style="fill:none;stroke:#000000;stroke-width:0.83462;stroke-linecap:butt;stroke-linejoin:miter;stroke-miterlimit:4;stroke-dasharray:none;stroke-opacity:1"
             d="M 28.617,38.453 H 251.742" />
        </g>
        <g
           transform="matrix(-1,0,0,1,0,122.79146)"
           id="g4505">
          <path
             inkscape:connector-curvature="0"
             id="path4507"
             style="fill:#000000;fill-opacity:1;fill-rule:evenodd;stroke:#000000;stroke-width:0.83462;stroke-linecap:butt;stroke-linejoin:miter;stroke-miterlimit:4;stroke-dasharray:none;stroke-opacity:1"
             d="m -243.395,-38.453 3.34,-3.34 -11.687,3.34 11.687,3.34 z" />
        </g>
        <g
           transform="matrix(1,0,0,-1,0,122.79146)"
           id="g4509">
          <path
             inkscape:connector-curvature="0"
             id="path4511"
             style="fill:none;stroke:#000000;stroke-width:0.75815499;stroke-linecap:butt;stroke-linejoin:miter;stroke-miterlimit:4;stroke-dasharray:none;stroke-opacity:1"
             d="m 28.578,26.246 0.043,15.242" />
        </g>
        <g
           transform="matrix(1,0,0,-1,0,122.79146)"
           id="g4513">
          <path
             inkscape:connector-curvature="0"
             id="path4515"
             style="fill:none;stroke:#000000;stroke-width:0.75815499;stroke-linecap:butt;stroke-linejoin:miter;stroke-miterlimit:4;stroke-dasharray:none;stroke-opacity:1"
             d="m 84.578,26.246 0.043,15.242" />
        </g>
        <g
           transform="matrix(1,0,0,-1,0,122.79146)"
           id="g4517">
          <path
             inkscape:connector-curvature="0"
             id="path4519"
             style="fill:none;stroke:#000000;stroke-width:0.75815499;stroke-linecap:butt;stroke-linejoin:miter;stroke-miterlimit:4;stroke-dasharray:none;stroke-opacity:1"
             d="m 140.578,26.246 0.043,15.242" />
        </g>
        <g
           transform="matrix(1,0,0,-1,0,122.79146)"
           id="g4521">
          <path
             inkscape:connector-curvature="0"
             id="path4523"
             style="fill:none;stroke:#000000;stroke-width:0.75815499;stroke-linecap:butt;stroke-linejoin:miter;stroke-miterlimit:4;stroke-dasharray:none;stroke-opacity:1"
             d="m 196.578,26.246 0.043,15.242" />
        </g>
        <g
           transform="matrix(1,0,0,-1,0,122.79146)"
           id="g4525">
          <path
             inkscape:connector-curvature="0"
             id="path4527"
             style="fill:none;stroke:#000000;stroke-width:0.75815499;stroke-linecap:butt;stroke-linejoin:miter;stroke-miterlimit:4;stroke-dasharray:none;stroke-opacity:1"
             d="m 252.578,26.246 0.043,15.242" />
        </g>
        <text
           id="text4531"
           style="font-variant:normal;font-weight:normal;font-size:11.20014095px;font-family:'DejaVu Sans';-inkscape-font-specification:DejaVuSans;writing-mode:lr-tb;fill:#000000;fill-opacity:1;fill-rule:nonzero;stroke:none"
           transform="matrix(0.99998741,0,0,-1,69.164846,100.49637)">
          <tspan
             id="tspan4529"
             sodipodi:role="line"
             y="0"
             x="0 8.6689091 15.769798 22.893087">GS65</tspan>
        </text>
        <text
           id="text4535"
           style="font-variant:normal;font-weight:normal;font-size:11.19999981px;font-family:'DejaVu Sans';-inkscape-font-specification:DejaVuSans;writing-mode:lr-tb;fill:#000000;fill-opacity:1;fill-rule:nonzero;stroke:none"
           transform="matrix(1,0,0,-1,125.99685,112.87896)">
          <tspan
             id="tspan4533"
             sodipodi:role="line"
             y="0"
             x="0 8.6688004 15.7696 22.892799">GS65</tspan>
        </text>
        <text
           id="text4539"
           style="font-variant:normal;font-weight:normal;font-size:9.60000038px;font-family:'DejaVu Sans';-inkscape-font-specification:DejaVuSans;writing-mode:lr-tb;fill:#000000;fill-opacity:1;fill-rule:nonzero;stroke:none"
           transform="matrix(1,0,0,-1,119.03123,100.47375)">
          <tspan
             id="tspan4537"
             sodipodi:role="line"
             y="0"
             x="0 8.0352001 14.1408 20.246401 26.351999 31.152 37.852798">+200°Cd</tspan>
        </text>
        <text
           id="text4543"
           style="font-variant:normal;font-weight:normal;font-size:11.19999981px;font-family:'DejaVu Sans';-inkscape-font-specification:DejaVuSans;writing-mode:lr-tb;fill:#000000;fill-opacity:1;fill-rule:nonzero;stroke:none"
           transform="matrix(1,0,0,-1,181.92104,112.87896)">
          <tspan
             id="tspan4541"
             sodipodi:role="line"
             y="0"
             x="0 8.6688004 15.7696 22.892799">GS65</tspan>
        </text>
        <text
           id="text4547"
           style="font-variant:normal;font-weight:normal;font-size:9.60000038px;font-family:'DejaVu Sans';-inkscape-font-specification:DejaVuSans;writing-mode:lr-tb;fill:#000000;fill-opacity:1;fill-rule:nonzero;stroke:none"
           transform="matrix(1,0,0,-1,174.95542,100.47375)">
          <tspan
             id="tspan4545"
             sodipodi:role="line"
             y="0"
             x="0 8.0352001 14.1408 20.246401 26.351999 31.152 37.852798">+420°Cd</tspan>
        </text>
        <text
           id="text4551"
           style="font-variant:normal;font-weight:normal;font-size:11.19999981px;font-family:'DejaVu Sans';-inkscape-font-specification:DejaVuSans;writing-mode:lr-tb;fill:#000000;fill-opacity:1;fill-rule:nonzero;stroke:none"
           transform="matrix(1,0,0,-1,228.77683,102.66748)">
          <tspan
             id="tspan4549"
             sodipodi:role="line"
             y="0"
             x="0 9.6543999 16.508801 20.8992 27.9888 32.625599 35.728001 40.118401">Maturity</tspan>
        </text>
        <g
           transform="matrix(1,0,0,-1,0,122.79146)"
           id="g4553">
          <path
             inkscape:connector-curvature="0"
             id="path4555"
             style="fill:none;stroke:#000000;stroke-width:0.00066183;stroke-linecap:butt;stroke-linejoin:miter;stroke-miterlimit:4;stroke-dasharray:none;stroke-opacity:1"
             d="M 15.641,58.195 V 58.184" />
        </g>
        <g
           transform="matrix(-0.0116107,-1,-1,0.0116107,0,122.79146)"
           id="g4557">
          <path
             inkscape:connector-curvature="0"
             id="path4559"
             style="fill:#000000;fill-opacity:1;fill-rule:evenodd;stroke:#000000;stroke-width:0.00066179;stroke-linecap:butt;stroke-linejoin:miter;stroke-miterlimit:4;stroke-dasharray:none;stroke-opacity:1"
             d="m 58.002,-16.314 v -0.004 l -0.008,0.004 0.008,0.004 z" />
        </g>
        <g
           transform="matrix(1,0,0,-1,0,122.79146)"
           id="g4561">
          <path
             inkscape:connector-curvature="0"
             id="path4563"
             style="fill:none;stroke:#000000;stroke-width:0.80000001;stroke-linecap:butt;stroke-linejoin:miter;stroke-miterlimit:4;stroke-dasharray:none;stroke-opacity:1"
             d="m 2,37.398 c 23.137,0.27 23.121,0.274 26.148,22.629 2.071,15.282 41.454,12.481 41.454,12.481" />
        </g>
        <g
           transform="matrix(-1,-0.0710571,-0.0710571,1,0,122.79146)"
           id="g4565">
          <path
             inkscape:connector-curvature="0"
             id="path4567"
             style="fill:#000000;fill-opacity:1;fill-rule:evenodd;stroke:#000000;stroke-width:0.398994;stroke-linecap:butt;stroke-linejoin:miter;stroke-miterlimit:4;stroke-dasharray:none;stroke-opacity:1"
             d="m -60.93,-77.064 1.594,-1.598 -5.586,1.596 5.585,1.596 z" />
        </g>
        <text
           id="text4571"
           style="font-variant:normal;font-weight:normal;font-size:8px;font-family:'DejaVu Sans';-inkscape-font-specification:DejaVuSans;writing-mode:lr-tb;fill:#000000;fill-opacity:1;fill-rule:nonzero;stroke:none"
           transform="matrix(1,0,0,-1,39.511685,55.353761)">
          <tspan
             id="tspan4569"
             sodipodi:role="line"
             y="0"
             x="0 5.9840002">N0</tspan>
        </text>
        <g
           transform="matrix(1,0,0,-1,0,122.79146)"
           id="g4573">
          <path
             inkscape:connector-curvature="0"
             id="path4575"
             style="fill:none;stroke:#000000;stroke-width:0.80000001;stroke-linecap:butt;stroke-linejoin:miter;stroke-miterlimit:4;stroke-dasharray:none;stroke-opacity:1"
             d="m 27.555,55.934 c 2.281,18.445 -1.77,32.914 14.433,42.781 2.703,1.648 14.004,6.039 33.129,5.988" />
        </g>
        <g
           transform="matrix(-1,-0.00268491,-0.00268491,1,0,122.79146)"
           id="g4577">
          <path
             inkscape:connector-curvature="0"
             id="path4579"
             style="fill:#000000;fill-opacity:1;fill-rule:evenodd;stroke:#000000;stroke-width:0.39999899;stroke-linecap:butt;stroke-linejoin:miter;stroke-miterlimit:4;stroke-dasharray:none;stroke-opacity:1"
             d="m -71.636,-104.903 1.602,-1.598 -5.602,1.599 5.601,1.601 z" />
        </g>
        <text
           id="text4583"
           style="font-variant:normal;font-weight:normal;font-size:8px;font-family:'DejaVu Sans';-inkscape-font-specification:DejaVuSans;writing-mode:lr-tb;fill:#000000;fill-opacity:1;fill-rule:nonzero;stroke:none"
           transform="matrix(1,0,0,-1,72.680404,47.840187)">
          <tspan
             id="tspan4581"
             sodipodi:role="line"
             y="0"
             x="0 5.0879998">5</tspan>
        </text>
        <text
           id="text4587"
           style="font-variant:normal;font-weight:normal;font-size:6.4000001px;font-family:'DejaVu Sans';-inkscape-font-specification:DejaVuSans;writing-mode:lr-tb;fill:#000000;fill-opacity:1;fill-rule:nonzero;stroke:none"
           transform="matrix(1,0,0,-1,80.321029,47.840187)">
          <tspan
             id="tspan4585"
             sodipodi:role="line"
             y="0"
             x="0 3.3280001 7.3792 11.2896 15.2 17.708799">shoots</tspan>
        </text>
        <text
           id="text4591"
           style="font-variant:normal;font-weight:normal;font-size:8px;font-family:'DejaVu Sans';-inkscape-font-specification:DejaVuSans;writing-mode:lr-tb;fill:#000000;fill-opacity:1;fill-rule:nonzero;stroke:none"
           transform="matrix(1,0,0,-1,82.224218,16.439064)">
          <tspan
             id="tspan4589"
             y="0"
             x="0">5</tspan>
        </text>
        <g
           transform="matrix(1,0,0,-1,0,122.79146)"
           id="g4593">
          <path
             inkscape:connector-curvature="0"
             id="path4595"
             style="fill:none;stroke:#000000;stroke-width:0.71671098;stroke-linecap:butt;stroke-linejoin:miter;stroke-miterlimit:4;stroke-dasharray:none;stroke-opacity:1"
             d="m 104.613,71.867 h 21.129" />
        </g>
        <g
           transform="matrix(-1,0,0,1,0,122.79146)"
           id="g4597">
          <path
             inkscape:connector-curvature="0"
             id="path4599"
             style="fill:#000000;fill-opacity:1;fill-rule:evenodd;stroke:#000000;stroke-width:0.358356;stroke-linecap:butt;stroke-linejoin:miter;stroke-miterlimit:4;stroke-dasharray:none;stroke-opacity:1"
             d="m -122.875,-71.867 1.43,-1.434 -5.016,1.434 5.016,1.433 z" />
        </g>
        <g
           transform="matrix(1,0,0,-1,0,122.79146)"
           id="g4601">
          <path
             inkscape:connector-curvature="0"
             id="path4603"
             style="fill:none;stroke:#000000;stroke-width:0.716748;stroke-linecap:butt;stroke-linejoin:miter;stroke-miterlimit:4;stroke-dasharray:none;stroke-opacity:1"
             d="m 96.176,104.367 h 26.812" />
        </g>
        <g
           transform="matrix(-1,0,0,1,0,122.79146)"
           id="g4605">
          <path
             inkscape:connector-curvature="0"
             id="path4607"
             style="fill:#000000;fill-opacity:1;fill-rule:evenodd;stroke:#000000;stroke-width:0.358374;stroke-linecap:butt;stroke-linejoin:miter;stroke-miterlimit:4;stroke-dasharray:none;stroke-opacity:1"
             d="m -120.121,-104.367 1.433,-1.434 -5.019,1.434 5.019,1.433 z" />
        </g>
        <text
           id="text4613"
           style="font-variant:normal;font-weight:normal;font-size:8px;font-family:'DejaVu Sans';-inkscape-font-specification:DejaVuSans;writing-mode:lr-tb;fill:#000000;fill-opacity:1;fill-rule:nonzero;stroke:none"
           transform="matrix(1,0,0,-1,129.88608,49.088136)">
          <tspan
             id="tspan4609"
             y="0"
             x="0">5</tspan>
          <tspan
             id="tspan4611"
             y="33.031593"
             x="-2.3071201">5</tspan>
        </text>
        <path
           inkscape:connector-curvature="0"
           id="path4615"
           style="fill:#000000;fill-opacity:1;fill-rule:nonzero;stroke:none"
           d="m 31.312,61.78 c 0,-1.407 -1.14,-2.547 -2.546,-2.547 -1.407,0 -2.547,1.14 -2.547,2.547 0,1.406 1.14,2.543 2.547,2.543 1.406,0 2.546,-1.137 2.546,-2.543 z" />
        <path
           inkscape:connector-curvature="0"
           id="path4617"
           style="fill:#000000;fill-opacity:1;fill-rule:nonzero;stroke:none"
           d="m 143.102,50.963 c 0,-1.406 -1.141,-2.543 -2.543,-2.543 -1.407,0 -2.547,1.137 -2.547,2.543 0,1.407 1.14,2.547 2.547,2.547 1.402,0 2.543,-1.14 2.543,-2.547 z" />
        <g
           transform="matrix(1,0,0,-1,0,122.79146)"
           id="g4619">
          <path
             inkscape:connector-curvature="0"
             id="path4621"
             style="fill:none;stroke:#000000;stroke-width:0.80000001;stroke-linecap:butt;stroke-linejoin:miter;stroke-miterlimit:4;stroke-dasharray:none;stroke-opacity:1"
             d="m 140.602,71.902 c 6.398,-0.277 12.91,-0.472 15.738,-3.238 6.344,-6.203 10.351,-4.949 32.398,-5.426" />
        </g>
        <g
           transform="matrix(-1,-0.0215867,-0.0215867,1,0,122.79146)"
           id="g4623">
          <path
             inkscape:connector-curvature="0"
             id="path4625"
             style="fill:#000000;fill-opacity:1;fill-rule:evenodd;stroke:#000000;stroke-width:0.39990699;stroke-linecap:butt;stroke-linejoin:miter;stroke-miterlimit:4;stroke-dasharray:none;stroke-opacity:1"
             d="m -184.087,-67.279 1.597,-1.602 -5.597,1.602 5.599,1.597 z" />
        </g>
        <g
           transform="matrix(1,0,0,-1,0,122.79146)"
           id="g4627">
          <path
             inkscape:connector-curvature="0"
             id="path4629"
             style="fill:none;stroke:#000000;stroke-width:0.80000001;stroke-linecap:butt;stroke-linejoin:miter;stroke-miterlimit:4;stroke-dasharray:none;stroke-opacity:1"
             d="m 140.602,71.762 c 6.398,0.281 12.91,0.472 15.738,3.238 6.344,6.203 10.351,4.953 32.398,5.43" />
        </g>
        <g
           transform="matrix(-1,0.0215867,0.0215867,1,0,122.79146)"
           id="g4631">
          <path
             inkscape:connector-curvature="0"
             id="path4633"
             style="fill:#000000;fill-opacity:1;fill-rule:evenodd;stroke:#000000;stroke-width:0.39990699;stroke-linecap:butt;stroke-linejoin:miter;stroke-miterlimit:4;stroke-dasharray:none;stroke-opacity:1"
             d="m -187.187,-76.319 1.599,-1.601 -5.599,1.602 5.597,1.598 z" />
        </g>
        <text
           id="text4639"
           style="font-variant:normal;font-weight:normal;font-size:8px;font-family:'DejaVu Sans';-inkscape-font-specification:DejaVuSans;writing-mode:lr-tb;fill:#000000;fill-opacity:1;fill-rule:nonzero;stroke:none"
           transform="matrix(1,0,0,-1,193.62422,57.839064)">
          <tspan
             id="tspan4635"
             y="0"
             x="0">5</tspan>
          <tspan
             id="tspan4637"
             y="18"
             x="-0.40000001">5</tspan>
        </text>
        <path
           inkscape:connector-curvature="0"
           id="path4641"
           style="fill:#000000;fill-opacity:1;fill-rule:nonzero;stroke:none"
           d="m 142.836,18.182 c 0,-1.406 -1.141,-2.547 -2.547,-2.547 -1.406,0 -2.547,1.141 -2.547,2.547 0,1.406 1.141,2.547 2.547,2.547 1.406,0 2.547,-1.141 2.547,-2.547 z" />
        <g
           transform="matrix(1,0,0,-1,0,122.79146)"
           id="g4643">
          <path
             inkscape:connector-curvature="0"
             id="path4645"
             style="fill:none;stroke:#000000;stroke-width:0.80000001;stroke-linecap:butt;stroke-linejoin:miter;stroke-miterlimit:4;stroke-dasharray:none;stroke-opacity:1"
             d="m 140.332,104.684 c 6.398,-0.278 12.91,-0.469 15.742,-3.239 6.344,-6.203 10.348,-4.949 32.399,-5.425" />
        </g>
        <g
           transform="matrix(-1,-0.0215867,-0.0215867,1,0,122.79146)"
           id="g4647">
          <path
             inkscape:connector-curvature="0"
             id="path4649"
             style="fill:#000000;fill-opacity:1;fill-rule:evenodd;stroke:#000000;stroke-width:0.39990699;stroke-linecap:butt;stroke-linejoin:miter;stroke-miterlimit:4;stroke-dasharray:none;stroke-opacity:1"
             d="m -183.114,-100.043 1.601,-1.598 -5.601,1.598 5.598,1.601 z" />
        </g>
        <g
           transform="matrix(1,0,0,-1,0,122.79146)"
           id="g4651">
          <path
             inkscape:connector-curvature="0"
             id="path4653"
             style="fill:none;stroke:#000000;stroke-width:0.80000001;stroke-linecap:butt;stroke-linejoin:miter;stroke-miterlimit:4;stroke-dasharray:none;stroke-opacity:1"
             d="m 140.332,104.547 c 6.398,0.277 12.91,0.469 15.742,3.238 6.344,6.203 10.348,4.949 32.399,5.426" />
        </g>
        <g
           transform="matrix(-1,0.0215867,0.0215867,1,0,122.79146)"
           id="g4655">
          <path
             inkscape:connector-curvature="0"
             id="path4657"
             style="fill:#000000;fill-opacity:1;fill-rule:evenodd;stroke:#000000;stroke-width:0.39990699;stroke-linecap:butt;stroke-linejoin:miter;stroke-miterlimit:4;stroke-dasharray:none;stroke-opacity:1"
             d="m -187.628,-109.09 1.598,-1.601 -5.598,1.601 5.601,1.598 z" />
        </g>
        <text
           id="text4663"
           style="font-variant:normal;font-weight:normal;font-size:8px;font-family:'DejaVu Sans';-inkscape-font-specification:DejaVuSans;writing-mode:lr-tb;fill:#000000;fill-opacity:1;fill-rule:nonzero;stroke:none"
           transform="matrix(1,0,0,-1,193.35648,25.056544)">
          <tspan
             id="tspan4659"
             y="0"
             x="0">5</tspan>
          <tspan
             id="tspan4661"
             y="18"
             x="-0.40000001">5</tspan>
        </text>
        <text
           id="text4667"
           style="font-variant:normal;font-weight:normal;font-size:8px;font-family:'DejaVu Sans';-inkscape-font-specification:DejaVuSans;writing-mode:lr-tb;fill:#000000;fill-opacity:1;fill-rule:nonzero;stroke:none"
           transform="matrix(0.96679775,0,0,-1,144.24091,56.0109)">
          <tspan
             id="tspan4665"
             sodipodi:role="line"
             y="0"
             x="0 6.1599998">D0</tspan>
        </text>
        <text
           id="text4671"
           style="font-variant:normal;font-weight:normal;font-size:8px;font-family:'DejaVu Sans';-inkscape-font-specification:DejaVuSans;writing-mode:lr-tb;fill:#000000;fill-opacity:1;fill-rule:nonzero;stroke:none"
           transform="matrix(0.98738437,0,0,-1,144.22475,40.788743)">
          <tspan
             id="tspan4669"
             sodipodi:role="line"
             y="0"
             x="0 6.1599998">D1</tspan>
        </text>
        <text
           id="text4675"
           style="font-variant:normal;font-weight:normal;font-size:8px;font-family:'DejaVu Sans';-inkscape-font-specification:DejaVuSans;writing-mode:lr-tb;fill:#000000;fill-opacity:1;fill-rule:nonzero;stroke:none"
           transform="matrix(0.96679775,0,0,-1,145.60245,22.965342)">
          <tspan
             id="tspan4673"
             sodipodi:role="line"
             y="0"
             x="0 6.1599998">D0</tspan>
        </text>
        <text
           id="text4679"
           style="font-variant:normal;font-weight:normal;font-size:8px;font-family:'DejaVu Sans';-inkscape-font-specification:DejaVuSans;writing-mode:lr-tb;fill:#000000;fill-opacity:1;fill-rule:nonzero;stroke:none"
           transform="matrix(0.98738437,0,0,-1,144.96257,7.96306)">
          <tspan
             id="tspan4677"
             sodipodi:role="line"
             y="0"
             x="0 6.1599998">D1</tspan>
        </text>
        <g
           transform="matrix(1,0,0,-1,0,122.79146)"
           id="g4681">
          <path
             inkscape:connector-curvature="0"
             id="path4683"
             style="fill:none;stroke:#000000;stroke-width:0.83719897;stroke-linecap:butt;stroke-linejoin:miter;stroke-miterlimit:4;stroke-dasharray:none;stroke-opacity:1"
             d="m 204.91,63.398 h 38.391" />
        </g>
        <g
           transform="matrix(-1,0,0,1,0,122.79146)"
           id="g4685">
          <path
             inkscape:connector-curvature="0"
             id="path4687"
             style="fill:#000000;fill-opacity:1;fill-rule:evenodd;stroke:#000000;stroke-width:0.41859999;stroke-linecap:butt;stroke-linejoin:miter;stroke-miterlimit:4;stroke-dasharray:none;stroke-opacity:1"
             d="m -239.953,-63.398 1.676,-1.676 -5.86,1.676 5.86,1.671 z" />
        </g>
        <text
           id="text4691"
           style="font-variant:normal;font-weight:normal;font-size:8px;font-family:'DejaVu Sans';-inkscape-font-specification:DejaVuSans;writing-mode:lr-tb;fill:#000000;fill-opacity:1;fill-rule:nonzero;stroke:none"
           transform="matrix(1,0,0,-1,250.37585,57.639064)">
          <tspan
             id="tspan4689"
             y="0"
             x="0">5</tspan>
        </text>
        <text
           id="text4695"
           style="font-variant:normal;font-weight:normal;font-size:8px;font-family:'DejaVu Sans';-inkscape-font-specification:DejaVuSans;writing-mode:lr-tb;fill:#000000;fill-opacity:1;fill-rule:nonzero;stroke:none"
           transform="matrix(0.96679775,0,0,-1,259.64091,57.873082)">
          <tspan
             id="tspan4693"
             sodipodi:role="line"
             y="0"
             x="0 5.9840002 11.072 17.232">N0D0</tspan>
        </text>
        <g
           transform="matrix(1,0,0,-1,0,122.79146)"
           id="g4697">
          <path
             inkscape:connector-curvature="0"
             id="path4699"
             style="fill:none;stroke:#000000;stroke-width:0.83719897;stroke-linecap:butt;stroke-linejoin:miter;stroke-miterlimit:4;stroke-dasharray:none;stroke-opacity:1"
             d="m 205.207,79.438 h 38.395" />
        </g>
        <g
           transform="matrix(-1,0,0,1,0,122.79146)"
           id="g4701">
          <path
             inkscape:connector-curvature="0"
             id="path4703"
             style="fill:#000000;fill-opacity:1;fill-rule:evenodd;stroke:#000000;stroke-width:0.41859999;stroke-linecap:butt;stroke-linejoin:miter;stroke-miterlimit:4;stroke-dasharray:none;stroke-opacity:1"
             d="m -240.25,-79.438 1.672,-1.675 -5.86,1.675 5.86,1.672 z" />
        </g>
        <text
           id="text4707"
           style="font-variant:normal;font-weight:normal;font-size:8px;font-family:'DejaVu Sans';-inkscape-font-specification:DejaVuSans;writing-mode:lr-tb;fill:#000000;fill-opacity:1;fill-rule:nonzero;stroke:none"
           transform="matrix(1,0,0,-1,250.67585,41.600392)">
          <tspan
             id="tspan4705"
             y="0"
             x="0">5</tspan>
        </text>
        <text
           id="text4711"
           style="font-variant:normal;font-weight:normal;font-size:8px;font-family:'DejaVu Sans';-inkscape-font-specification:DejaVuSans;writing-mode:lr-tb;fill:#000000;fill-opacity:1;fill-rule:nonzero;stroke:none"
           transform="matrix(0.96679775,0,0,-1,259.64091,41.394872)">
          <tspan
             id="tspan4709"
             sodipodi:role="line"
             y="0"
             x="0 5.9840002 11.072 17.232">N0D1</tspan>
        </text>
        <g
           transform="matrix(1,0,0,-1,0,122.79146)"
           id="g4713">
          <path
             inkscape:connector-curvature="0"
             id="path4715"
             style="fill:none;stroke:#000000;stroke-width:0.83719897;stroke-linecap:butt;stroke-linejoin:miter;stroke-miterlimit:4;stroke-dasharray:none;stroke-opacity:1"
             d="M 205.199,95.828 H 243.59" />
        </g>
        <g
           transform="matrix(-1,0,0,1,0,122.79146)"
           id="g4717">
          <path
             inkscape:connector-curvature="0"
             id="path4719"
             style="fill:#000000;fill-opacity:1;fill-rule:evenodd;stroke:#000000;stroke-width:0.41859999;stroke-linecap:butt;stroke-linejoin:miter;stroke-miterlimit:4;stroke-dasharray:none;stroke-opacity:1"
             d="m -240.242,-95.828 1.676,-1.676 -5.86,1.676 5.86,1.672 z" />
        </g>
        <text
           id="text4723"
           style="font-variant:normal;font-weight:normal;font-size:8px;font-family:'DejaVu Sans';-inkscape-font-specification:DejaVuSans;writing-mode:lr-tb;fill:#000000;fill-opacity:1;fill-rule:nonzero;stroke:none"
           transform="matrix(1,0,0,-1,250.66548,25.209474)">
          <tspan
             id="tspan4721"
             y="0"
             x="0">5</tspan>
        </text>
        <text
           id="text4727"
           style="font-variant:normal;font-weight:normal;font-size:8px;font-family:'DejaVu Sans';-inkscape-font-specification:DejaVuSans;writing-mode:lr-tb;fill:#000000;fill-opacity:1;fill-rule:nonzero;stroke:none"
           transform="matrix(0.96679775,0,0,-1,259.64091,25.004013)">
          <tspan
             id="tspan4725"
             sodipodi:role="line"
             y="0"
             x="0 5.9840002 11.072 17.232">N1D0</tspan>
        </text>
        <g
           transform="matrix(1,0,0,-1,0,122.79146)"
           id="g4729">
          <path
             inkscape:connector-curvature="0"
             id="path4731"
             style="fill:none;stroke:#000000;stroke-width:0.83719897;stroke-linecap:butt;stroke-linejoin:miter;stroke-miterlimit:4;stroke-dasharray:none;stroke-opacity:1"
             d="m 205.496,111.867 h 38.395" />
        </g>
        <g
           transform="matrix(-1,0,0,1,0,122.79146)"
           id="g4733">
          <path
             inkscape:connector-curvature="0"
             id="path4735"
             style="fill:#000000;fill-opacity:1;fill-rule:evenodd;stroke:#000000;stroke-width:0.41859999;stroke-linecap:butt;stroke-linejoin:miter;stroke-miterlimit:4;stroke-dasharray:none;stroke-opacity:1"
             d="m -240.543,-111.867 1.676,-1.676 -5.86,1.676 5.86,1.672 z" />
        </g>
        <text
           id="text4739"
           style="font-variant:normal;font-weight:normal;font-size:8px;font-family:'DejaVu Sans';-inkscape-font-specification:DejaVuSans;writing-mode:lr-tb;fill:#000000;fill-opacity:1;fill-rule:nonzero;stroke:none"
           transform="matrix(1,0,0,-1,250.96548,9.170802)">
          <tspan
             id="tspan4737"
             y="0"
             x="0">5</tspan>
        </text>
        <text
           id="text4743"
           style="font-variant:normal;font-weight:normal;font-size:8px;font-family:'DejaVu Sans';-inkscape-font-specification:DejaVuSans;writing-mode:lr-tb;fill:#000000;fill-opacity:1;fill-rule:nonzero;stroke:none"
           transform="matrix(0.96679775,0,0,-1,259.64091,9.405273)">
          <tspan
             id="tspan4741"
             sodipodi:role="line"
             y="0"
             x="0 5.9840002 11.072 17.232">N1D1</tspan>
        </text>
        <text
           id="text4747"
           style="font-variant:normal;font-weight:normal;font-size:11.19999981px;font-family:'DejaVu Sans';-inkscape-font-specification:DejaVuSans;writing-mode:lr-tb;fill:#000000;fill-opacity:1;fill-rule:nonzero;stroke:none"
           transform="matrix(1,0,0,-1,13.933788,100.49639)">
          <tspan
             id="tspan4745"
             sodipodi:role="line"
             y="0"
             x="0 8.6688004 15.7696 22.892799">GS51</tspan>
        </text>
        <text
           id="text4751"
           style="font-variant:normal;font-weight:normal;font-size:5.5999999px;font-family:'DejaVu Sans';-inkscape-font-specification:DejaVuSans;writing-mode:lr-tb;fill:#000000;fill-opacity:1;fill-rule:nonzero;stroke:none"
           transform="matrix(1,0,0,-1,52.319874,29.022609)">
          <tspan
             id="tspan4749"
             sodipodi:role="line"
             y="0"
             x="0 2.184 6.8712001 10.4328 13.9832">(+4gN</tspan>
        </text>
        <text
           id="text4755"
           style="font-variant:normal;font-weight:normal;font-size:5.5999999px;font-family:'DejaVu Sans';-inkscape-font-specification:DejaVuSans;writing-mode:lr-tb;fill:#000000;fill-opacity:1;fill-rule:nonzero;stroke:none"
           transform="matrix(1,0,0,-1,70.491874,29.022609)">
          <tspan
             id="tspan4753"
             y="0"
             x="0">·</tspan>
        </text>
        <text
           id="text4765"
           style="font-variant:normal;font-weight:normal;font-size:5.5999999px;font-family:'DejaVu Sans';-inkscape-font-specification:DejaVuSans;writing-mode:lr-tb;fill:#000000;fill-opacity:1;fill-rule:nonzero;stroke:none"
           transform="matrix(1,0,0,-1,72.267074,29.022609)">
          <tspan
             id="tspan4757"
             y="0"
             x="0">m</tspan>
          <tspan
             id="tspan4759"
             sodipodi:role="line"
             y="-2.24"
             x="5.4824896 7.4984894">-2</tspan>
          <tspan
             id="tspan4761"
             y="0"
             x="11.071553">)</tspan>
          <tspan
             id="tspan4763"
             sodipodi:role="line"
             y="26.257763"
             x="60.27668 62.460682 66.005478 69.432678 70.983879 74.29348 77.73748 81.28788 83.06308 85.975082 89.525482 91.076683 94.139877 97.583878">(halved spike)</tspan>
        </text>
      </g>
    </g>
  </g>
</svg>
