<?xml version="1.0" encoding="UTF-8" standalone="no"?>
<!-- Created with Inkscape (http://www.inkscape.org/) -->

<svg
   xmlns:dc="http://purl.org/dc/elements/1.1/"
   xmlns:cc="http://creativecommons.org/ns#"
   xmlns:rdf="http://www.w3.org/1999/02/22-rdf-syntax-ns#"
   xmlns:svg="http://www.w3.org/2000/svg"
   xmlns="http://www.w3.org/2000/svg"
   xmlns:sodipodi="http://sodipodi.sourceforge.net/DTD/sodipodi-0.dtd"
   xmlns:inkscape="http://www.inkscape.org/namespaces/inkscape"
   width="136.41861mm"
   height="83.449738mm"
   viewBox="0 0 136.41861 83.449738"
   version="1.1"
   id="svg8"
   inkscape:version="0.92.1 r15371"
   sodipodi:docname="TGWHADg.svg">
  <defs
     id="defs2">
    <clipPath
       id="clipPath4583"
       clipPathUnits="userSpaceOnUse">
      <path
         inkscape:connector-curvature="0"
         id="path4581"
         d="M 45.61,47.41 H 351.99 V 204.99 H 45.61 Z" />
    </clipPath>
    <clipPath
       id="clipPath4687"
       clipPathUnits="userSpaceOnUse">
      <path
         inkscape:connector-curvature="0"
         id="path4685"
         d="M 45.61,47.41 H 351.99 V 204.99 H 45.61 Z" />
    </clipPath>
  </defs>
  <sodipodi:namedview
     id="base"
     pagecolor="#ffffff"
     bordercolor="#666666"
     borderopacity="1.0"
     inkscape:pageopacity="0.0"
     inkscape:pageshadow="2"
     inkscape:zoom="0.35"
     inkscape:cx="257.79895"
     inkscape:cy="157.70028"
     inkscape:document-units="mm"
     inkscape:current-layer="layer1"
     showgrid="false"
     fit-margin-top="5"
     fit-margin-left="5"
     fit-margin-right="5"
     fit-margin-bottom="5"
     inkscape:window-width="1916"
     inkscape:window-height="1036"
     inkscape:window-x="0"
     inkscape:window-y="20"
     inkscape:window-maximized="1" />
  <metadata
     id="metadata5">
    <rdf:RDF>
      <cc:Work
         rdf:about="">
        <dc:format>image/svg+xml</dc:format>
        <dc:type
           rdf:resource="http://purl.org/dc/dcmitype/StillImage" />
        <dc:title></dc:title>
      </cc:Work>
    </rdf:RDF>
  </metadata>
  <g
     inkscape:label="Layer 1"
     inkscape:groupmode="layer"
     id="layer1"
     transform="translate(87.864067,-107.10847)">
    <g
       transform="matrix(0.35277777,0,0,-0.35277777,-82.820323,186.625)"
       inkscape:label="compTGWHADg_171003"
       id="g4493">
      <g
         id="g4495" />
      <g
         id="g4497" />
      <g
         id="g4499">
        <text
           id="text4503"
           style="font-variant:normal;font-weight:normal;font-size:12px;font-family:Helvetica;-inkscape-font-specification:Helvetica;writing-mode:lr-tb;fill:#000000;fill-opacity:1;fill-rule:nonzero;stroke:none"
           transform="matrix(1,0,0,-1,136.97,5.64)">
          <tspan
             id="tspan4501"
             sodipodi:role="line"
             y="0"
             x="0 8.6639996 16.667999 25.332001 32.004002 35.34">HADg:</tspan>
        </text>
        <text
           id="text4507"
           style="font-variant:normal;font-weight:normal;font-size:12px;font-family:Helvetica;-inkscape-font-specification:Helvetica;writing-mode:lr-tb;fill:#000000;fill-opacity:1;fill-rule:nonzero;stroke:none"
           transform="matrix(1,0,0,-1,175.65,5.64)">
          <tspan
             id="tspan4505"
             y="0"
             x="0">d</tspan>
        </text>
        <text
           id="text4511"
           style="font-variant:normal;font-weight:normal;font-size:12px;font-family:Helvetica;-inkscape-font-specification:Helvetica;writing-mode:lr-tb;fill:#000000;fill-opacity:1;fill-rule:nonzero;stroke:none"
           transform="matrix(1,0,0,-1,182.32,5.64)">
          <tspan
             id="tspan4509"
             y="0"
             x="0">m</tspan>
        </text>
        <text
           id="text4515"
           style="font-variant:normal;font-weight:normal;font-size:8px;font-family:Helvetica;-inkscape-font-specification:Helvetica;writing-mode:lr-tb;fill:#000000;fill-opacity:1;fill-rule:nonzero;stroke:none"
           transform="matrix(1,0,0,-1,192.32,11.6)">
          <tspan
             id="tspan4513"
             y="0"
             x="0">2</tspan>
        </text>
        <text
           id="text4519"
           style="font-variant:normal;font-weight:normal;font-size:12px;font-family:Symbol;-inkscape-font-specification:Symbol;writing-mode:lr-tb;fill:#000000;fill-opacity:1;fill-rule:nonzero;stroke:none"
           transform="matrix(1,0,0,-1,198.99,5.64)">
          <tspan
             id="tspan4517"
             y="0"
             x="0">⋅</tspan>
        </text>
        <text
           id="text4523"
           style="font-variant:normal;font-weight:normal;font-size:12px;font-family:Symbol;-inkscape-font-specification:Symbol;writing-mode:lr-tb;fill:#000000;fill-opacity:1;fill-rule:nonzero;stroke:none"
           transform="matrix(1,0,0,-1,204.21,5.64)">
          <tspan
             id="tspan4521"
             y="0"
             x="0">°</tspan>
        </text>
        <text
           id="text4527"
           style="font-variant:normal;font-weight:normal;font-size:12px;font-family:Helvetica;-inkscape-font-specification:Helvetica;writing-mode:lr-tb;fill:#000000;fill-opacity:1;fill-rule:nonzero;stroke:none"
           transform="matrix(1,0,0,-1,209.01,5.64)">
          <tspan
             id="tspan4525"
             y="0"
             x="0">C</tspan>
        </text>
        <text
           id="text4531"
           style="font-variant:normal;font-weight:normal;font-size:12px;font-family:Symbol;-inkscape-font-specification:Symbol;writing-mode:lr-tb;fill:#000000;fill-opacity:1;fill-rule:nonzero;stroke:none"
           transform="matrix(1,0,0,-1,219.89,5.64)">
          <tspan
             id="tspan4529"
             y="0"
             x="0">⋅</tspan>
        </text>
        <text
           id="text4535"
           style="font-variant:normal;font-weight:normal;font-size:12px;font-family:Helvetica;-inkscape-font-specification:Helvetica;writing-mode:lr-tb;fill:#000000;fill-opacity:1;fill-rule:nonzero;stroke:none"
           transform="matrix(1,0,0,-1,225.11,5.64)">
          <tspan
             id="tspan4533"
             y="0"
             x="0">g</tspan>
        </text>
        <text
           id="text4539"
           style="font-variant:normal;font-weight:normal;font-size:12px;font-family:Helvetica;-inkscape-font-specification:Helvetica;writing-mode:lr-tb;fill:#000000;fill-opacity:1;fill-rule:nonzero;stroke:none"
           transform="matrix(1,0,0,-1,231.79,5.64)">
          <tspan
             id="tspan4537"
             y="0"
             x="0">r</tspan>
        </text>
        <text
           id="text4543"
           style="font-variant:normal;font-weight:normal;font-size:12px;font-family:Helvetica;-inkscape-font-specification:Helvetica;writing-mode:lr-tb;fill:#000000;fill-opacity:1;fill-rule:nonzero;stroke:none"
           transform="matrix(1,0,0,-1,235.78,5.64)">
          <tspan
             id="tspan4541"
             y="0"
             x="0">a</tspan>
        </text>
        <text
           id="text4547"
           style="font-variant:normal;font-weight:normal;font-size:12px;font-family:Helvetica;-inkscape-font-specification:Helvetica;writing-mode:lr-tb;fill:#000000;fill-opacity:1;fill-rule:nonzero;stroke:none"
           transform="matrix(1,0,0,-1,242.45,5.64)">
          <tspan
             id="tspan4545"
             y="0"
             x="0">i</tspan>
        </text>
        <text
           id="text4551"
           style="font-variant:normal;font-weight:normal;font-size:12px;font-family:Helvetica;-inkscape-font-specification:Helvetica;writing-mode:lr-tb;fill:#000000;fill-opacity:1;fill-rule:nonzero;stroke:none"
           transform="matrix(1,0,0,-1,245.12,5.64)">
          <tspan
             id="tspan4549"
             y="0"
             x="0">n</tspan>
        </text>
        <text
           id="text4555"
           style="font-variant:normal;font-weight:normal;font-size:8px;font-family:Symbol;-inkscape-font-specification:Symbol;writing-mode:lr-tb;fill:#000000;fill-opacity:1;fill-rule:nonzero;stroke:none"
           transform="matrix(1,0,0,-1,251.79,11.6)">
          <tspan
             id="tspan4553"
             y="0"
             x="0">−</tspan>
        </text>
        <text
           id="text4559"
           style="font-variant:normal;font-weight:normal;font-size:8px;font-family:Helvetica;-inkscape-font-specification:Helvetica;writing-mode:lr-tb;fill:#000000;fill-opacity:1;fill-rule:nonzero;stroke:none"
           transform="matrix(1,0,0,-1,256.18,11.6)">
          <tspan
             id="tspan4557"
             y="0"
             x="0">1</tspan>
        </text>
      </g>
      <g
         id="g4561">
        <text
           id="text4565"
           style="font-variant:normal;font-weight:normal;font-size:12px;font-family:Helvetica;-inkscape-font-specification:Helvetica;writing-mode:lr-tb;fill:#000000;fill-opacity:1;fill-rule:nonzero;stroke:none"
           transform="matrix(0,1,1,0,8.84,105.53)">
          <tspan
             id="tspan4563"
             sodipodi:role="line"
             y="0"
             x="0 7.3319998 16.667999 27.996 31.332001">TGW:</tspan>
        </text>
        <text
           id="text4569"
           style="font-variant:normal;font-weight:normal;font-size:12px;font-family:Helvetica;-inkscape-font-specification:Helvetica;writing-mode:lr-tb;fill:#000000;fill-opacity:1;fill-rule:nonzero;stroke:none"
           transform="matrix(0,1,1,0,8.84,140.2)">
          <tspan
             id="tspan4567"
             y="0"
             x="0">g</tspan>
        </text>
      </g>
      <g
         id="g4571" />
      <g
         id="g4573" />
      <g
         id="g4575" />
      <g
         id="g4577">
        <g
           clip-path="url(#clipPath4583)"
           id="g4579">
          <path
             inkscape:connector-curvature="0"
             id="path4585"
             style="fill:#ffffff;fill-opacity:1;fill-rule:nonzero;stroke:none"
             d="M 45.61,47.41 H 351.99 V 204.99 H 45.61 Z" />
        </g>
      </g>
      <g
         id="g4587" />
      <g
         id="g4589">
        <path
           inkscape:connector-curvature="0"
           id="path4591"
           style="fill:none;stroke:#a6a6a6;stroke-width:1.12;stroke-linecap:round;stroke-linejoin:round;stroke-miterlimit:10;stroke-dasharray:none;stroke-opacity:1"
           d="m 64.42,204.99 v 5.67" />
        <path
           inkscape:connector-curvature="0"
           id="path4593"
           style="fill:none;stroke:#a6a6a6;stroke-width:1.12;stroke-linecap:round;stroke-linejoin:round;stroke-miterlimit:10;stroke-dasharray:none;stroke-opacity:1"
           d="m 116.76,204.99 v 5.67" />
        <path
           inkscape:connector-curvature="0"
           id="path4595"
           style="fill:none;stroke:#a6a6a6;stroke-width:1.12;stroke-linecap:round;stroke-linejoin:round;stroke-miterlimit:10;stroke-dasharray:none;stroke-opacity:1"
           d="m 169.1,204.99 v 5.67" />
        <path
           inkscape:connector-curvature="0"
           id="path4597"
           style="fill:none;stroke:#a6a6a6;stroke-width:1.12;stroke-linecap:round;stroke-linejoin:round;stroke-miterlimit:10;stroke-dasharray:none;stroke-opacity:1"
           d="m 221.43,204.99 v 5.67" />
        <path
           inkscape:connector-curvature="0"
           id="path4599"
           style="fill:none;stroke:#a6a6a6;stroke-width:1.12;stroke-linecap:round;stroke-linejoin:round;stroke-miterlimit:10;stroke-dasharray:none;stroke-opacity:1"
           d="m 273.77,204.99 v 5.67" />
        <path
           inkscape:connector-curvature="0"
           id="path4601"
           style="fill:none;stroke:#a6a6a6;stroke-width:1.12;stroke-linecap:round;stroke-linejoin:round;stroke-miterlimit:10;stroke-dasharray:none;stroke-opacity:1"
           d="m 326.11,204.99 v 5.67" />
      </g>
      <g
         id="g4603" />
      <g
         id="g4605">
        <path
           inkscape:connector-curvature="0"
           id="path4607"
           style="fill:none;stroke:#a6a6a6;stroke-width:1.12;stroke-linecap:round;stroke-linejoin:round;stroke-miterlimit:10;stroke-dasharray:none;stroke-opacity:1"
           d="M 45.61,57.09 H 39.94" />
        <path
           inkscape:connector-curvature="0"
           id="path4609"
           style="fill:none;stroke:#a6a6a6;stroke-width:1.12;stroke-linecap:round;stroke-linejoin:round;stroke-miterlimit:10;stroke-dasharray:none;stroke-opacity:1"
           d="M 45.61,99.1 H 39.94" />
        <path
           inkscape:connector-curvature="0"
           id="path4611"
           style="fill:none;stroke:#a6a6a6;stroke-width:1.12;stroke-linecap:round;stroke-linejoin:round;stroke-miterlimit:10;stroke-dasharray:none;stroke-opacity:1"
           d="M 45.61,141.11 H 39.94" />
        <path
           inkscape:connector-curvature="0"
           id="path4613"
           style="fill:none;stroke:#a6a6a6;stroke-width:1.12;stroke-linecap:round;stroke-linejoin:round;stroke-miterlimit:10;stroke-dasharray:none;stroke-opacity:1"
           d="M 45.61,183.12 H 39.94" />
        <text
           id="text4617"
           style="font-variant:normal;font-weight:normal;font-size:10px;font-family:Helvetica;-inkscape-font-specification:Helvetica;writing-mode:lr-tb;fill:#000000;fill-opacity:1;fill-rule:nonzero;stroke:none"
           transform="matrix(1,0,0,-1,28.71,53.5)">
          <tspan
             id="tspan4615"
             y="0"
             x="0">0</tspan>
        </text>
        <text
           id="text4621"
           style="font-variant:normal;font-weight:normal;font-size:10px;font-family:Helvetica;-inkscape-font-specification:Helvetica;writing-mode:lr-tb;fill:#000000;fill-opacity:1;fill-rule:nonzero;stroke:none"
           transform="matrix(1,0,0,-1,23.15,95.51)">
          <tspan
             id="tspan4619"
             sodipodi:role="line"
             y="0"
             x="0 5.5599999">20</tspan>
        </text>
        <text
           id="text4625"
           style="font-variant:normal;font-weight:normal;font-size:10px;font-family:Helvetica;-inkscape-font-specification:Helvetica;writing-mode:lr-tb;fill:#000000;fill-opacity:1;fill-rule:nonzero;stroke:none"
           transform="matrix(1,0,0,-1,23.15,137.52)">
          <tspan
             id="tspan4623"
             sodipodi:role="line"
             y="0"
             x="0 5.5599999">40</tspan>
        </text>
        <text
           id="text4629"
           style="font-variant:normal;font-weight:normal;font-size:10px;font-family:Helvetica;-inkscape-font-specification:Helvetica;writing-mode:lr-tb;fill:#000000;fill-opacity:1;fill-rule:nonzero;stroke:none"
           transform="matrix(1,0,0,-1,23.15,179.53)">
          <tspan
             id="tspan4627"
             sodipodi:role="line"
             y="0"
             x="0 5.5599999">60</tspan>
        </text>
      </g>
      <g
         id="g4631" />
      <g
         id="g4633">
        <path
           inkscape:connector-curvature="0"
           id="path4635"
           style="fill:none;stroke:#a6a6a6;stroke-width:1.12;stroke-linecap:round;stroke-linejoin:round;stroke-miterlimit:10;stroke-dasharray:none;stroke-opacity:1"
           d="M 64.42,47.41 V 41.74" />
        <path
           inkscape:connector-curvature="0"
           id="path4637"
           style="fill:none;stroke:#a6a6a6;stroke-width:1.12;stroke-linecap:round;stroke-linejoin:round;stroke-miterlimit:10;stroke-dasharray:none;stroke-opacity:1"
           d="M 116.76,47.41 V 41.74" />
        <path
           inkscape:connector-curvature="0"
           id="path4639"
           style="fill:none;stroke:#a6a6a6;stroke-width:1.12;stroke-linecap:round;stroke-linejoin:round;stroke-miterlimit:10;stroke-dasharray:none;stroke-opacity:1"
           d="M 169.1,47.41 V 41.74" />
        <path
           inkscape:connector-curvature="0"
           id="path4641"
           style="fill:none;stroke:#a6a6a6;stroke-width:1.12;stroke-linecap:round;stroke-linejoin:round;stroke-miterlimit:10;stroke-dasharray:none;stroke-opacity:1"
           d="M 221.43,47.41 V 41.74" />
        <path
           inkscape:connector-curvature="0"
           id="path4643"
           style="fill:none;stroke:#a6a6a6;stroke-width:1.12;stroke-linecap:round;stroke-linejoin:round;stroke-miterlimit:10;stroke-dasharray:none;stroke-opacity:1"
           d="M 273.77,47.41 V 41.74" />
        <path
           inkscape:connector-curvature="0"
           id="path4645"
           style="fill:none;stroke:#a6a6a6;stroke-width:1.12;stroke-linecap:round;stroke-linejoin:round;stroke-miterlimit:10;stroke-dasharray:none;stroke-opacity:1"
           d="M 326.11,47.41 V 41.74" />
        <text
           id="text4649"
           style="font-variant:normal;font-weight:normal;font-size:10px;font-family:Helvetica;-inkscape-font-specification:Helvetica;writing-mode:lr-tb;fill:#000000;fill-opacity:1;fill-rule:nonzero;stroke:none"
           transform="matrix(1,0,0,-1,61.64,28.9)">
          <tspan
             id="tspan4647"
             y="0"
             x="0">0</tspan>
        </text>
        <text
           id="text4653"
           style="font-variant:normal;font-weight:normal;font-size:10px;font-family:Helvetica;-inkscape-font-specification:Helvetica;writing-mode:lr-tb;fill:#000000;fill-opacity:1;fill-rule:nonzero;stroke:none"
           transform="matrix(1,0,0,-1,113.98,28.9)">
          <tspan
             id="tspan4651"
             y="0"
             x="0">5</tspan>
        </text>
        <text
           id="text4657"
           style="font-variant:normal;font-weight:normal;font-size:10px;font-family:Helvetica;-inkscape-font-specification:Helvetica;writing-mode:lr-tb;fill:#000000;fill-opacity:1;fill-rule:nonzero;stroke:none"
           transform="matrix(1,0,0,-1,163.54,28.9)">
          <tspan
             id="tspan4655"
             sodipodi:role="line"
             y="0"
             x="0 5.5599999">10</tspan>
        </text>
        <text
           id="text4661"
           style="font-variant:normal;font-weight:normal;font-size:10px;font-family:Helvetica;-inkscape-font-specification:Helvetica;writing-mode:lr-tb;fill:#000000;fill-opacity:1;fill-rule:nonzero;stroke:none"
           transform="matrix(1,0,0,-1,215.87,28.9)">
          <tspan
             id="tspan4659"
             sodipodi:role="line"
             y="0"
             x="0 5.5599999">15</tspan>
        </text>
        <text
           id="text4665"
           style="font-variant:normal;font-weight:normal;font-size:10px;font-family:Helvetica;-inkscape-font-specification:Helvetica;writing-mode:lr-tb;fill:#000000;fill-opacity:1;fill-rule:nonzero;stroke:none"
           transform="matrix(1,0,0,-1,268.21,28.9)">
          <tspan
             id="tspan4663"
             sodipodi:role="line"
             y="0"
             x="0 5.5599999">20</tspan>
        </text>
        <text
           id="text4669"
           style="font-variant:normal;font-weight:normal;font-size:10px;font-family:Helvetica;-inkscape-font-specification:Helvetica;writing-mode:lr-tb;fill:#000000;fill-opacity:1;fill-rule:nonzero;stroke:none"
           transform="matrix(1,0,0,-1,320.55,28.9)">
          <tspan
             id="tspan4667"
             sodipodi:role="line"
             y="0"
             x="0 5.5599999">25</tspan>
        </text>
        <path
           inkscape:connector-curvature="0"
           id="path4671"
           style="fill:none;stroke:#a6a6a6;stroke-width:1.12;stroke-linecap:round;stroke-linejoin:round;stroke-miterlimit:10;stroke-dasharray:none;stroke-opacity:1"
           d="m 351.99,57.09 h 5.67" />
        <path
           inkscape:connector-curvature="0"
           id="path4673"
           style="fill:none;stroke:#a6a6a6;stroke-width:1.12;stroke-linecap:round;stroke-linejoin:round;stroke-miterlimit:10;stroke-dasharray:none;stroke-opacity:1"
           d="m 351.99,99.1 h 5.67" />
        <path
           inkscape:connector-curvature="0"
           id="path4675"
           style="fill:none;stroke:#a6a6a6;stroke-width:1.12;stroke-linecap:round;stroke-linejoin:round;stroke-miterlimit:10;stroke-dasharray:none;stroke-opacity:1"
           d="m 351.99,141.11 h 5.67" />
        <path
           inkscape:connector-curvature="0"
           id="path4677"
           style="fill:none;stroke:#a6a6a6;stroke-width:1.12;stroke-linecap:round;stroke-linejoin:round;stroke-miterlimit:10;stroke-dasharray:none;stroke-opacity:1"
           d="m 351.99,183.12 h 5.67" />
      </g>
      <g
         id="g4679" />
      <g
         id="g4681">
        <g
           clip-path="url(#clipPath4687)"
           id="g4683">
          <path
             inkscape:connector-curvature="0"
             id="path4689"
             style="fill:none;stroke:#e5e5e5;stroke-width:0.75;stroke-linecap:round;stroke-linejoin:round;stroke-miterlimit:10;stroke-dasharray:none;stroke-opacity:1"
             d="M 45.61,57.09 H 351.99" />
          <path
             inkscape:connector-curvature="0"
             id="path4691"
             style="fill:none;stroke:#e5e5e5;stroke-width:0.75;stroke-linecap:round;stroke-linejoin:round;stroke-miterlimit:10;stroke-dasharray:none;stroke-opacity:1"
             d="M 45.61,99.1 H 351.99" />
          <path
             inkscape:connector-curvature="0"
             id="path4693"
             style="fill:none;stroke:#e5e5e5;stroke-width:0.75;stroke-linecap:round;stroke-linejoin:round;stroke-miterlimit:10;stroke-dasharray:none;stroke-opacity:1"
             d="M 45.61,141.11 H 351.99" />
          <path
             inkscape:connector-curvature="0"
             id="path4695"
             style="fill:none;stroke:#e5e5e5;stroke-width:0.75;stroke-linecap:round;stroke-linejoin:round;stroke-miterlimit:10;stroke-dasharray:none;stroke-opacity:1"
             d="M 45.61,183.12 H 351.99" />
          <path
             inkscape:connector-curvature="0"
             id="path4697"
             style="fill:none;stroke:#e5e5e5;stroke-width:0.75;stroke-linecap:round;stroke-linejoin:round;stroke-miterlimit:10;stroke-dasharray:none;stroke-opacity:1"
             d="M 64.42,47.41 V 204.99" />
          <path
             inkscape:connector-curvature="0"
             id="path4699"
             style="fill:none;stroke:#e5e5e5;stroke-width:0.75;stroke-linecap:round;stroke-linejoin:round;stroke-miterlimit:10;stroke-dasharray:none;stroke-opacity:1"
             d="M 116.76,47.41 V 204.99" />
          <path
             inkscape:connector-curvature="0"
             id="path4701"
             style="fill:none;stroke:#e5e5e5;stroke-width:0.75;stroke-linecap:round;stroke-linejoin:round;stroke-miterlimit:10;stroke-dasharray:none;stroke-opacity:1"
             d="M 169.1,47.41 V 204.99" />
          <path
             inkscape:connector-curvature="0"
             id="path4703"
             style="fill:none;stroke:#e5e5e5;stroke-width:0.75;stroke-linecap:round;stroke-linejoin:round;stroke-miterlimit:10;stroke-dasharray:none;stroke-opacity:1"
             d="M 221.43,47.41 V 204.99" />
          <path
             inkscape:connector-curvature="0"
             id="path4705"
             style="fill:none;stroke:#e5e5e5;stroke-width:0.75;stroke-linecap:round;stroke-linejoin:round;stroke-miterlimit:10;stroke-dasharray:none;stroke-opacity:1"
             d="M 273.77,47.41 V 204.99" />
          <path
             inkscape:connector-curvature="0"
             id="path4707"
             style="fill:none;stroke:#e5e5e5;stroke-width:0.75;stroke-linecap:round;stroke-linejoin:round;stroke-miterlimit:10;stroke-dasharray:none;stroke-opacity:1"
             d="M 326.11,47.41 V 204.99" />
          <path
             inkscape:connector-curvature="0"
             id="path4709"
             style="fill:none;stroke:#737373;stroke-width:0.75;stroke-linecap:round;stroke-linejoin:round;stroke-miterlimit:10;stroke-dasharray:none;stroke-opacity:1"
             d="M 45.61,57.09 H 351.99" />
          <path
             inkscape:connector-curvature="0"
             id="path4711"
             style="fill:none;stroke:#737373;stroke-width:0.75;stroke-linecap:round;stroke-linejoin:round;stroke-miterlimit:10;stroke-dasharray:none;stroke-opacity:1"
             d="M 64.42,47.41 V 204.99" />
          <path
             inkscape:connector-curvature="0"
             id="path4713"
             style="fill:none;stroke:#8b7355;stroke-width:1.5;stroke-linecap:round;stroke-linejoin:round;stroke-miterlimit:10;stroke-dasharray:none;stroke-opacity:1"
             d="m 106.35,128.69 0.54,0.63 0.54,0.62 0.53,0.62 0.54,0.61 0.54,0.6 0.54,0.6 0.53,0.6 0.54,0.59 0.54,0.58 0.54,0.58 0.53,0.57 0.54,0.57 0.54,0.56 0.54,0.56 0.53,0.55 0.54,0.55 0.54,0.54 0.54,0.54 0.53,0.53 0.54,0.53 0.54,0.52 0.54,0.52 0.53,0.51 0.54,0.51 0.54,0.51 0.54,0.5 0.53,0.49 0.54,0.49 0.54,0.49 0.54,0.48 0.53,0.48 0.54,0.47 0.54,0.47 0.54,0.46 0.53,0.47 0.54,0.45 0.54,0.45 0.54,0.45 0.53,0.45 0.54,0.44 0.54,0.43 0.54,0.43 0.53,0.43 0.54,0.43 0.54,0.42 0.54,0.41 0.53,0.42 0.54,0.4 0.54,0.41 0.54,0.4 0.53,0.4 0.54,0.39 0.54,0.39 0.54,0.39 0.53,0.39 0.54,0.38 0.54,0.37 0.54,0.38 0.53,0.37 0.54,0.36 0.54,0.37 0.54,0.36 0.53,0.35 0.54,0.36 0.54,0.35 0.54,0.35 0.53,0.34 0.54,0.34 0.54,0.34 0.54,0.33 0.53,0.33 0.54,0.33 0.54,0.33 0.54,0.32 0.53,0.32 0.54,0.32 0.54,0.31 0.54,0.31 0.53,0.31 0.54,0.31 0.54,0.3 0.54,0.3 0.53,0.3 0.54,0.29 0.54,0.3 0.54,0.29 0.53,0.28 0.54,0.29 0.54,0.28 0.54,0.28 0.53,0.27 0.54,0.28 0.54,0.27 0.54,0.27 0.53,0.27 0.54,0.26 0.54,0.26 0.54,0.26 0.53,0.26 0.54,0.25 0.54,0.26 0.54,0.25 0.53,0.24 0.54,0.25 0.54,0.24 0.54,0.24 0.53,0.24 0.54,0.24 0.54,0.23 0.54,0.24 0.53,0.23 0.54,0.23 0.54,0.22 0.54,0.23 0.53,0.22 0.54,0.22 0.54,0.22 0.54,0.21 0.53,0.22 0.54,0.21 0.54,0.21 0.54,0.21 0.53,0.21 0.54,0.2 0.54,0.2 0.54,0.21 0.53,0.19 0.54,0.2 0.54,0.2 0.54,0.19 0.53,0.19 0.54,0.19 0.54,0.19 0.54,0.19 0.53,0.19 0.54,0.18 0.54,0.18 0.54,0.18 0.53,0.18 0.54,0.18 0.54,0.17 0.54,0.18 0.53,0.17 0.54,0.17 0.54,0.17 0.54,0.17 0.53,0.16 0.54,0.17 0.54,0.16 0.54,0.16 0.53,0.16 0.54,0.16 0.54,0.16 0.54,0.15 0.53,0.16 0.54,0.15 0.54,0.15 0.54,0.15 0.53,0.15 0.54,0.15 0.54,0.15 0.54,0.14 0.53,0.14 0.54,0.15 0.54,0.14 0.54,0.14 0.53,0.14 0.54,0.13 0.54,0.14 0.54,0.13 0.53,0.14 0.54,0.13 0.54,0.13 0.54,0.13 0.53,0.13 0.54,0.13 0.54,0.12 0.54,0.13 0.53,0.12 0.54,0.13 0.54,0.12 0.54,0.12 0.53,0.12 0.54,0.12 0.54,0.11 0.54,0.12 0.53,0.12 0.54,0.11 0.54,0.11 0.54,0.12 0.53,0.11 0.54,0.11 0.54,0.11 0.54,0.1 0.53,0.11 0.54,0.11 0.54,0.1 0.54,0.11 0.53,0.1 0.54,0.1 0.54,0.11 0.54,0.1 0.53,0.1 0.54,0.1 0.54,0.09 0.54,0.1 0.53,0.1 0.54,0.09 0.54,0.1 0.54,0.09 0.53,0.09 0.54,0.09 0.54,0.1 0.54,0.09 0.53,0.09 0.54,0.08 0.54,0.09 0.54,0.09 0.53,0.08 0.54,0.09 0.54,0.09 0.54,0.08 0.53,0.08 0.54,0.08 0.54,0.09 0.54,0.08 0.54,0.08 0.53,0.08 0.54,0.08 0.54,0.07 0.54,0.08 0.53,0.08 0.54,0.07 0.54,0.08 0.54,0.07 0.53,0.08 0.54,0.07 0.54,0.07 0.54,0.07 0.53,0.08 0.54,0.07 0.54,0.07 0.54,0.07 0.53,0.06 0.54,0.07 0.54,0.07 0.54,0.07 0.53,0.06 0.54,0.07 0.54,0.06 0.54,0.07 0.53,0.06 0.54,0.07 0.54,0.06 0.54,0.06 0.53,0.06 0.54,0.06 0.54,0.06 0.54,0.06 0.53,0.06 0.54,0.06 0.54,0.06 0.54,0.06 0.53,0.06 0.54,0.05 0.54,0.06 0.54,0.05 0.53,0.06 0.54,0.05 0.54,0.06 0.54,0.05 0.53,0.05 0.54,0.06 0.54,0.05 0.54,0.05 0.53,0.05 0.54,0.05 0.54,0.05 0.54,0.05 0.53,0.05 0.54,0.05 0.54,0.05 0.54,0.05 0.53,0.05 0.54,0.04 0.54,0.05 0.54,0.05 0.53,0.04 0.54,0.05 0.54,0.04 0.54,0.05 0.53,0.04 0.54,0.05 0.54,0.04 0.54,0.04 0.53,0.05 0.54,0.04 0.54,0.04 0.54,0.04 0.53,0.04 0.54,0.05 0.54,0.04 0.54,0.04 0.53,0.04 0.54,0.04 0.54,0.03 0.54,0.04 0.53,0.04 0.54,0.04 0.54,0.04 0.54,0.03 0.53,0.04 0.54,0.04 0.54,0.03 0.54,0.04 0.53,0.04 0.54,0.03 0.54,0.04 0.54,0.03 0.53,0.04 0.54,0.03 0.54,0.03 0.54,0.04 0.53,0.03 0.54,0.03 0.54,0.04 0.54,0.03 0.53,0.03 0.54,0.03 0.54,0.03 0.54,0.03 0.53,0.03 0.54,0.04 0.54,0.03 0.54,0.03 0.53,0.03 0.54,0.02 0.54,0.03 0.54,0.03 0.53,0.03 0.54,0.03 0.54,0.03 0.54,0.03 0.53,0.02 0.54,0.03 0.54,0.03 0.54,0.03 0.53,0.02 0.54,0.03 0.54,0.02 0.54,0.03 0.53,0.03 0.54,0.02 0.54,0.03 0.54,0.02 0.53,0.03 0.54,0.02 0.54,0.03 0.54,0.02 0.53,0.02 0.54,0.03 0.54,0.02 0.54,0.02 0.53,0.03 0.54,0.02 0.54,0.02 0.54,0.02 0.53,0.03 0.54,0.02 0.54,0.02 0.54,0.02 0.53,0.02 0.54,0.03 0.54,0.02 0.54,0.02 0.53,0.02 0.54,0.02 0.54,0.02 0.54,0.02 0.53,0.02 0.54,0.02 0.54,0.02 0.54,0.02 0.53,0.02 0.54,0.02 0.54,0.01 0.54,0.02 0.53,0.02 0.54,0.02 0.54,0.02 0.54,0.02 0.53,0.01 0.54,0.02 0.54,0.02 0.54,0.02 0.53,0.01 0.54,0.02 0.54,0.02 0.54,0.01 0.53,0.02 0.54,0.02 0.54,0.01 0.54,0.02 0.53,0.02 0.54,0.01 0.54,0.02 0.54,0.01 0.53,0.02 0.54,0.01 0.54,0.02 0.54,0.01 0.53,0.02 0.54,0.01 0.54,0.02 0.54,0.01 0.53,0.02 0.54,0.01 0.54,0.02 0.54,0.01 0.53,0.01 0.54,0.02 0.54,0.01 0.54,0.01 0.53,0.02 0.54,0.01 0.54,0.01 0.54,0.02 0.53,0.01 0.54,0.01 0.54,0.01 0.54,0.02 0.53,0.01 0.54,0.01 0.54,0.01 0.54,0.02 0.53,0.01 0.54,0.01 0.54,0.01 0.54,0.01 0.53,0.02 0.54,0.01 0.54,0.01 0.54,0.01 0.53,0.01 0.54,0.01 0.54,0.01 0.54,0.01 0.53,0.01 0.54,0.01 0.54,0.01 0.54,0.02 0.53,0.01 0.54,0.01 0.54,0.01 0.54,0.01 0.53,0.01 0.54,0.01 0.54,0.01 0.54,0.01 0.53,0.01 h 0.54 l 0.54,0.01 0.54,0.01 0.53,0.01 0.54,0.01 0.54,0.01 0.54,0.01 0.53,0.01 0.54,0.01 0.54,0.01 0.54,0.01 H 360" />
          <path
             inkscape:connector-curvature="0"
             id="path4715"
             style="fill:none;stroke:#8b7355;stroke-width:1.5;stroke-linecap:round;stroke-linejoin:round;stroke-miterlimit:10;stroke-dasharray:4.5, 7.5;stroke-dashoffset:0;stroke-opacity:1"
             d="m 64.42,57.09 0.54,1.28 0.54,1.26 0.54,1.25 0.53,1.25 0.54,1.23 0.54,1.22 0.54,1.2 0.53,1.2 0.54,1.19 0.54,1.17 0.54,1.17 0.53,1.15 0.54,1.15 0.54,1.13 0.54,1.13 0.53,1.11 0.54,1.1 0.54,1.1 0.54,1.08 0.53,1.07 0.54,1.07 0.54,1.05 0.54,1.05 0.53,1.03 0.54,1.03 0.54,1.01 0.54,1.01 0.53,1 0.54,0.99 0.54,0.98 0.54,0.97 0.53,0.96 0.54,0.96 0.54,0.94 0.54,0.94 0.54,0.93 0.53,0.92 0.54,0.91 0.54,0.9 0.54,0.9 0.53,0.88 0.54,0.88 0.54,0.87 0.54,0.86 0.53,0.86 0.54,0.85 0.54,0.84 0.54,0.83 0.53,0.82 0.54,0.82 0.54,0.81 0.54,0.8 0.53,0.8 0.54,0.79 0.54,0.78 0.54,0.77 0.53,0.77 0.54,0.76 0.54,0.75 0.54,0.74 0.53,0.74 0.54,0.74 0.54,0.72 0.54,0.72 0.53,0.71 0.54,0.71 0.54,0.7 0.54,0.69 0.53,0.69 0.54,0.68 0.54,0.68 0.54,0.67 0.53,0.66 0.54,0.65 0.54,0.66 0.54,0.64 0.53,0.64" />
          <path
             inkscape:connector-curvature="0"
             id="path4717"
             style="fill:none;stroke:#ee9a00;stroke-width:1.88;stroke-linecap:round;stroke-linejoin:round;stroke-miterlimit:10;stroke-dasharray:none;stroke-opacity:0.69800002"
             d="m 180.61,177.09 c 0,1.81 1.48,3.3 3.3,3.3 1.81,0 3.3,-1.49 3.3,-3.3 0,-1.82 -1.49,-3.3 -3.3,-3.3 -1.82,0 -3.3,1.48 -3.3,3.3" />
          <path
             inkscape:connector-curvature="0"
             id="path4719"
             style="fill:none;stroke:#ee9a00;stroke-width:1.88;stroke-linecap:round;stroke-linejoin:round;stroke-miterlimit:10;stroke-dasharray:none;stroke-opacity:0.69800002"
             d="m 168.76,163.27 c 0,1.81 1.49,3.3 3.3,3.3 1.82,0 3.3,-1.49 3.3,-3.3 0,-1.82 -1.48,-3.3 -3.3,-3.3 -1.81,0 -3.3,1.48 -3.3,3.3" />
          <path
             inkscape:connector-curvature="0"
             id="path4721"
             style="fill:none;stroke:#ee9a00;stroke-width:1.88;stroke-linecap:round;stroke-linejoin:round;stroke-miterlimit:10;stroke-dasharray:none;stroke-opacity:0.69800002"
             d="m 165,165 c 0,1.81 1.49,3.3 3.3,3.3 1.82,0 3.3,-1.49 3.3,-3.3 0,-1.82 -1.48,-3.3 -3.3,-3.3 -1.81,0 -3.3,1.48 -3.3,3.3" />
          <path
             inkscape:connector-curvature="0"
             id="path4723"
             style="fill:none;stroke:#ee9a00;stroke-width:1.88;stroke-linecap:round;stroke-linejoin:round;stroke-miterlimit:10;stroke-dasharray:none;stroke-opacity:0.69800002"
             d="m 146.47,164.74 c 0,1.82 1.48,3.3 3.3,3.3 1.81,0 3.3,-1.48 3.3,-3.3 0,-1.81 -1.49,-3.3 -3.3,-3.3 -1.82,0 -3.3,1.49 -3.3,3.3" />
          <path
             inkscape:connector-curvature="0"
             id="path4725"
             style="fill:none;stroke:#ee9a00;stroke-width:1.88;stroke-linecap:round;stroke-linejoin:round;stroke-miterlimit:10;stroke-dasharray:none;stroke-opacity:0.69800002"
             d="m 162.15,162.84 c 0,1.81 1.48,3.3 3.3,3.3 1.81,0 3.3,-1.49 3.3,-3.3 0,-1.82 -1.49,-3.3 -3.3,-3.3 -1.82,0 -3.3,1.48 -3.3,3.3" />
          <path
             inkscape:connector-curvature="0"
             id="path4727"
             style="fill:none;stroke:#ee9a00;stroke-width:1.88;stroke-linecap:round;stroke-linejoin:round;stroke-miterlimit:10;stroke-dasharray:none;stroke-opacity:0.69800002"
             d="m 178.03,161.59 c 0,1.82 1.49,3.3 3.3,3.3 1.82,0 3.3,-1.48 3.3,-3.3 0,-1.81 -1.48,-3.3 -3.3,-3.3 -1.81,0 -3.3,1.49 -3.3,3.3" />
          <path
             inkscape:connector-curvature="0"
             id="path4729"
             style="fill:#ee9a00;fill-opacity:0.69800002;fill-rule:nonzero;stroke:#ee9a00;stroke-width:1.88;stroke-linecap:round;stroke-linejoin:round;stroke-miterlimit:10;stroke-dasharray:none;stroke-opacity:0.69800002"
             d="m 137.46,155.46 c 0,1.81 1.49,3.3 3.3,3.3 1.82,0 3.3,-1.49 3.3,-3.3 0,-1.82 -1.48,-3.3 -3.3,-3.3 -1.81,0 -3.3,1.48 -3.3,3.3" />
          <path
             inkscape:connector-curvature="0"
             id="path4731"
             style="fill:#ee9a00;fill-opacity:0.69800002;fill-rule:nonzero;stroke:#ee9a00;stroke-width:1.88;stroke-linecap:round;stroke-linejoin:round;stroke-miterlimit:10;stroke-dasharray:none;stroke-opacity:0.69800002"
             d="m 136.46,146.83 c 0,1.81 1.49,3.3 3.3,3.3 1.82,0 3.3,-1.49 3.3,-3.3 0,-1.82 -1.48,-3.3 -3.3,-3.3 -1.81,0 -3.3,1.48 -3.3,3.3" />
          <path
             inkscape:connector-curvature="0"
             id="path4733"
             style="fill:#ee9a00;fill-opacity:0.69800002;fill-rule:nonzero;stroke:#ee9a00;stroke-width:1.88;stroke-linecap:round;stroke-linejoin:round;stroke-miterlimit:10;stroke-dasharray:none;stroke-opacity:0.69800002"
             d="m 132.58,138.35 c 0,1.81 1.49,3.3 3.3,3.3 1.82,0 3.3,-1.49 3.3,-3.3 0,-1.82 -1.48,-3.3 -3.3,-3.3 -1.81,0 -3.3,1.48 -3.3,3.3" />
          <path
             inkscape:connector-curvature="0"
             id="path4735"
             style="fill:#ee9a00;fill-opacity:0.69800002;fill-rule:nonzero;stroke:#ee9a00;stroke-width:1.88;stroke-linecap:round;stroke-linejoin:round;stroke-miterlimit:10;stroke-dasharray:none;stroke-opacity:0.69800002"
             d="m 130.78,156.67 c 0,1.82 1.49,3.3 3.3,3.3 1.82,0 3.3,-1.48 3.3,-3.3 0,-1.81 -1.48,-3.3 -3.3,-3.3 -1.81,0 -3.3,1.49 -3.3,3.3" />
          <path
             inkscape:connector-curvature="0"
             id="path4737"
             style="fill:#ee9a00;fill-opacity:0.69800002;fill-rule:nonzero;stroke:#ee9a00;stroke-width:1.88;stroke-linecap:round;stroke-linejoin:round;stroke-miterlimit:10;stroke-dasharray:none;stroke-opacity:0.69800002"
             d="m 132.64,147.1 c 0,1.82 1.49,3.3 3.3,3.3 1.82,0 3.3,-1.48 3.3,-3.3 0,-1.81 -1.48,-3.3 -3.3,-3.3 -1.81,0 -3.3,1.49 -3.3,3.3" />
          <path
             inkscape:connector-curvature="0"
             id="path4739"
             style="fill:#ee9a00;fill-opacity:0.69800002;fill-rule:nonzero;stroke:#ee9a00;stroke-width:1.88;stroke-linecap:round;stroke-linejoin:round;stroke-miterlimit:10;stroke-dasharray:none;stroke-opacity:0.69800002"
             d="m 144.88,151.85 c 0,1.81 1.49,3.3 3.3,3.3 1.82,0 3.3,-1.49 3.3,-3.3 0,-1.82 -1.48,-3.3 -3.3,-3.3 -1.81,0 -3.3,1.48 -3.3,3.3" />
          <path
             inkscape:connector-curvature="0"
             id="path4741"
             style="fill:none;stroke:#1874cd;stroke-width:1.88;stroke-linecap:round;stroke-linejoin:round;stroke-miterlimit:10;stroke-dasharray:none;stroke-opacity:0.69800002"
             d="m 140.13,147.83 4.45,-7.7 h -8.89 l 4.44,7.7" />
          <path
             inkscape:connector-curvature="0"
             id="path4743"
             style="fill:none;stroke:#1874cd;stroke-width:1.88;stroke-linecap:round;stroke-linejoin:round;stroke-miterlimit:10;stroke-dasharray:none;stroke-opacity:0.69800002"
             d="m 194.3,153.45 4.45,-7.7 h -8.89 l 4.44,7.7" />
          <path
             inkscape:connector-curvature="0"
             id="path4745"
             style="fill:none;stroke:#1874cd;stroke-width:1.88;stroke-linecap:round;stroke-linejoin:round;stroke-miterlimit:10;stroke-dasharray:none;stroke-opacity:0.69800002"
             d="m 175.86,177.9 4.45,-7.7 h -8.89 l 4.44,7.7" />
          <path
             inkscape:connector-curvature="0"
             id="path4747"
             style="fill:none;stroke:#1874cd;stroke-width:1.88;stroke-linecap:round;stroke-linejoin:round;stroke-miterlimit:10;stroke-dasharray:none;stroke-opacity:0.69800002"
             d="m 151.98,134.39 4.44,-7.7 h -8.89 l 4.45,7.7" />
          <path
             inkscape:connector-curvature="0"
             id="path4749"
             style="fill:none;stroke:#1874cd;stroke-width:1.88;stroke-linecap:round;stroke-linejoin:round;stroke-miterlimit:10;stroke-dasharray:none;stroke-opacity:0.69800002"
             d="m 174.29,165.24 4.44,-7.69 h -8.89 l 4.45,7.69" />
          <path
             inkscape:connector-curvature="0"
             id="path4751"
             style="fill:none;stroke:#1874cd;stroke-width:1.88;stroke-linecap:round;stroke-linejoin:round;stroke-miterlimit:10;stroke-dasharray:none;stroke-opacity:0.69800002"
             d="m 229.22,161.46 4.44,-7.69 h -8.88 l 4.44,7.69" />
          <path
             inkscape:connector-curvature="0"
             id="path4753"
             style="fill:none;stroke:#1874cd;stroke-width:1.88;stroke-linecap:round;stroke-linejoin:round;stroke-miterlimit:10;stroke-dasharray:none;stroke-opacity:0.69800002"
             d="m 189.85,182.88 4.44,-7.7 h -8.88 l 4.44,7.7" />
          <path
             inkscape:connector-curvature="0"
             id="path4755"
             style="fill:none;stroke:#1874cd;stroke-width:1.88;stroke-linecap:round;stroke-linejoin:round;stroke-miterlimit:10;stroke-dasharray:none;stroke-opacity:0.69800002"
             d="m 133.75,144.36 4.45,-7.69 h -8.89 l 4.44,7.69" />
          <path
             inkscape:connector-curvature="0"
             id="path4757"
             style="fill:#1874cd;fill-opacity:0.69800002;fill-rule:nonzero;stroke:none"
             d="m 220.03,166.02 4.45,-7.7 h -8.89 z" />
          <path
             inkscape:connector-curvature="0"
             id="path4759"
             style="fill:#1874cd;fill-opacity:0.69800002;fill-rule:nonzero;stroke:none"
             d="m 333.18,158.6 4.44,-7.7 h -8.89 z" />
          <path
             inkscape:connector-curvature="0"
             id="path4761"
             style="fill:#1874cd;fill-opacity:0.69800002;fill-rule:nonzero;stroke:none"
             d="M 230.45,193.69 234.89,186 H 226 Z" />
          <path
             inkscape:connector-curvature="0"
             id="path4763"
             style="fill:#1874cd;fill-opacity:0.69800002;fill-rule:nonzero;stroke:none"
             d="m 220.6,155.81 4.45,-7.7 h -8.89 z" />
          <path
             inkscape:connector-curvature="0"
             id="path4765"
             style="fill:#1874cd;fill-opacity:0.69800002;fill-rule:nonzero;stroke:none"
             d="m 255.81,178.52 4.45,-7.7 h -8.89 z" />
          <path
             inkscape:connector-curvature="0"
             id="path4767"
             style="fill:#1874cd;fill-opacity:0.69800002;fill-rule:nonzero;stroke:none"
             d="m 318.68,166.23 4.45,-7.7 h -8.89 z" />
          <path
             inkscape:connector-curvature="0"
             id="path4769"
             style="fill:#1874cd;fill-opacity:0.69800002;fill-rule:nonzero;stroke:none"
             d="m 299.69,200.45 4.44,-7.7 h -8.88 z" />
          <path
             inkscape:connector-curvature="0"
             id="path4771"
             style="fill:#1874cd;fill-opacity:0.69800002;fill-rule:nonzero;stroke:none"
             d="m 268.23,169.81 4.45,-7.69 h -8.89 z" />
          <path
             inkscape:connector-curvature="0"
             id="path4773"
             style="fill:none;stroke:#228b22;stroke-width:1.88;stroke-linecap:round;stroke-linejoin:round;stroke-miterlimit:10;stroke-dasharray:none;stroke-opacity:0.69800002"
             d="m 121.94,124.46 4.66,4.67 4.67,-4.67 -4.67,-4.66 -4.66,4.66" />
          <path
             inkscape:connector-curvature="0"
             id="path4775"
             style="fill:none;stroke:#228b22;stroke-width:1.88;stroke-linecap:round;stroke-linejoin:round;stroke-miterlimit:10;stroke-dasharray:none;stroke-opacity:0.69800002"
             d="m 134.54,135.46 4.66,4.67 4.67,-4.67 -4.67,-4.67 -4.66,4.67" />
          <path
             inkscape:connector-curvature="0"
             id="path4777"
             style="fill:none;stroke:#228b22;stroke-width:1.88;stroke-linecap:round;stroke-linejoin:round;stroke-miterlimit:10;stroke-dasharray:none;stroke-opacity:0.69800002"
             d="m 122.28,134.4 4.66,4.66 4.67,-4.66 -4.67,-4.67 -4.66,4.67" />
          <path
             inkscape:connector-curvature="0"
             id="path4779"
             style="fill:none;stroke:#228b22;stroke-width:1.88;stroke-linecap:round;stroke-linejoin:round;stroke-miterlimit:10;stroke-dasharray:none;stroke-opacity:0.69800002"
             d="m 120.87,131.51 4.67,4.67 4.67,-4.67 -4.67,-4.66 -4.67,4.66" />
          <path
             inkscape:connector-curvature="0"
             id="path4781"
             style="fill:none;stroke:#228b22;stroke-width:1.88;stroke-linecap:round;stroke-linejoin:round;stroke-miterlimit:10;stroke-dasharray:none;stroke-opacity:0.69800002"
             d="m 135.58,140.07 4.67,4.66 4.67,-4.66 -4.67,-4.67 -4.67,4.67" />
          <path
             inkscape:connector-curvature="0"
             id="path4783"
             style="fill:none;stroke:#228b22;stroke-width:1.88;stroke-linecap:round;stroke-linejoin:round;stroke-miterlimit:10;stroke-dasharray:none;stroke-opacity:0.69800002"
             d="m 129.19,134.9 4.66,4.67 4.67,-4.67 -4.67,-4.67 -4.66,4.67" />
          <path
             inkscape:connector-curvature="0"
             id="path4785"
             style="fill:#228b22;fill-opacity:0.69800002;fill-rule:nonzero;stroke:none"
             d="m 168.67,154.49 4.95,4.95 4.95,-4.95 -4.95,-4.95 z" />
          <path
             inkscape:connector-curvature="0"
             id="path4787"
             style="fill:#228b22;fill-opacity:0.69800002;fill-rule:nonzero;stroke:none"
             d="m 171.61,148.82 4.95,4.95 4.95,-4.95 -4.95,-4.95 z" />
          <path
             inkscape:connector-curvature="0"
             id="path4789"
             style="fill:#228b22;fill-opacity:0.69800002;fill-rule:nonzero;stroke:none"
             d="m 166.59,149.85 4.95,4.95 4.95,-4.95 -4.95,-4.95 z" />
          <path
             inkscape:connector-curvature="0"
             id="path4791"
             style="fill:#228b22;fill-opacity:0.69800002;fill-rule:nonzero;stroke:none"
             d="m 167.98,158.91 4.95,4.95 4.95,-4.95 -4.95,-4.95 z" />
          <path
             inkscape:connector-curvature="0"
             id="path4793"
             style="fill:#228b22;fill-opacity:0.69800002;fill-rule:nonzero;stroke:none"
             d="m 162.07,146.91 4.95,4.95 4.95,-4.95 -4.95,-4.95 z" />
          <path
             inkscape:connector-curvature="0"
             id="path4795"
             style="fill:#228b22;fill-opacity:0.69800002;fill-rule:nonzero;stroke:none"
             d="m 158.93,149.2 4.95,4.95 4.95,-4.95 -4.95,-4.95 z" />
        </g>
      </g>
      <g
         id="g4797" />
      <g
         id="g4799">
        <path
           inkscape:connector-curvature="0"
           id="path4801"
           style="fill:none;stroke:#a6a6a6;stroke-width:1.12;stroke-linecap:round;stroke-linejoin:round;stroke-miterlimit:10;stroke-dasharray:none;stroke-opacity:1"
           d="M 45.61,47.41 H 351.99 V 204.99 H 45.61 Z" />
      </g>
      <g
         id="g4803" />
      <g
         id="g4805" />
      <g
         id="g4807" />
    </g>
  </g>
</svg>
